<?xml version="1.0" encoding="utf-8"?>
<!-- Generator: Adobe Illustrator 14.0.0, SVG Export Plug-In . SVG Version: 6.00 Build 43363)  -->
<!DOCTYPE svg PUBLIC "-//W3C//DTD SVG 1.0//EN" "http://www.w3.org/TR/2001/REC-SVG-20010904/DTD/svg10.dtd">
<svg version="1.0" id="Ebene_1" xmlns="http://www.w3.org/2000/svg" xmlns:xlink="http://www.w3.org/1999/xlink" x="0px" y="0px"
	 width="319px" height="82px" viewBox="0 0 319 82" enable-background="new 0 0 319 82" xml:space="preserve">
<path fill="#1F4396" d="M61.509,32.696h1.787c1.097,0,1.805-0.655,1.805-1.78c0-1.092-0.575-1.81-1.805-1.81h-1.787 M61.509,26.625
	h1.64c1.082,0,1.768-0.481,1.768-1.51c0-1.01-0.739-1.561-1.768-1.561h-1.64V26.625z M55.994,35.854v-1.729
	c0.619-0.239,0.977-0.712,1-1.235V23.27c-0.023-0.525-0.381-0.997-1-1.233v-1.729h7.752c1.39,0,2.945-0.019,4.147,0.636
	c1.328,0.708,1.766,2.013,1.766,3.302c0,1.775-0.812,2.994-2.802,3.48v0.037c2.282,0.255,3.069,1.852,3.069,3.667
	c0,1.269-0.333,2.682-1.492,3.5c-1.265,0.905-2.885,0.926-4.438,0.926H55.994z"/>
<path fill="#1F4396" d="M77.403,30.67c-0.871,0.31-2.686,0.69-2.686,1.705c0,0.565,0.274,1.214,1.158,1.214
	c0.787,0,0.971-0.095,1.527-0.435 M77.688,34.983c-1.037,0.761-2.346,1.106-3.694,1.106c-2.283,0-3.419-1.408-3.419-3.262
	c0-2.288,1.282-2.96,3.481-3.594l3.281-0.889v-1.042c0-0.563-0.519-1.025-1.203-1.025c-0.787,0-1.332,0.463-1.332,1.025v1.114
	h-3.688v-2.49c1.682-1.05,3.502-1.735,5.534-1.735c1.307,0,2.399,0.18,3.499,0.907c1.369,0.943,1.389,2.142,1.369,3.466v4.22
	c0,0.599-0.063,1.124,0.6,1.541l0.295,1.531h-4.427"/>
<path fill="#1F4396" d="M157.563,32.696h1.787c1.099,0,1.805-0.655,1.805-1.78c0-1.092-0.577-1.81-1.805-1.81h-1.787
	 M157.563,26.625h1.641c1.083,0,1.767-0.481,1.767-1.51c0-1.01-0.738-1.561-1.767-1.561h-1.641V26.625z M152.047,35.854v-1.729
	c0.623-0.239,0.98-0.712,1-1.235V23.27c-0.021-0.525-0.378-0.997-1-1.233v-1.729h7.755c1.39,0,2.946-0.019,4.148,0.636
	c1.327,0.708,1.765,2.013,1.765,3.302c0,1.775-0.81,2.994-2.802,3.48v0.037c2.281,0.255,3.069,1.852,3.069,3.667
	c0,1.269-0.333,2.682-1.491,3.5c-1.267,0.905-2.887,0.926-4.44,0.926H152.047z"/>
<path fill="#1F4396" d="M173.391,30.67c-0.868,0.31-2.682,0.69-2.682,1.705c0,0.565,0.271,1.214,1.154,1.214
	c0.788,0,0.973-0.095,1.527-0.435 M173.677,34.983c-1.037,0.761-2.347,1.106-3.697,1.106c-2.28,0-3.417-1.408-3.417-3.262
	c0-2.288,1.281-2.96,3.481-3.594l3.28-0.889v-1.042c0-0.563-0.518-1.025-1.201-1.025c-0.789,0-1.335,0.463-1.335,1.025v1.114h-3.685
	v-2.49c1.678-1.05,3.498-1.735,5.533-1.735c1.305,0,2.398,0.18,3.498,0.907c1.368,0.943,1.389,2.142,1.368,3.466v4.22
	c0,0.599-0.063,1.124,0.601,1.541l0.296,1.531h-4.43L173.677,34.983z"/>
<path fill="#1F4396" d="M87.995,25.133c1.349-0.792,2.71-0.968,3.376-0.943c1.02,0.035,1.762,0.328,2.261,0.761
	c0.89,0.745,0.994,1.577,0.994,2.558v5.181c0,0.561,0.231,1.195,0.874,1.504v1.66h-4.91c-0.291-1.162-0.27-2.377-0.27-3.555v-3.983
	c0-0.071,0.06-0.596-0.146-1.015c-0.333-0.435-1.168-0.76-1.976-0.435v5.953c0,0.561-0.063,1.197,0.602,1.504v1.531h-5.803v-1.531
	c0.644-0.325,0.895-0.853,0.895-1.433v-5.137c0-0.615-0.271-1.017-0.895-1.415v-1.913h4.996"/>
<path fill="#1F4396" d="M184.166,25.133c1.348-0.792,2.712-0.968,3.381-0.943c1.016,0.035,1.76,0.328,2.26,0.761
	c0.891,0.745,0.994,1.577,0.994,2.558v5.181c0,0.561,0.231,1.195,0.873,1.504v1.66h-4.912c-0.289-1.162-0.268-2.377-0.268-3.555
	v-3.983c0-0.071,0.062-0.596-0.145-1.015c-0.333-0.435-1.168-0.76-1.977-0.435v5.953c0,0.561-0.061,1.197,0.604,1.504v1.531h-5.804
	v-1.531c0.642-0.325,0.894-0.853,0.894-1.433v-5.137c0-0.615-0.273-1.017-0.894-1.415v-1.913h4.993"/>
<path fill="#1F4396" d="M103.254,27.046c-0.224-0.135-0.986-0.223-1.269-0.223c-1.417,0-1.608,1.213-1.608,1.833v2.64
	c0,0.587,0.27,2.023,1.628,2.023c0.244,0,1.025-0.07,1.25-0.19 M108.459,25.951c-0.643,0.347-0.895,0.839-0.895,1.417v7.958
	c0,1.289,0.063,3.029-1.078,3.991c-1.121,0.964-2.566,1.125-4.059,1.125c-2.178,0-3.672-0.741-5.58-1.665v-2.162h3.956
	c0,0.129,0.021,0.838,0.146,1.096c0.143,0.252,0.666,0.43,1.061,0.43c1.077,0,1.248-1.508,1.248-2.162v-0.725
	c-0.872,0.58-2.098,0.835-3.029,0.835c-3.231,0-4.028-2.082-4.028-4.586v-2.24c0-2.484,0.278-5.075,3.797-5.075
	c1.163,0,2.45,0.275,3.385,0.89v-0.652h5.077V25.951z"/>
<path fill="#1F4396" d="M113.768,28.222l1.573-1.167c0.555-0.533,0.686-1.178,0.686-2.175v-0.454h4.66v1.528
	c-0.164,0.076-0.621,0.238-0.974,0.618l-2.669,2.35l2.669,3.844c0.333,0.595,0.582,1.233,1.371,1.56v1.53h-4.16l-3.113-4.974h-0.042
	v1.938c0,0.615,0.233,1.087,0.896,1.506v1.53h-5.805v-1.53c0.623-0.419,0.896-0.819,0.896-1.434v-9.548
	c0-0.618-0.233-1.088-0.896-1.506v-1.53h4.909"/>
<path fill="#1F4396" d="M197.223,28.222l1.572-1.167c0.557-0.533,0.686-1.178,0.686-2.175v-0.454h4.66v1.528
	c-0.165,0.076-0.621,0.238-0.975,0.618l-2.671,2.35l2.671,3.844c0.334,0.595,0.584,1.233,1.373,1.56v1.53h-4.161l-3.112-4.974
	h-0.043v1.938c0,0.615,0.232,1.087,0.895,1.506v1.53h-5.803v-1.53c0.621-0.419,0.895-0.819,0.895-1.434v-9.548
	c0-0.618-0.231-1.088-0.895-1.506v-1.53h4.908"/>
<path fill="#1F4396" d="M138.036,28.222l1.572-1.167c0.557-0.533,0.687-1.178,0.687-2.175v-0.454h4.661v1.528
	c-0.164,0.076-0.624,0.238-0.974,0.618l-2.673,2.35l2.673,3.844c0.334,0.595,0.583,1.233,1.368,1.56v1.53h-4.157l-3.113-4.974
	h-0.044v1.938c0,0.615,0.233,1.087,0.896,1.506v1.53h-5.804v-1.53c0.621-0.419,0.895-0.819,0.895-1.434v-9.548
	c0-0.618-0.233-1.088-0.895-1.506v-1.53h4.907"/>
<path fill="#1F4396" d="M125.523,32.441c0,0.617,0.472,1.56,1.393,1.56c1.027,0,1.414-0.943,1.414-1.56v-4.458
	c0-0.617-0.346-1.707-1.396-1.707c-1.052,0-1.411,1.072-1.411,1.707 M132.752,31.499c0,1.272-0.041,2.703-1.225,3.593
	c-1.182,0.887-2.922,0.997-4.415,0.997c-1.352,0-3.259-0.093-4.399-0.763c-1.598-0.923-1.598-2.321-1.598-3.827v-2.974
	c0-1.236,0.022-2.576,1.247-3.41c1.181-0.817,2.779-0.925,4.251-0.925c1.327,0,3.318,0.088,4.459,0.671
	c1.576,0.834,1.68,2.213,1.68,3.665V31.499z"/>
<path fill="#1F4396" d="M312.573,62.567c0.024,1.752-0.243,1.788-1.107,1.975h-10.535c-0.774,0.044-1.488-0.428-1.532-1.288
	l0.021-13.936c-0.174-0.305-0.329-0.631-0.699-0.705c-0.328-0.023-0.664,0.051-0.837,0.277l-0.249,0.555l-0.016,13.527
	c0,0.859-0.361,1.664-1.738,1.569h-9.729c-0.584,0.044-2.018,0.018-2.061-1.33l0.09-13.767c-0.102-0.48,0.031-0.953-0.904-0.953
	l-1.283-0.063c-0.678,0.063-0.733-0.367-0.733-0.736v-2.897c0.116-0.551,0.304-0.655,1.724-0.655h6.157
	c0.984,0,0.855,1.088,0.855,1.088l0.034,13.928c0.077,0.297,0.124,0.723,0.473,0.85c0.383,0.225,0.724,0.164,1.152,0.066
	c0,0,0.52-0.188,0.52-0.994l-0.033-12.324c0.02-0.898,0.052-2.32,1.979-2.597c1.595,0,6.724-0.021,8.666,0
	c0.999,0,1.963,0.202,2.194,1.236l0.006,14.188c0.08,0.249,0.277,0.527,0.559,0.648c0.5,0.122,0.848,0.053,1.079-0.273l0.177-0.307
	l0.122-4.266l-0.019-10.18c0-0.737-0.058-1.106,0.928-1.106h3.877c0.641,0.042,0.862,0.31,0.892,0.923L312.573,62.567"/>
<path fill="#1F4396" d="M279.553,63.64c0.044,0.855-0.475,0.902-0.809,0.855h-4.277c0,0-0.807,0.091-0.807-0.954l-0.045-14.204
	c-0.076-0.45-0.241-0.504-0.621-0.804c-0.572-0.203-0.857-0.122-1.489-0.074c-1.077,0.348-0.598,1.705-0.724,2.636l-0.018,11.548
	c0,1.375,0.144,1.853-1.045,1.853h-11.116c-0.829,0.013-1.718-0.047-1.712-1.95l-0.039-13.262c-0.109-0.477-0.195-0.941-0.855-0.949
	c0,0-1.152,0.048-1.674,0.002c-0.564-0.042-0.564-0.707-0.564-0.707l0.01-2.914c0-0.617,0.927-0.617,0.927-0.617l6.759,0.016
	c0,0,0.952,0.098,1.045,1.14l0.025,14.208c-0.025,0.352,0.295,0.656,0.55,0.832c0.452,0.199,1.132,0.147,1.559-0.049
	c0.328-0.202,0.479-0.404,0.431-0.883l0.023-13.541c0.103-0.625,0.219-1.662,1.506-1.662h10.163c2.191-0.061,2.81,0.371,2.81,2.035
	L279.553,63.64"/>
<path fill="#1F4396" d="M254.139,64.16c0,0.426-0.328,0.382-0.672,0.396l-7.305-0.015c-0.767,0.044-0.943-0.223-1.186-0.715
	l-0.027-19.21c0,0-0.051-0.477,0.457-0.477h4.923l0.548,0.377l-0.055,14.629c0.052,0.573,0,1.092,0.557,1.291
	c0,0,1.867,0.016,2.334,0.016c0.48,0,0.457,0.561,0.457,0.561L254.139,64.16"/>
<path fill="#1F4396" d="M242.508,62.635c-0.174,0.829-0.596,1.685-1.447,1.907c0,0-14.222-0.03-14.195-0.034
	c-1.139,0.004-1.264-0.449-1.547-1.176c0,0,0.014-4.869,0.045-7.223c0-0.28,0.357-0.727,0.576-0.779
	c0.604-0.055,4.403-0.022,4.403-0.022c0.744,0,0.698,0.429,0.802,0.984v3.321c0.17,0.131,0.247,0.68,1.108,0.68l3.403,0.01
	c0.664,0.051,0.83-0.43,0.932-0.906l0.025-9.989c0.074-0.581-0.287-1.16-1.279-1.119l-2.484,0.038
	c-0.468-0.038-1.08,0.145-1.147-0.715c0,0,0-1.912-0.011-3.297l0.298-0.178l8.956-0.043c0.782,0.18,1.467,0.374,1.533,1.543
	L242.508,62.635"/>
<path fill="#1F4396" d="M222.879,63.123c0.074,1.067-0.846,1.236-1.5,1.41l-8.758-0.029c-0.406,0.053-0.712,0.045-0.759-0.459
	c-0.028-0.578,0-1.91,0-3.199c0,0-0.122-0.615,0.675-0.615l3.654-0.039c0.678,0,0.99-0.369,0.926-1.046c0,0-0.039-2.716,0-3.573
	c-0.104-0.477-0.42-0.809-0.926-0.986l-8.484-0.02c-1.146,0-1.639-0.495-1.716-1.563l0.028-6.752
	c-0.099-1.555,0.688-2.09,2.041-2.09h14.109c0.223,0.053,0.857-0.031,0.857,1.109v2.459c0,0.926-0.857,0.781-1.396,0.818
	l-9.213,0.049c-0.455,0.152-0.627,0.499-0.678,0.949c-0.072,0.457,0.201,0.707,0.503,0.986c0.575,0.242,1.354,0.047,1.986,0.172
	l7.515-0.057c1.064,0.071,1.135,0.711,1.135,1.998V63.123"/>
<path fill="#1F4396" d="M222.811,74.973c-0.432,0.38-1.023,0.23-1.531,0.332l-3.586-0.057c-0.177-0.121-0.504-0.045-0.504-0.35
	c-0.376-1.303,0.65-3.461-0.886-4.143c-1.327-0.297-2.884,0-4.183-0.273c-0.154-1.205-0.102-2.539-0.049-3.764l0.218-0.208
	c2.993-0.069,5.981-0.069,8.965,0c0.554,0.257,1.155,0.481,1.411,1.084c0.145,0.349,0.248,0.755,0.271,1.154L222.811,74.973"/>
<path fill="#1F4396" d="M203.977,63.838c0,0,0.033,0.704-0.575,0.704h-4.506c-0.744,0-0.562-0.624-0.615-0.927l0.003-13.5
	c-0.055-0.655-0.618-1.359-1.274-1.559h-3.937c-0.862,0-0.891,0.452-0.963,0.721l-0.023,14.854c0,0,0.154,0.411-0.641,0.411
	c0,0-4.42,0.106-4.883,0.054c-0.48-0.054-0.395-0.713-0.395-0.713V44.919c-0.061-0.552,0.314-0.778,1.051-0.778h13.918
	c2.09,0,2.84,0.479,2.84,3.069V63.838"/>
<path fill="#1F4396" d="M183.195,63.371c0,0.802-0.185,1.171-1.17,1.171c0,0-9.172,0.005-9.233,0c-1.235,0-1.09-0.334-1.09-0.533
	c0,0-0.058-2.034-0.058-2.897c0-0.855,0.608-0.979,0.608-0.979l3.697-0.004c0.388,0.014,1.292,0.247,1.292-0.803v-2.894
	c0-1.229-0.184-1.351-1.102-1.412l-8.372,0.015c-0.179-0.201-0.505-0.05-0.704-0.176c-0.607-0.252-0.906-0.806-1.029-1.404v-7.158
	c-0.056-1.009,0.25-2.156,2.958-2.156l12.178,0.017c1.386,0,1.987-0.223,1.987,1.071v2.837c0,0.858-0.617,0.797-1.539,0.735
	l-8.508,0.009c-0.346,0.101-0.725,0.199-0.926,0.526c-0.123,0.376-0.179,0.932,0.025,1.305l0.473,0.303l8.998-0.051
	c1.104,0.121,1.546,1.656,1.523,2.385L183.195,63.371"/>
<path fill="#1F4396" d="M163.981,63.578c0,0,0.158,0.964-0.826,0.964h-4.188c-0.679,0-0.86-0.679-0.86-0.679l0.014-13.873
	c-0.023-0.424,0.038-1.176-0.817-1.28l-3.853-0.032c-1.293,0.062-0.802,0.736-0.925,1.168c0,0,0.31,1.047-0.801,0.863h-4.432
	c0,0-0.672,0.061-0.672-0.615v-4.806c0.058-1.477,1.041-1.147,1.78-1.147l13.934,0.02c0.725,0.129,1.482,0.734,1.663,1.469
	L163.981,63.578"/>
<path fill="#1F4396" d="M120.364,63.578c0,0,0.158,0.964-0.825,0.964h-4.186c-0.679,0-0.864-0.679-0.864-0.679l0.015-13.873
	c-0.026-0.424,0.04-1.176-0.818-1.28l-3.851-0.032c-1.293,0.062-0.801,0.736-0.924,1.168c0,0,0.308,1.047-0.803,0.863h-4.431
	c0,0-0.678,0.061-0.678-0.615v-4.806c0.064-1.477,1.049-1.147,1.784-1.147l13.934,0.02c0.726,0.129,1.487,0.734,1.664,1.469
	L120.364,63.578"/>
<path fill="#1F4396" d="M144.589,63.64c0,0,0.035,0.902-0.642,0.902c-1.172,0-4.188,0.018-4.553,0
	c-0.595-0.034-0.656-0.839-0.656-0.839l0.061-13.687c-0.06-0.401-0.232-0.849-0.605-1.052l-0.551-0.176h-8.733
	c-0.458,0.127-0.759,0.428-0.91,0.826l0.025,9.439c0.047,0.432,0.401,0.758,0.783,0.951c0.55-0.068,1.052,0.129,1.476-0.169
	l0.301-0.479l0.051-6.681c0.027-0.446-0.208-1.413,1.147-1.601h4.556c1.044,0,1.044,0.558,1.044,0.558c0.051,1.149,0,3.079,0,3.079
	c0.063,0.49-0.86,0.49-1.298,0.477c-0.323,0.051-0.67,0.328-0.609,1.123v7.141c-0.123,1.055-1.477,1.061-2.182,1.089h-8.615
	c-0.705-0.155-1.641-0.034-1.826-1.274l0.027-17.967c0.096-0.877,0.85-1.143,1.557-1.143h18.618
	c0.622,0.201,0.912,0.591,1.237,1.213c0.156,0.383,0.205,0.828,0.305,1.23L144.589,63.64"/>
<path fill="#1F4396" d="M107.359,64.508l-9.773,0.034c-1.11,0-1.318-0.86-1.543-1.413c-0.078-1.834,0-3.742-0.229-5.524
	c-0.073-0.325-0.322-0.503-0.627-0.579c-0.327-0.023-0.551,0.151-0.779,0.277l-0.276,0.559l-0.028,5.096
	c0.062,1.551-0.828,1.551-1.539,1.551l-9.577,0.004c-0.527-0.129-0.982-0.403-1.254-0.86c-0.503-1.478-0.279-3.281-0.352-4.839
	c0.025-3.17-0.026-6.307-0.173-9.391c-0.326-0.904-2.203-0.729-2.203-0.729c-0.36,0.105-0.729-0.08-0.729-0.569l0.043-2.959
	c0.023-0.532,0.104-0.94,0.267-1.067h6.772c0.874,0.127,1.445,0.827,1.697,1.683c0.044,0.681,0.122,2.337,0.122,2.337
	c0.05,2.256,0.253,11.122,0.253,11.122c0.097,0.274,0.324,0.528,0.577,0.702c0.373,0.074,0.825,0.074,1.104-0.174l0.276-0.605
	c0.074-1.909-0.377-4.068,0.199-5.85c0.704-0.98,2.132-0.807,3.219-0.828c0.798,0,1.977,0.098,2.807-0.252l0.175-0.48
	c0,0,0.005-6.358-0.026-6.834c-0.059-0.986,0.433-0.777,0.433-0.777h4.741c0.617,0,0.8,0.163,0.741,0.777l0.042,7.119
	c0.097,0.145,0.199,0.27,0.375,0.365l4.783,0.18c0.795,0.095,1.346,0.341,1.532,1.143l0.005,9.382
	C108.406,64.066,108.095,64.508,107.359,64.508 M103.77,59.339c0.053-0.703,0.229-1.611-0.376-2.086
	c-0.226-0.173-0.604-0.173-0.954-0.173c-0.427,0.021-0.603,0.426-0.674,0.781c0,0.774-0.129,1.752,0.595,2.08
	c0.305,0.174,0.708,0.019,1.033-0.052C103.621,59.784,103.697,59.588,103.77,59.339"/>
<path fill="#1F4396" d="M76.322,62.313c-0.075,0.682-0.429,1.381-1.028,1.734c-0.501,0.303-0.886,0.467-1.515,0.495H59.658
	c-1.228-0.157-2.497-0.308-3.077-1.54c-0.172-1.912-0.325-3.953-0.172-5.914l0.544-0.269c1.708-0.053,3.902-0.075,5.273,0
	c0.601,0.949-0.353,2.735,1.077,3.108c1.934,0.155,4.117,0.107,6.123,0.055c0.307-0.025,0.561-0.127,0.831-0.228
	c0.653-0.856,0.225-2.208,0.351-3.235c0.076-0.506-0.251-0.959-0.603-1.158c-1.453-0.252-3.109-0.125-4.618-0.101l-7.227,0.101
	c-0.906-0.252-1.533-0.904-1.682-1.835c-0.078-2.479-0.078-4.771,0-7.253c0.123-1.205,0.424-1.853,1.482-2.133h17.483
	c0.275,0.074,0.803,0.283,0.74,0.963v3.205c0,0,0,0.554-0.985,0.554c-0.799,0-11.944,0.05-11.944,0.05
	c-0.325,0.021-0.676,0.324-0.777,0.648c0,0.379-0.076,0.779,0.248,1.031l0.455,0.25c4.118,0.172,7.468-0.125,11.711,0.102
	c0.806,0.199,1.331,0.879,1.403,1.686L76.322,62.313"/>
<path fill="#1F4396" d="M52.169,39.529c-0.558-2.11-1.365-3.672-2.667-6.058c-0.425-0.677-0.974-1.433-1.464-2.235
	c-5.661-8.394-16.83-23.043-17.852-23.984c0,0-0.07-0.054-0.127-0.054c-0.064,0-0.135,0.054-0.135,0.054
	c-1.016,0.94-12.188,15.59-17.851,23.984c-0.489,0.803-1.038,1.559-1.467,2.235c-1.3,2.386-2.104,3.948-2.665,6.058
	c-0.694,3.047-0.729,6.836-0.098,9.951c0.57,2.734,3.168,5.527,5.781,7.613l3.999,3.176c0,0,11.177,8.059,12.215,8.568
	c0,0,0.103,0.068,0.22,0.068c0.114,0,0.213-0.068,0.213-0.068c1.042-0.51,12.212-8.568,12.212-8.568l3.999-3.176
	c2.616-2.086,5.211-4.879,5.78-7.613C52.894,46.365,52.865,42.576,52.169,39.529 M26.555,60.549c-0.079,0.12-0.26,0.082-0.39,0.07
	c-0.653-0.459-2.272-1.631-2.272-1.631c-2.783-2.063-5.59-3.967-8.258-6.088c-4.094-4.506-3.679-9.002-2.424-13.52
	c0.045-0.291,0.18-0.732,0.565-0.811c1.154,1.703,3.602,5.211,3.602,5.211c2.382,3.424,5.275,6.51,8.01,9.725
	C27.266,55.23,26.507,58.127,26.555,60.549 M30.062,51.615c-0.056-0.002-0.146-0.04-0.231-0.128
	c-3.543-4.196-7.562-8.94-11.088-13.153c-0.638-1.068-1.288-2.094-1.361-3.47c-0.042-1.074-0.109-2.063,0.78-3.409
	c0,0,0.587-0.853,0.755-1.104c0,0,7.224-10.159,11.028-14.973c0,0,0.05-0.066,0.114-0.066c0.054,0,0.102,0.066,0.102,0.066
	c3.804,4.813,11.026,14.973,11.026,14.973c0.171,0.251,0.759,1.104,0.759,1.104c0.886,1.347,0.819,2.335,0.772,3.409
	c-0.07,1.376-0.723,2.401-1.357,3.47c-3.528,4.213-7.545,8.957-11.085,13.153C30.191,51.575,30.106,51.613,30.062,51.615
	 M44.453,52.9c-2.668,2.121-5.479,4.024-8.263,6.088c0,0-1.616,1.172-2.271,1.631c-0.13,0.012-0.311,0.05-0.387-0.07
	c0.049-2.422-0.712-5.318,1.168-7.043c2.735-3.215,5.626-6.301,8.007-9.725c0,0,2.448-3.508,3.603-5.211
	c0.379,0.078,0.517,0.52,0.563,0.811C48.134,43.898,48.545,48.395,44.453,52.9"/>
</svg>
