<?xml version="1.0" encoding="utf-8"?>
<!-- Generator: Adobe Illustrator 25.2.3, SVG Export Plug-In . SVG Version: 6.00 Build 0)  -->
<svg version="1.1" id="Layer_6" xmlns="http://www.w3.org/2000/svg" xmlns:xlink="http://www.w3.org/1999/xlink" x="0px" y="0px"
	 viewBox="0 0 595.3 296.5" style="enable-background:new 0 0 595.3 296.5;" xml:space="preserve">
<style type="text/css">
	.st0{fill:#0050F0;}
	.st1{fill:#F58A1F;}
	.st2{fill:#002D63;}
</style>
<g>
	<path class="st0" d="M178.7,177.6c0.4,33.4-27.4,60.6-59.7,59.7c-31.1-0.8-56.8-27.4-56.5-59.5c0-2.9,0-5.9,0-8.8c0-3.5,0-7,0-10.6
		V118H119V58.5H62.5v-9.3V0H0v177.5c0,65.7,53.3,119,119,119c65.7,0,118.9-53.2,119-118.9L178.7,177.6L178.7,177.6z"/>
	<path class="st1" d="M357.3,177.6c0.4,33.4-27.4,60.6-59.7,59.7c-31.1-0.8-56.8-27.4-56.5-59.5c0-2.9,0-5.9,0-8.8c0-3.5,0-7,0-10.6
		V118h56.5V58.5h-56.5v-9.3V0h-62.5v177.5c0,65.7,53.3,119,119,119c65.7,0,118.9-53.2,119-118.9L357.3,177.6L357.3,177.6z"/>
	<path class="st2" d="M476.3,58.5c-20.5,0-39.7,5.2-56.5,14.2V0h-62.5v177.5c0,65.7,53.3,119,119,119s119-53.3,119-119
		S542,58.5,476.3,58.5z M476.3,237.3c-33,0-59.7-26.7-59.7-59.7s26.7-59.7,59.7-59.7s59.7,26.7,59.7,59.7
		C536,210.6,509.2,237.3,476.3,237.3z"/>
</g>
</svg>
