<svg width="128" height="128" viewBox="0 0 128 128" fill="none" xmlns="http://www.w3.org/2000/svg">
<rect width="128" height="128" fill="#4E9A29"/>
<path d="M84 14H44C27.4375 14 14 27.4375 14 44V84C14 100.562 27.4375 114 44 114H84C100.562 114 114 100.562 114 84V44C114 27.4375 100.562 14 84 14ZM47.2812 20.875H80.6406V42.8281C77.8281 44.5469 74.8594 46.7344 72.0469 49.7812V29.3125H55.875V49.7812C53.375 47.0469 50.4062 44.7813 47.2812 42.8281V20.875ZM52.2031 91.9688V106.891H48.2969V99.3906C48.2969 99.3906 48.7656 95.7187 44.7813 95.7187H24.8594V92.2031H47.4375C48.4531 92.2031 48.4531 90.7187 47.4375 90.7187H24.8594V87.2813H48.7656C52.6719 87.2813 52.2031 89 52.2031 91.9688ZM57.6719 82.0469V106.891H53.7656V89.4687C53.7656 89.4687 54.2344 85.7969 50.25 85.7969H24.8594V82.2813H52.9844C53.9219 82.2813 53.9219 80.7969 52.9844 80.7969H24.8594V77.2812H54.2344C58.1406 77.3594 57.6719 79 57.6719 82.0469ZM63.2188 106.891H59.3125V79.4688C59.3125 79.4688 59.7812 75.7969 55.7969 75.7969H24.8594V72.3594H58.5312C59.4688 72.3594 59.4688 70.875 58.5312 70.875H24.8594V67.4375H59.2344C61.6563 67.9063 63.1406 70.3281 63.1406 72.8281V106.891H63.2188ZM103.062 90.7969H80.4062C79.3906 90.7969 79.3906 92.2812 80.4062 92.2812H103.062V95.7969H83.1406C79.0781 95.7969 79.625 99.4688 79.625 99.4688V106.969H75.7188V91.9688C75.7188 88.9219 75.25 87.2813 79.1563 87.2813H103.062V90.7969ZM103.062 80.875H74.9375C74 80.875 74 82.3594 74.9375 82.3594H103.062V85.875H77.6719C73.6094 85.875 74.1562 89.5469 74.1562 89.5469V106.969H70.25V82.0469C70.25 79 69.7813 77.3594 73.6875 77.3594H103.062V80.875ZM103.062 70.875H69.3906C68.4531 70.875 68.4531 72.3594 69.3906 72.3594H103.062V75.7969H72.2031C68.2188 75.7969 68.6875 79.4688 68.6875 79.4688V106.891H64.7812V72.8281C64.7812 70.25 66.2656 67.9063 68.6875 67.4375H103.062V70.875ZM103.062 65.875H94.1562V47.9844C90.3281 48.4531 82.75 52.5156 78.8438 57.2031H91.8906V65.9531H64H63.9219H24.8594V48.7656H33.6094V57.2031H49C44.0781 51.5 33.6094 46.5781 24.8594 46.8906V31.5781H46.1094V40.3281H39C51.7344 44.625 60.875 55.3281 63.9219 65.7969C67.75 53.8438 77.125 44.3906 88.9219 40.3281H81.7344V31.5781H94.1562V29.0781H103.062V65.875Z" fill="white"/>
<path d="M63.8438 65.875H64C64 65.7969 64 65.7969 63.9219 65.7188C63.9219 65.7969 63.9219 65.875 63.8438 65.875Z" fill="white"/>
</svg>
