<svg width="128" height="128" viewBox="0 0 128 128" fill="none" xmlns="http://www.w3.org/2000/svg">
<rect width="128" height="128" fill="#214796"/>
<path d="M81.375 37.2812L63.5625 14L45.75 37.2812C32.3125 54.8594 27 62.75 27 74.5469C27 84.5469 29.5781 89.3906 38.9531 96.1875L63.5625 114L88.1719 96.1875C97.5469 89.3906 100.125 84.5469 100.125 74.5469C100.125 62.75 94.8125 54.8594 81.375 37.2812ZM58.0938 95.0938L57.9375 99.9375C57.9375 100.563 57.5469 100.641 57.1563 100.328C50.75 95.7187 43.25 90.25 43.25 90.25C35.4375 84.625 34.9687 78.5313 34.9687 74.3906C34.9687 71.5781 35.3594 68.5313 36.6875 65.4063C36.7656 65.1719 36.9219 64.7812 37.1563 64.7812C37.3125 64.7812 37.3906 64.8594 37.4688 65.0156C40.2031 69 44.5781 75.4844 48.9531 80.7969C57.3906 90.9531 58.25 90.0938 58.0938 95.0938ZM63.5625 85.9531C63.4844 85.9531 63.4063 85.875 63.3281 85.875L46.0625 65.4063C44.1094 63.0625 43.0156 60.4844 43.0156 57.9063C43.0156 56.1875 43.6406 54.3906 44.8906 52.75L63.3281 27.4375C63.4063 27.3594 63.4844 27.2812 63.5625 27.2812C63.6406 27.2812 63.7188 27.3594 63.7969 27.4375L82.2344 52.75C83.4063 54.3906 84.1094 56.1875 84.1094 57.9063C84.1094 60.4844 83.0938 63.0625 81.0625 65.4063L63.7969 85.875C63.7188 85.9531 63.6406 85.9531 63.5625 85.9531ZM83.875 90.25C83.875 90.25 76.2969 95.7187 69.9688 100.328C69.5781 100.641 69.2656 100.563 69.1875 99.9375L69.0313 95.0938C68.875 90.0938 69.7344 90.9531 78.1719 80.7969C82.5469 75.4844 86.9219 69.0781 89.6563 65.0156C89.7344 64.8594 89.8906 64.7812 89.9688 64.7812C90.125 64.7812 90.3594 65.1719 90.4375 65.4063C91.6875 68.5313 92.1563 71.5781 92.1563 74.3906C92.1563 78.5313 91.6875 84.625 83.875 90.25Z" fill="white"/>
</svg>
