<svg width="128" height="128" viewBox="0 0 128 128" fill="none" xmlns="http://www.w3.org/2000/svg">
<rect width="128" height="128" fill="#1F915F"/>
<path d="M29.6948 111.403C24.8247 107.669 21.9838 100.445 21.9838 100.445C17.8442 98.9026 12 94.9253 12 94.9253C12 94.9253 15.8149 92.8149 19.224 92.2468C18.0065 85.1851 19.6299 75.6071 19.6299 75.6071C19.6299 75.6071 20.7662 84.2922 24.987 90.948C30.1818 89.8929 34.5649 89.487 34.5649 89.487C34.5649 89.487 31.8052 93.3831 30.3442 97.6851C33.5909 100.932 39.5162 104.26 41.789 105.071C36.8377 104.828 31.237 103.854 29.1266 103.042C29.0455 106.045 29.1266 109.211 29.6948 111.403ZM42.9253 70.4123C40.0844 64.4058 38.2175 56.5325 38.2175 56.5325C38.2175 56.5325 31.237 60.8344 20.6851 71.1429C26.8539 58.9675 34.1591 51.2565 34.1591 51.2565C34.1591 51.2565 31.3994 48.4968 21.4968 47.6039C31.0747 44.1948 41.6266 45.3312 41.6266 45.3312C41.6266 45.3312 46.3344 41.3539 54.1266 39.0812C54.1266 39.0812 52.0974 41.8409 50.5552 46.1429C61.6753 47.3604 71.9838 53.8539 71.9838 53.8539C71.9838 53.8539 54.8571 51.1753 47.5519 53.4481C44.9545 59.6981 43.4935 66.4351 42.9253 70.4123ZM67.763 104.99C67.8442 106.938 68.5747 108.886 68.5747 108.886C68.5747 108.886 67.0325 109.049 62.8117 109.211C56.8052 112.701 49.4188 114 49.4188 114C49.4188 114 54.1266 110.916 56.4805 108.481C52.7468 107.912 49.4188 106.208 49.4188 106.208C49.4188 106.208 55.75 105.802 60.3766 104.666C62.5682 102.474 66.6266 96.711 66.6266 96.711C66.6266 96.711 66.8701 99.9578 67.276 102.068C72.6331 99.4708 77.0974 96.1429 77.0974 96.1429C77.0974 96.1429 73.1201 101.013 67.763 104.99ZM110.052 28.5292C110.539 37.7013 108.591 48.6591 105.344 57.263C105.344 51.5812 104.776 41.1916 101.367 34.1299C98.6883 35.9968 91.789 39.4058 82.1299 44.3571C83.5909 42.8961 90.0032 35.2662 91.8701 32.0195C85.1331 32.1006 73.526 32.9123 63.8669 35.1039C70.2792 31.5325 82.8604 27.3929 93.0877 25.6071C88.6234 21.7922 80.263 17.1656 73.8506 14C79.0455 14.1623 98.8507 17.8961 105.588 23.0909C110.052 22.0357 115.896 21.8734 115.896 21.8734C114.516 24.7143 112.649 26.8247 110.052 28.5292ZM29.6948 111.403C24.8247 107.669 21.9838 100.445 21.9838 100.445C17.8442 98.9026 12 94.9253 12 94.9253C12 94.9253 15.8149 92.8149 19.224 92.2468C18.0065 85.1851 19.6299 75.6071 19.6299 75.6071C19.6299 75.6071 20.7662 84.2922 24.987 90.948C30.1818 89.8929 34.5649 89.487 34.5649 89.487C34.5649 89.487 31.8052 93.3831 30.3442 97.6851C33.5909 100.932 39.5162 104.26 41.789 105.071C36.8377 104.828 31.237 103.854 29.1266 103.042C29.0455 106.045 29.1266 109.211 29.6948 111.403ZM42.9253 70.4123C40.0844 64.4058 38.2175 56.5325 38.2175 56.5325C38.2175 56.5325 31.237 60.8344 20.6851 71.1429C26.8539 58.9675 34.1591 51.2565 34.1591 51.2565C34.1591 51.2565 31.3994 48.4968 21.4968 47.6039C31.0747 44.1948 41.6266 45.3312 41.6266 45.3312C41.6266 45.3312 46.3344 41.3539 54.1266 39.0812C54.1266 39.0812 52.0974 41.8409 50.5552 46.1429C61.6753 47.3604 71.9838 53.8539 71.9838 53.8539C71.9838 53.8539 54.8571 51.1753 47.5519 53.4481C44.9545 59.6981 43.4935 66.4351 42.9253 70.4123ZM67.763 104.99C67.8442 106.938 68.5747 108.886 68.5747 108.886C68.5747 108.886 67.0325 109.049 62.8117 109.211C56.8052 112.701 49.4188 114 49.4188 114C49.4188 114 54.1266 110.916 56.4805 108.481C52.7468 107.912 49.4188 106.208 49.4188 106.208C49.4188 106.208 55.75 105.802 60.3766 104.666C62.5682 102.474 66.6266 96.711 66.6266 96.711C66.6266 96.711 66.8701 99.9578 67.276 102.068C72.6331 99.4708 77.0974 96.1429 77.0974 96.1429C77.0974 96.1429 73.1201 101.013 67.763 104.99ZM110.052 28.5292C110.539 37.7013 108.591 48.6591 105.344 57.263C105.344 51.5812 104.776 41.1916 101.367 34.1299C98.6883 35.9968 91.789 39.4058 82.1299 44.3571C83.5909 42.8961 90.0032 35.2662 91.8701 32.0195C85.1331 32.1006 73.526 32.9123 63.8669 35.1039C70.2792 31.5325 82.8604 27.3929 93.0877 25.6071C88.6234 21.7922 80.263 17.1656 73.8506 14C79.0455 14.1623 98.8507 17.8961 105.588 23.0909C110.052 22.0357 115.896 21.8734 115.896 21.8734C114.516 24.7143 112.649 26.8247 110.052 28.5292Z" fill="white"/>
</svg>
