<svg width="128" height="128" viewBox="0 0 128 128" fill="none" xmlns="http://www.w3.org/2000/svg">
<rect width="128" height="128" fill="#DE2341"/>
<path opacity="0.7" d="M48.8437 50.0938C45.0156 51.7344 28.375 59.1563 22.125 62.75C19.3906 61.6563 17.125 60.875 14 59.7031C26.9688 52.2812 41.0313 47.9844 41.2656 47.5938C43.9219 48.375 46.1094 49.4688 48.8437 50.0938Z" fill="white"/>
<path opacity="0.7" d="M61.3438 55.3281C57.5156 56.9688 40.7188 65.0156 34.5469 68.6875C31.6562 67.2031 28.8438 65.7969 25.875 64.625C38.8438 57.0469 52.2813 52.0469 52.5156 51.7344C54.9375 52.6719 58.6875 54.2344 61.3438 55.3281Z" fill="white"/>
<path d="M101.656 52.4375C97.8281 54.0781 71.5 62.5938 46.5781 79.1563C43.4531 77.2031 38.2969 74.3125 35.25 73.2969C48.2188 65.7188 65.3281 54.3906 91.5 47.6719C95.4844 49.3906 98.1406 50.875 101.656 52.4375Z" fill="white"/>
<path d="M114 59.3125C110.172 60.9531 78.2188 76.1875 62.75 89.7031C59.9375 88.0625 53.7656 83.375 50.875 81.8906C63.2969 73.8438 79.0781 62.2812 104.937 54.4688C108.922 56.1875 110.797 57.5156 114 59.3125Z" fill="white"/>
<path d="M49 42.0469C55.7969 44.2344 65.7969 47.75 72.2812 51.0313C70.25 52.125 67.4375 52.9062 64.9375 53.9219C48.375 46.9687 41.6563 44.9375 41.3438 44.7031C42.9062 44.0781 47.75 42.5156 49 42.0469Z" fill="white"/>
<path d="M61.1094 39C67.9063 41.1875 78.2969 44.1563 84.8594 47.5156C82.6719 48.0625 79.4688 48.6875 76.8906 49.7812C60.3281 42.8281 54.2344 41.0312 53.9219 40.7969C55.4062 40.1719 59.8594 39.3906 61.1094 39Z" fill="white"/>
</svg>
