<svg width="128" height="128" viewBox="0 0 128 128" fill="none" xmlns="http://www.w3.org/2000/svg">
<rect width="128" height="128" fill="#F37D32"/>
<path d="M19.1642 86.1051C19.1642 81.3441 19.2422 76.6612 19.1642 71.9002C19.1642 70.3392 19.7105 69.949 21.1154 69.949C23.7691 70.027 26.4227 69.949 29.0764 70.027C30.6374 70.1051 31.0276 69.4807 31.0276 67.9978C30.9496 65.0319 30.9496 62.066 31.0276 59.1002C31.0276 57.7734 30.6374 57.149 29.2325 57.227C26.4227 57.3051 23.691 57.227 20.8813 57.3051C19.6325 57.3051 19.2422 56.9148 19.2422 55.666C19.3203 50.1246 19.3203 44.5831 19.2422 38.9636C19.2422 37.6367 19.9447 37.0904 20.8813 36.466C32.3545 29.7538 43.9057 23.1196 55.3789 16.4074C55.613 16.2513 55.8472 16.1733 56.0033 16.0172C59.3594 12.8952 62.2472 13.7538 65.9155 16.1733C79.4179 24.9928 93.2326 33.5001 106.891 42.0075C108.218 42.866 108.764 43.7246 108.764 45.3636C108.686 53.7929 108.686 62.3002 108.764 70.7295C108.764 72.2905 108.296 72.8368 106.735 72.7587C103.925 72.6807 101.194 72.7587 98.3838 72.6807C97.135 72.6807 96.5107 72.9929 96.5887 74.3978C96.6668 77.5197 96.6668 80.5636 96.5887 83.6856C96.5887 85.0124 97.057 85.4807 98.3838 85.4807C101.194 85.4027 103.925 85.4807 106.735 85.4807C107.906 85.4807 108.452 85.7929 108.374 87.1197C108.296 91.4905 108.296 95.8612 108.374 100.232C108.374 101.715 107.75 102.183 106.501 102.573C95.1058 106.164 83.7106 109.754 72.3155 113.5C69.8179 114.281 67.8667 114.125 65.5252 113.188C56.7838 109.676 48.0423 106.32 39.3008 102.886C38.3642 102.495 37.3496 102.339 36.335 102.339C31.2618 102.261 26.1886 102.261 21.1935 102.339C19.3983 102.417 18.93 101.715 19.0081 100.076C19.2422 95.3929 19.1642 90.71 19.1642 86.1051ZM26.1886 45.8319C27.0471 45.5977 27.7496 45.4416 28.452 45.2075C37.1154 42.3197 45.7789 39.5099 54.4423 36.466C56.4716 35.7636 58.0325 35.9977 59.7496 37.1684C64.7448 40.7587 69.896 44.1928 75.0472 47.627C76.7643 48.7977 77.1545 50.2807 76.0618 52.1538C74.8131 54.3392 73.4082 54.8075 71.3789 53.6368C69.2716 52.388 67.2423 50.9831 65.135 49.6563C62.7935 48.1733 61.1545 48.6416 59.4374 51.1392C57.8765 53.4026 58.1106 55.0416 60.374 56.6026C65.6813 60.349 71.0667 64.0173 76.4521 67.6075C77.1545 68.0758 78.1692 68.388 79.1058 68.388C86.0521 68.4661 92.9985 68.388 99.9448 68.4661C101.428 68.4661 102.052 68.1539 102.052 66.5148C101.974 60.427 101.974 54.2612 102.052 48.1733C102.052 47.0026 101.662 46.3782 100.725 45.7538C87.6911 38.027 74.5789 30.2221 61.5448 22.4172C60.296 21.6367 59.2813 21.7148 58.1106 22.4172C48.2764 28.1928 38.4423 33.9684 28.6081 39.7441C25.4862 41.3831 25.252 42.0075 26.1886 45.8319ZM79.3399 90.5539C72.3155 90.5539 65.2911 90.5539 58.2667 90.5539C56.0033 90.5539 54.8325 89.149 54.8325 86.7295C54.9106 84.4661 55.7691 83.6075 58.1106 83.6075C61.4667 83.6075 64.8228 83.6856 68.1789 83.5295C70.6765 83.4514 71.8472 82.0466 71.8472 79.471C71.8472 77.2075 70.1301 75.4124 67.9448 75.4124C54.5203 75.4124 41.0179 75.4124 27.5935 75.4124C26.2666 75.4124 25.7984 75.8027 25.7984 77.1295C25.8764 82.9832 25.8764 88.9149 25.7984 94.7685C25.7984 96.1734 26.2666 96.6417 27.6715 96.6417C32.1203 96.5637 36.6471 96.5637 41.0959 96.6417C42.1106 96.6417 43.1252 96.7978 44.0618 97.1881C51.7106 100.154 59.3594 103.12 66.9301 106.164C68.4911 106.788 69.7399 106.788 71.3009 106.32C80.8228 103.12 90.4228 99.9978 100.023 96.8759C101.74 96.3295 102.598 95.549 102.286 93.6759C102.208 93.2856 102.208 92.8954 102.286 92.5051C102.442 91.0222 101.896 90.5539 100.413 90.5539C93.3106 90.6319 86.2862 90.5539 79.3399 90.5539Z" fill="white"/>
</svg>
