<svg width="128" height="128" viewBox="0 0 128 128" fill="none" xmlns="http://www.w3.org/2000/svg">
<g clip-path="url(#clip0_1_1604)">
<rect width="128" height="128" fill="#154314"/>
<path d="M111.5 21.1C103.4 12.1 92.7 5.50001 81 2.30001C73.4 0.200008 65.4 -0.399992 57.5 0.400008C44.3 1.60001 31.6 7.10001 21.7 15.9C13.4 23.2 7.10002 32.7 3.40002 43.2C-0.799983 55.5 -1.19998 69 2.40002 81.5C5.40002 92.3 11.4 102.3 19.5 110.1C27.6 118 37.9 123.7 48.9 126.3C64.2 130.1 80.9 128 94.8 120.3C105.9 114.2 115.2 104.8 120.9 93.6C127.7 80.6 129.7 65.3 126.7 50.9C124.3 39.7 119 29.4 111.5 21.1Z" fill="#154314"/>
<path d="M52.0119 106.868C58.1193 109.922 65.3103 109.429 71.5163 107.065C79.2983 104.012 85.9968 98.6922 91.4147 92.5848C85.3072 97.3131 77.0326 99.2832 69.4476 97.4116C65.2118 96.4265 62.4536 92.5848 60.8775 88.8415C58.2178 81.8475 59.3999 74.1639 61.37 67.1699C63.3402 60.2745 66.3939 53.6745 69.7431 47.37C72.4028 42.3462 75.358 37.5193 78.9043 32.988C76.9341 34.2686 75.161 35.7462 73.3879 37.3223C68.2655 41.7551 63.3402 46.385 58.4148 51.1133C49.1552 60.57 40.7821 70.9132 33 81.552L33.0002 81.5518C38.221 76.134 43.4418 70.7161 48.7611 65.3968C47.2835 68.2535 45.9044 71.1102 44.8208 74.1639C42.4567 80.8624 41.2746 88.2505 43.0477 95.2445C44.2298 100.071 47.382 104.603 52.0119 106.868Z" fill="#FCB004"/>
<path d="M87.7699 30.8208C89.346 31.6089 90.8236 32.2985 92.3997 33.0865C92.1042 31.3134 91.8087 29.6388 91.4147 28.0626C92.6953 26.7821 93.7788 25.5015 95.0594 24.3194C93.2863 24.1224 91.5132 23.8268 89.8386 23.6298C89.0505 22.0537 88.2624 20.4776 87.4744 19C86.7848 20.5761 85.9968 22.1522 85.3072 23.7283C83.5341 24.0239 81.8595 24.3194 80.1849 24.6149L84.0266 28.1612C83.7311 29.9343 83.5341 31.6089 83.2386 33.2835C84.7162 32.4955 86.2923 31.7074 87.7699 30.8208Z" fill="#FCB004"/>
</g>
<defs>
<clipPath id="clip0_1_1604">
<rect width="128" height="128" fill="white"/>
</clipPath>
</defs>
</svg>
