<svg width="128" height="128" viewBox="0 0 128 128" fill="none" xmlns="http://www.w3.org/2000/svg">
<rect width="128" height="128" fill="#C31424"/>
<path d="M61.6582 14H66.4238C78.7675 14.7031 90.8768 19.9375 99.5487 28.8437C107.439 36.8124 112.517 47.4374 113.689 58.5311C114.861 69.2342 112.517 80.2498 106.971 89.5467C101.189 99.3123 92.0487 106.968 81.4237 110.875C70.4081 115.015 57.9863 115.015 46.9707 111.031C35.877 107.047 26.2676 98.9216 20.4864 88.531C15.0177 79.0779 12.9864 67.7498 14.4708 56.8905C16.1895 44.4687 22.9083 32.8281 32.752 24.9375C40.877 18.375 51.1894 14.5469 61.6582 14ZM58.3769 22.125C45.0176 23.7656 32.8301 32.3593 26.5801 44.3124C21.5801 53.6874 20.4083 64.9374 23.2208 75.0936C26.0333 85.406 32.9082 94.5466 42.0488 100.094C50.5644 105.328 60.955 107.281 70.7988 105.64C82.7518 103.843 93.6112 96.4998 99.9393 86.2654C105.174 77.8279 107.283 67.5936 105.799 57.7499C104.236 46.8124 98.0643 36.6562 89.2362 30.1718C80.4862 23.5312 69.1581 20.6406 58.3769 22.125ZM37.2051 60.1717C42.2832 60.1717 47.4394 60.1717 52.5176 60.1717C52.5176 62.7499 52.5176 65.2499 52.5176 67.828C47.4394 67.828 42.2832 67.828 37.2051 67.828C37.2051 75.5623 37.2051 83.2186 37.2051 90.9529C45.5645 90.9529 53.8457 90.9529 62.205 90.9529C62.205 88.3748 62.205 85.7967 62.205 83.2186C56.4238 83.2186 50.7207 83.2186 44.9394 83.2186C44.9394 80.6404 44.9394 78.0623 44.9394 75.4842C50.0176 75.4842 55.1738 75.4842 60.2519 75.4842C60.2519 67.828 60.2519 60.0936 60.2519 52.4374C55.1738 52.4374 50.0176 52.4374 44.9394 52.4374C44.9394 49.8593 44.9394 47.2812 44.9394 44.7812C50.7207 44.7812 56.4238 44.7812 62.205 44.7812C62.205 42.203 62.205 39.6249 62.205 37.0468C53.8457 37.0468 45.5645 37.0468 37.2051 37.0468C37.2051 44.7812 37.2051 52.4374 37.2051 60.1717ZM66.0331 37.1249C66.0331 39.7031 66.0331 42.203 66.0331 44.7812C71.8144 44.7812 77.5175 44.7812 83.2987 44.7812C83.2987 47.3593 83.2987 49.9374 83.2987 52.5155C78.2206 52.5155 73.0644 52.5155 67.9863 52.5155C67.9863 60.2499 67.9863 67.9061 67.9863 75.6405C73.0644 75.6405 78.2206 75.6405 83.2987 75.6405C83.2987 78.2186 83.2987 80.7186 83.2987 83.2967C77.5175 83.2967 71.8144 83.2967 66.0331 83.2967C66.0331 85.8748 66.0331 88.4529 66.0331 91.031C74.3144 91.031 82.6737 91.031 90.9549 91.031C90.9549 83.3748 90.9549 75.6404 90.9549 67.9842C85.8768 67.9842 80.7206 67.9842 75.6425 67.9842C75.6425 65.4061 75.6425 62.828 75.6425 60.2499C80.7206 60.2499 85.8768 60.2499 90.9549 60.2499C90.9549 52.5936 90.9549 44.8593 90.9549 37.2031C82.6737 37.1249 74.3144 37.1249 66.0331 37.1249Z" fill="white"/>
</svg>
