<svg width="128" height="128" viewBox="0 0 128 128" fill="none" xmlns="http://www.w3.org/2000/svg">
<rect width="128" height="128" fill="#1D8E33"/>
<path d="M87.5937 88.2188C85.4844 87.125 83.2188 86.0312 79.8594 86.0312C76.8906 86.0312 74.4687 87.125 72.2031 88.2188C69.7812 89.3125 67.2813 90.4844 63.9219 90.4844C60.9531 90.4844 58.7656 89.4687 56.4219 88.375C54 87.2812 51.5 86.1094 48.0625 86.1094C45.0937 86.1094 42.6719 87.2031 40.3281 88.2188C37.9063 89.3125 35.3281 90.4844 32.0469 90.4844C31.8906 90.4844 31.6563 90.4844 31.5 90.4844C31.8125 90.875 32.2031 91.3438 32.5156 91.7344C35.875 91.6563 38.375 90.4844 40.7969 89.3906C43.1406 88.375 45.25 87.3594 47.9844 87.3594C51.1094 87.3594 53.375 88.4531 55.7969 89.5469C58.1406 90.6406 60.6406 91.8125 63.8438 91.8125C67.4375 91.8125 70.0937 90.5625 72.6719 89.3906C74.9375 88.375 77.125 87.3594 79.8594 87.3594C82.9063 87.3594 84.9375 88.375 87.0469 89.4688C89.3125 90.6406 91.7344 91.8125 95.6406 91.8125C96.0312 91.4219 96.3438 90.9531 96.7344 90.4844C96.4219 90.4844 96.0312 90.5625 95.7187 90.5625C92.0469 90.4063 89.7812 89.3125 87.5937 88.2188Z" fill="white"/>
<path d="M79.8594 88.375C76.8906 88.375 74.4688 89.4688 72.2031 90.5625C69.7813 91.6563 67.2813 92.8281 63.9219 92.8281C60.9531 92.8281 58.7656 91.8125 56.4219 90.7187C54 89.625 51.5 88.4531 48.0625 88.4531C45.0937 88.4531 42.6719 89.5469 40.3281 90.5625C38.2969 91.5 36.1094 92.4375 33.5312 92.75C33.9219 93.1406 34.2344 93.5312 34.625 93.8437C37.0469 93.4531 39 92.5938 40.875 91.7344C43.2188 90.7188 45.3281 89.7031 48.0625 89.7031C51.1875 89.7031 53.4531 90.7969 55.875 91.8906C58.2187 92.9844 60.7188 94.1563 63.9219 94.1563C67.5156 94.1563 70.1719 92.9063 72.75 91.7344C75.0156 90.6406 77.2031 89.7031 79.9375 89.7031C82.9844 89.7031 85.0156 90.7188 87.125 91.8125C89 92.75 90.875 93.6875 93.6094 94.0781C94 93.6875 94.3906 93.2969 94.7031 92.9063C91.6563 92.75 89.625 91.6562 87.6719 90.7187C85.4063 89.4687 83.2188 88.375 79.8594 88.375Z" fill="white"/>
<path d="M79.8594 90.7188C76.8906 90.7188 74.4688 91.8125 72.2031 92.9063C69.7813 94 67.2813 95.1719 63.9219 95.1719C60.9531 95.1719 58.7656 94.1562 56.4219 93.0625C54 91.9687 51.5 90.7969 48.0625 90.7969C45.0937 90.7969 42.6719 91.8906 40.3281 92.9063C38.8438 93.6094 37.2812 94.3125 35.4844 94.7031C35.875 95.0156 36.1875 95.4063 36.5781 95.7188C38.0625 95.25 39.4687 94.625 40.7969 94.0781C43.1406 93.0625 45.25 92.0469 47.9844 92.0469C51.1094 92.0469 53.375 93.1406 55.7969 94.2344C58.1406 95.3281 60.6406 96.5 63.8437 96.5C67.4375 96.5 70.0937 95.25 72.6719 94.0781C74.9375 93.0625 77.125 92.0469 79.8594 92.0469C82.9063 92.0469 84.9375 93.0625 87.0469 94.0781C88.375 94.7813 89.7031 95.4063 91.4219 95.875C91.8125 95.5625 92.2031 95.1719 92.5937 94.8594C90.6406 94.4688 89.1563 93.6875 87.6719 92.9063C85.4063 91.8906 83.2188 90.7188 79.8594 90.7188Z" fill="white"/>
<path d="M79.8594 93.1406C76.8906 93.1406 74.4688 94.2344 72.2031 95.3281C69.7813 96.4219 67.2813 97.5937 63.9219 97.5937C60.9531 97.5937 58.7656 96.5781 56.4219 95.4844C54 94.3906 51.5 93.2187 48.0625 93.2187C45.0937 93.2187 42.6719 94.3125 40.3281 95.3281C39.3906 95.7187 38.5312 96.1875 37.5156 96.5C37.9062 96.8125 38.2969 97.125 38.6875 97.4375C39.4688 97.125 40.1719 96.8125 40.875 96.5C43.2188 95.4844 45.3281 94.4687 48.0625 94.4687C51.1875 94.4687 53.4531 95.5625 55.875 96.6562C58.2187 97.75 60.7188 98.9219 63.9219 98.9219C67.5156 98.9219 70.1719 97.6719 72.75 96.5C75.0156 95.4062 77.2031 94.4687 79.9375 94.4687C82.9844 94.4687 85.0156 95.4844 87.125 96.5781C87.8281 96.9687 88.6094 97.3594 89.3906 97.6719C89.7813 97.3594 90.1719 97.0469 90.5625 96.7344C89.5469 96.3437 88.6094 95.875 87.6719 95.4062C85.4063 94.2344 83.2188 93.1406 79.8594 93.1406Z" fill="white"/>
<path d="M79.8594 95.4844C76.8906 95.4844 74.4687 96.5781 72.2031 97.6719C69.7812 98.7656 67.2813 99.9375 63.9219 99.9375C60.9531 99.9375 58.7656 98.9219 56.4219 97.8281C54 96.6562 51.5 95.5625 48.0625 95.5625C45.0937 95.5625 42.6719 96.6562 40.3281 97.6719C40.0937 97.8281 39.7813 97.9062 39.5469 98.0625C39.9375 98.375 40.3281 98.6094 40.7188 98.9219C40.7969 98.9219 40.7969 98.9219 40.875 98.8437C43.2188 97.8281 45.3281 96.8125 48.0625 96.8125C51.1875 96.8125 53.4531 97.9063 55.875 99C58.2187 100.094 60.7188 101.266 63.9219 101.266C67.5156 101.266 70.1719 100.016 72.75 98.8437C75.0156 97.75 77.2031 96.8125 79.9375 96.8125C82.9844 96.8125 85.0156 97.8281 87.125 98.9219C87.2031 99 87.2812 99 87.4375 99.0781C87.8281 98.8437 88.2187 98.5312 88.6094 98.2969C88.2969 98.1406 87.9844 97.9844 87.75 97.8281C85.4063 96.6562 83.2188 95.4844 79.8594 95.4844Z" fill="white"/>
<path d="M72.0469 100.016C69.625 101.109 67.125 102.281 63.7656 102.281C60.7969 102.281 58.6094 101.266 56.2656 100.172C53.8437 99.078 51.3438 97.9061 47.9063 97.9061C45.4844 97.9061 43.4531 98.6093 41.5 99.4686C41.9688 99.7811 42.3594 100.016 42.8281 100.25C44.3906 99.6249 46.0313 99.1561 47.9063 99.1561C51.0313 99.1561 53.2969 100.25 55.7188 101.344C58.0625 102.437 60.5625 103.609 63.7656 103.609C67.3594 103.609 70.0156 102.359 72.5938 101.187C74.8594 100.172 77.0469 99.1561 79.7812 99.1561C81.9688 99.1561 83.6094 99.6249 85.0938 100.328C85.5625 100.094 85.9531 99.7811 86.3438 99.5468C84.5469 98.6874 82.5156 97.9061 79.7812 97.9061C76.8906 97.9061 74.3906 98.9999 72.0469 100.016Z" fill="white"/>
<path d="M64 14C36.4219 14 14 36.4219 14 64C14 91.5781 36.4219 114 64 114C91.5781 114 114 91.5781 114 64C114 36.4219 91.5781 14 64 14ZM64 106.031C40.7969 106.031 21.9687 87.2031 21.9687 64C21.9687 40.7969 40.7969 21.9687 64 21.9687C87.2031 21.9687 106.031 40.7969 106.031 64C106.031 87.2031 87.2031 106.031 64 106.031Z" fill="white"/>
<path d="M87.3594 51.6562C87.0469 53.2188 85.4844 54.8594 84.625 55.5625C82.6719 57.125 69.7031 65.0156 68.2188 66.8125C66.7344 68.6094 66.5 71.3437 66.5 73.375V88.6094H68.5313C68.5313 87.2812 68.5313 85.0156 68.5313 84.7031C68.5313 83.375 69.3125 81.2656 70.875 79.625C73.5313 76.8125 79.7031 73.375 83.8438 70.4062C87.2031 67.9062 87.4375 64.5469 87.4375 61.6562C87.4375 59.2344 87.4375 52.5156 87.4375 51.2656L87.3594 51.6562Z" fill="white"/>
<path d="M66.5781 65.875C67.9844 64.0781 81.4219 55.9531 83.2969 54.3906C85.1719 52.8281 87.4375 50.4844 87.4375 47.4375C87.4375 44.8594 87.4375 32.2031 87.4375 30.4062C87.4375 32.8281 86.1094 34.625 84.3906 36.8906C82.4375 39.4687 73.4531 44.3125 69 47.4375C64.5469 50.5625 63.0625 53.6094 63.0625 57.4375C63.0625 60.6406 63.0625 81.7344 63.0625 88.5313H65.0156C65.0156 84.0781 65.0156 73.8437 65.0156 72.2812C64.9375 70.25 65.0938 67.6719 66.5781 65.875Z" fill="white"/>
<path d="M56.4219 48.2187C52.3594 45.0937 44.0781 38.4531 43.0625 37.125C42.0469 35.7969 39.9375 33.4531 39.9375 30.5625C39.9375 32.6719 39.9375 44.4687 39.9375 46.4219C39.9375 48.6875 41.0312 52.75 44.9375 55.6406C48.8437 58.5312 54.3906 62.6719 56.1094 64.3906C57.75 66.0312 59.3125 69.0781 59.3125 73.375C59.3125 76.5 59.3125 84.8594 59.3125 88.6875H61.2656C61.2656 82.125 61.2656 62.2812 61.2656 58.2969C61.4219 53.2969 60.4844 51.3437 56.4219 48.2187Z" fill="white"/>
</svg>
