<svg width="128" height="128" viewBox="0 0 128 128" fill="none" xmlns="http://www.w3.org/2000/svg">
<rect width="128" height="128" fill="#28A6DF"/>
<path d="M83.4563 92.2539C83.4563 92.2539 84.0414 91.2787 84.334 92.644C84.334 92.644 84.9191 100.543 80.3358 105.419C77.2153 108.637 69.9991 113.22 61.9053 111.172C61.9053 111.172 74.8749 110.294 78.1904 97.4223L78.5805 95.9595C78.3855 95.9595 81.6035 95.0819 83.4563 92.2539ZM113.004 52.4673C113.004 52.2723 113.004 52.1748 112.906 51.9797C112.906 51.9797 112.711 51.1996 112.224 49.8344C112.126 49.6393 112.029 49.4443 112.029 49.2493C112.029 49.1518 111.931 49.0543 111.931 49.0543C111.053 47.0064 109.396 44.0809 106.568 41.253C106.568 41.253 109.591 41.0579 106.275 37.3523C106.275 37.3523 100.814 30.9162 90.1849 25.9429C84.529 23.31 78.0929 24.3827 78.678 30.7212C79.0681 35.1094 74.9724 36.8647 71.7544 36.4747C67.9512 35.9871 65.6109 32.8666 66.2935 30.3311C66.9761 27.6007 68.3413 25.4554 70.4867 23.7976C71.9494 22.6274 72.9246 21.8473 75.5575 21.3597C77.1178 21.0671 79.2631 20.482 79.8482 22.3348C80.9209 21.7497 82.8712 18.0441 76.5327 18.0441C76.5327 18.0441 75.5575 15.9963 73.4122 16.3864C73.4122 16.3864 67.0736 10.1453 59.9549 17.8491C59.9549 17.8491 57.2245 18.9218 57.0294 17.8491C57.6145 18.3367 58.6872 16.8739 57.322 16.2888C56.6394 15.9963 55.8593 16.7764 55.7617 17.3615C55.6642 17.8491 55.8593 19.0193 57.2245 19.2143C57.6145 19.3118 58.2972 19.2143 58.2972 19.2143L57.8096 19.7994C55.6642 20.6771 53.7139 19.9944 53.3238 18.5317C53.8114 18.8242 54.3965 18.4342 54.494 17.9466C54.6891 17.3615 54.299 16.5814 53.4214 16.4839C52.2512 16.2888 51.7636 17.6541 51.9586 18.8243C52.3487 20.6771 54.104 21.9448 56.4443 21.5547L56.0543 22.1398C56.0543 22.1398 53.7139 25.0653 51.8611 28.3808C49.9108 31.6964 42.0119 35.402 43.3772 27.4057C43.7672 24.8702 39.5741 21.8472 32.0653 26.9181C28.1647 29.6485 23.2889 33.7442 19.5832 40.3753C19.5832 40.3753 18.023 42.9107 20.6559 43.0082C20.6559 43.0082 15.2925 45.5437 15 57.7332C15 57.7332 15 58.2208 15 58.9034C15 59.2935 15 59.781 15 60.1711C15 61.5363 15.0975 63.0966 15.195 63.9742C15.195 63.9742 15.7801 71.2879 17.0478 72.5557C17.0478 72.5557 17.1453 72.5557 17.2429 72.5557C17.6329 72.8482 18.1205 72.9457 18.8031 72.2631C18.8031 72.3606 20.4609 80.552 23.7765 87.4756C26.5069 92.9365 31.4802 100.933 29.5299 102.883C27.5796 104.833 24.8491 100.933 25.2392 102.493C26.1168 105.711 29.5299 106.199 31.2852 104.833C35.966 101.128 29.1398 92.2539 26.9945 81.0395C31.4802 79.0892 31.2852 72.0681 31.2852 72.0681C31.2852 72.0681 37.6237 71.873 39.5741 64.3643C39.5741 64.3643 47.2778 66.6072 50.9835 59.8786C50.9835 59.8786 50.9835 59.8786 50.9835 59.781L51.081 59.6835C51.8611 62.0239 53.3238 64.0717 55.3717 65.9245C55.3717 65.9245 54.9816 69.1426 51.3735 70.3128C51.3735 70.3128 46.9853 68.46 42.1095 70.3128C37.7212 72.0681 39.4765 76.7488 42.6946 75.5786C41.7194 75.0911 41.4269 73.5308 42.9871 73.1407C43.3772 73.4333 43.7673 73.6283 44.2548 73.7258C44.3524 73.7258 48.1555 74.4084 50.8859 73.3358C51.081 73.2383 51.276 73.2383 51.471 73.0432H51.5685C51.8611 72.8482 52.0561 72.6532 52.2511 72.4581C53.2263 72.5556 53.9089 74.0184 52.5437 74.701C55.1766 75.2861 56.1518 72.4581 55.0791 70.9954C55.0791 70.9954 55.6642 70.6053 56.4443 70.0202C56.4443 70.0202 57.322 69.2401 57.9071 68.2649C57.9071 68.2649 60.54 70.3128 65.3183 71.483C65.3183 71.483 62.7829 75.6762 59.0773 76.4563C59.0773 76.4563 53.8114 74.701 50.2033 76.9439C50.2033 76.9439 48.253 78.0165 48.5455 80.0644C48.7406 81.6246 50.1058 82.7948 51.9586 82.5023C51.1785 82.1122 49.4232 80.1619 51.6661 79.2843C52.0561 79.8694 52.5437 80.2594 53.2263 80.3569C53.2263 80.3569 56.5419 81.1371 60.6375 79.3818C60.8326 79.2843 60.9301 79.2843 61.1251 79.1867C61.1251 79.1867 61.2226 79.1867 61.3202 79.0892C61.6127 78.8942 61.8077 78.6991 61.9053 78.5041C62.9779 78.3091 64.4407 78.7967 63.8556 80.8445C65.1233 80.6495 67.1711 78.4066 64.1481 76.5538C64.1481 76.5538 65.9034 75.6762 67.3662 74.4085L69.5115 72.2631C73.7047 72.8482 76.8252 76.8464 76.8252 81.7222C76.8252 85.7203 73.4122 90.4011 69.8041 91.3763C69.9016 91.3763 70.0966 91.2787 70.1941 91.2787L69.7065 91.3763H69.8041C69.219 91.4738 68.6339 91.5713 67.8537 91.5713C64.1481 91.4738 66.391 87.1831 66.391 87.1831C65.8059 87.0856 65.2208 87.2806 64.7332 87.8657C64.1481 88.5483 63.9531 89.816 64.1481 91.1812C63.9531 91.0837 63.7581 91.0837 63.6605 90.9862C60.4425 89.621 60.6375 87.1831 60.6375 87.1831C59.7599 87.5731 59.1748 88.6458 59.4674 90.4986C59.9549 92.9365 63.0755 94.0092 65.6109 94.3017C67.0736 95.7645 69.414 97.2272 74.7774 96.3496C74.7774 96.3496 72.437 108.832 56.6394 108.247C56.6394 108.247 51.8611 106.491 52.0561 102.493C52.2512 97.1297 55.9568 95.2769 55.9568 95.2769C54.5915 95.0819 51.276 95.4719 49.8132 99.8602C49.1306 101.81 49.3257 105.126 51.081 107.369C45.1325 105.809 40.6467 101.323 42.4995 95.0819C42.7921 94.1067 43.3772 93.1315 44.1573 92.2539C48.6431 88.0607 55.2742 90.5961 55.2742 90.5961C54.9816 89.1334 53.1288 87.1831 49.8132 86.988C46.4002 86.793 39.8666 88.8408 39.379 96.7396C38.8915 103.956 43.4747 109.222 54.8841 110.879L55.0791 110.977C55.0791 110.977 62.0028 115.853 71.7544 113.22C71.7544 113.22 91.4526 109.222 87.2595 86.6955C87.2595 86.6955 91.8427 71.678 82.1886 63.1941C88.1371 68.0699 95.4508 65.2419 95.4508 65.2419C94.9632 78.8942 100.717 80.6495 100.717 80.6495L100.912 80.552C100.912 80.552 90.0874 103.858 96.426 106.881C98.5713 107.856 101.107 107.369 102.374 104.638C103.447 102.396 100.034 106.784 98.0837 104.931C95.7433 102.591 98.6688 97.0322 101.497 91.0837C105.495 83.0874 108.128 77.1389 108.615 73.1407C108.615 73.1407 109.201 73.5308 109.883 73.2383L109.981 73.3358C111.541 72.9457 112.516 66.5096 112.711 65.437C113.979 59.6835 113.589 55.2953 113.004 52.4673Z" fill="white"/>
</svg>
