<svg width="128" height="128" viewBox="0 0 128 128" fill="none" xmlns="http://www.w3.org/2000/svg">
<rect width="128" height="128" fill="#161376"/>
<path d="M21.5781 75.4844C21.5781 75.4844 64 61.6563 114 79C114 79 73.5312 70.6407 21.5781 75.4844Z" fill="white"/>
<path d="M14 66.1875H16.2656L17.5156 53.2188L23.2969 66.3438H23.7656L29.625 52.9844L30.7969 66.2656H35.9531L34.1562 49.0781H28.9219L25.1719 58.2187L21.1094 49H14.2344V49.625C14.2344 49.625 15.875 49.3906 15.6406 51.5781L14 66.1875Z" fill="white"/>
<path d="M37.4375 50.6406V51.1875C37.4375 51.1875 38.9219 51.0312 38.9219 53.1406C38.9219 55.1719 38.9219 66.4219 38.9219 66.4219H43.4531V50.6406H37.4375Z" fill="white"/>
<path d="M45.9531 50.5625V53.8438H46.4219C46.4219 53.8438 46.2656 52.5156 48.0625 52.5156H53.2969L45.4844 65.7969V66.3438H60.0938V64.3125H51.6563L59.625 51.1094V50.5625H45.9531V50.5625Z" fill="white"/>
<path d="M60.3281 50.5625H66.3437V61.8125C66.3437 61.8125 65.9531 64.8594 69.3906 64.8594H72.125V53.0625C72.125 53.0625 72.4375 51.3437 70.7187 51.3437V50.6406H76.8125V57.3594H82.5938V52.5938C82.5938 52.5938 82.8281 51.1094 81.1094 51.1094V50.5625H87.125V66.1875H82.4375C82.4375 66.1875 82.6719 64.7031 82.6719 63.7656V59.1562H76.5V64.1562C76.5 64.1562 76.4219 65.1719 76.6562 66.1875C76.6562 66.1875 72.2031 66.5781 69.3906 66.5781C66.5781 66.5781 61.5781 66.6562 61.5781 60.5625C61.5781 54.4687 61.5781 53.4531 61.5781 53.4531C61.5781 53.4531 61.7344 51.1875 60.25 51.1875V50.5625H60.3281Z" fill="white"/>
<path d="M97.9063 50.25C92.8281 50.25 88.6875 53.8437 88.6875 58.2969C88.6875 62.75 92.8281 66.3437 97.9063 66.3437C102.984 66.3437 107.125 62.75 107.125 58.2969C107.125 53.8437 102.984 50.25 97.9063 50.25ZM97.9063 64.7812C95.3281 64.7812 93.2188 61.9687 93.2188 58.5312C93.2188 55.0937 95.3281 52.2812 97.9063 52.2812C100.484 52.2812 102.516 55.0937 102.516 58.5312C102.516 61.9687 100.484 64.7812 97.9063 64.7812Z" fill="white"/>
</svg>
