<svg width="128" height="128" viewBox="0 0 128 128" fill="none" xmlns="http://www.w3.org/2000/svg">
<g clip-path="url(#clip0_1_1784)">
<path d="M49.989 47.6167C48.0839 47.6167 46.6994 48.3381 45.8357 49.7809C44.9338 51.369 44.4856 53.1744 44.5401 54.9999C44.5401 56.9464 44.9719 58.5778 45.8357 59.8941C46.6994 61.2104 48.0729 61.8624 49.9561 61.8503C52.0194 61.8503 53.4342 61.0753 54.2007 59.5255C54.984 57.9129 55.379 56.1393 55.3539 54.3466C55.3539 52.6435 55.0766 51.2481 54.5218 50.1605C53.6459 48.4646 52.135 47.6167 49.989 47.6167Z" fill="#003D6B"/>
<path d="M100.993 47.7227C98.8029 47.7227 97.3041 48.7932 96.4963 50.9343C96.0204 52.3438 95.8004 53.827 95.8467 55.3139C95.8126 56.5537 96.0338 57.7872 96.4963 58.938C97.3138 60.8431 98.8126 61.7944 100.993 61.792C101.706 61.7989 102.41 61.6372 103.049 61.3201C103.688 61.0029 104.242 60.5394 104.668 59.9672C105.641 58.7506 106.128 56.9429 106.128 54.5438C106.16 53.2532 105.939 51.9688 105.478 50.7628C104.665 48.7336 103.17 47.7202 100.993 47.7227Z" fill="#003D6B"/>
<path d="M0 30V74H128.102V30H0ZM24.0146 50.9963C22.7664 52.4562 20.8564 53.1861 18.2847 53.1861H10.2555V63.8613H6.77737V43.3869H10.2591V50.2993H17.1387C18.691 50.2993 19.9501 49.9732 20.9161 49.3212C21.882 48.6691 22.3686 47.517 22.3759 45.865C22.3759 44.0061 21.68 42.7457 20.2883 42.0839C19.2908 41.6846 18.2194 41.5029 17.146 41.5511H6.77737V38.6095H18.2774C20.5547 38.6095 22.3917 39.2433 23.7883 40.511C25.1849 41.7786 25.8844 43.5572 25.8869 45.8467C25.9166 47.735 25.2501 49.5681 24.0146 50.9963ZM39.4891 48.3905C39.3029 48.3577 39.1241 48.3358 38.9745 48.3212C38.8248 48.3066 38.646 48.3212 38.4599 48.3212C36.8735 48.3212 35.6569 48.8224 34.8102 49.8248C33.9752 50.7843 33.5208 52.0165 33.5328 53.2883V63.8723H30.3723V45.4526H33.365V48.6277C33.6095 48.011 34.2117 47.2555 35.1679 46.3686C36.0535 45.5093 37.2405 45.0311 38.4745 45.0365C38.5329 45.0365 38.6314 45.0365 38.7737 45.0365L39.5037 45.1022L39.4891 48.3905ZM56.4526 61.6131C54.9927 63.5474 52.7287 64.5146 49.6606 64.5146C47.0985 64.5146 45.0645 63.663 43.5584 61.9599C42.0523 60.2567 41.3005 57.9574 41.3029 55.062C41.3029 51.972 42.0961 49.5109 43.6825 47.6788C45.2689 45.8467 47.4002 44.9307 50.0766 44.9307C51.1964 44.9041 52.3103 45.0997 53.3539 45.5063C54.3976 45.9128 55.3503 46.5222 56.1569 47.2993C57.8139 48.8783 58.6423 51.2032 58.6423 54.2737C58.6423 57.2299 57.9124 59.6764 56.4526 61.6131ZM88.073 63.8613H84.7883V51.0876C84.7883 49.871 84.4757 49.0292 83.8504 48.562C83.1857 48.0894 82.3846 47.8471 81.5694 47.8723C80.3868 47.8515 79.2422 48.2897 78.3759 49.0949C77.483 49.91 77.0365 51.2676 77.0365 53.1679V63.8759H73.8321V51.8467C73.8321 50.5985 73.6813 49.6873 73.3796 49.1131C72.8978 48.2555 72.0073 47.8248 70.7007 47.8248C69.4833 47.8355 68.3185 48.3229 67.4562 49.1825C66.483 50.0876 65.9964 51.7263 65.9964 54.0985V63.8613H62.8467V45.4526H65.9635V48.0657C66.5473 47.3108 67.2327 46.6403 68 46.073C69.0444 45.3741 70.2763 45.0089 71.5329 45.0255C73.0292 45.0255 74.2312 45.3905 75.1387 46.1204C75.7263 46.6259 76.2034 47.2471 76.5402 47.9453C77.1694 47.0231 78.017 46.2708 79.0073 45.7555C79.9956 45.2643 81.0862 45.0142 82.1898 45.0255C84.7105 45.0255 86.4258 45.9197 87.3358 47.708C87.8224 48.6691 88.0657 49.9635 88.0657 51.5912L88.073 63.8613ZM106.157 62.8613C104.816 63.9449 103.137 64.5236 101.412 64.4963C100.161 64.5382 98.9241 64.2216 97.8467 63.5839C97.1293 63.0972 96.4937 62.4998 95.9635 61.8139V68.4635H92.8175V45.5365H95.8978V47.9781C96.4605 47.2062 97.1638 46.5475 97.9708 46.0365C99.0933 45.3323 100.398 44.9731 101.723 45.0036C102.746 44.9904 103.76 45.1977 104.696 45.6115C105.632 46.0252 106.467 46.6357 107.146 47.4015C108.633 49 109.375 51.2835 109.372 54.2518C109.372 58.264 108.3 61.1338 106.157 62.8613ZM120.19 47.9781H117.197V59.9927C117.197 60.635 117.42 61.0657 117.861 61.2847C118.252 61.4338 118.67 61.4973 119.088 61.4708H119.577C119.752 61.4708 119.956 61.4526 120.19 61.4161V63.8723C119.821 63.9772 119.443 64.0517 119.062 64.0949C118.64 64.1435 118.216 64.1666 117.792 64.1642C116.332 64.1642 115.335 63.7993 114.799 63.0693C114.242 62.2158 113.967 61.2082 114.015 60.1898V47.9781H111.46V45.4526H114.015V40.3139H117.197V45.4526H120.19V47.9781Z" fill="#003D6B"/>
<path d="M29.4331 16.2408C29.0565 16.2585 28.6873 16.1234 28.3974 15.8618C28.2619 15.7285 28.1561 15.5636 28.0878 15.3795C28.0194 15.1954 27.9904 14.9969 28.0028 14.7989C27.9918 14.591 28.0247 14.383 28.099 14.191C28.1733 13.9989 28.287 13.8279 28.4315 13.6908C28.7877 13.3965 29.2291 13.2504 29.676 13.2788C30.2211 13.2234 30.7649 13.3991 31.1936 13.7691C31.3548 13.9435 31.4804 14.1529 31.5621 14.3836C31.6438 14.6143 31.6798 14.8611 31.6678 15.1079V18.6466L33.0678 14.5271H34.058L35.4428 18.6466V13.4642H37.6585V22.0411H35.4277V21.8021L33.5496 16.3273L31.6526 21.8186V22.0493H29.4331V16.2408ZM30.0667 15.4169C30.1945 15.2306 30.2636 15.0045 30.2636 14.7722C30.2636 14.5399 30.1945 14.3138 30.0667 14.1275C30.0023 14.0543 29.9244 13.9967 29.8381 13.9583C29.7519 13.92 29.6591 13.9018 29.5659 13.905C29.4711 13.9021 29.3767 13.9204 29.2886 13.9586C29.2005 13.9969 29.1206 14.0543 29.0537 14.1275C28.9211 14.3115 28.8491 14.5385 28.8491 14.7722C28.8491 15.0058 28.9211 15.2328 29.0537 15.4169C29.1206 15.49 29.2005 15.5474 29.2886 15.5857C29.3767 15.624 29.4711 15.6422 29.5659 15.6393C29.6601 15.6459 29.7546 15.6305 29.8429 15.5943C29.9312 15.558 30.0114 15.5018 30.0781 15.4292L30.0667 15.4169Z" fill="#003D6B"/>
<path d="M43.3459 21.6567C43.2015 21.5218 43.0888 21.356 43.0161 21.1715C42.9434 20.987 42.9125 20.7885 42.9256 20.5904C42.92 20.4053 42.9556 20.2212 43.0297 20.0518C43.1038 19.8824 43.2145 19.7319 43.3538 19.6112C43.6473 19.3499 44.0269 19.2086 44.4183 19.2148V18.0217C44.43 17.7629 44.3913 17.5043 44.3044 17.2606C44.2638 17.1709 44.2034 17.0917 44.1278 17.0292C44.0522 16.9666 43.9635 16.9224 43.8684 16.8998C43.5644 16.8218 43.2508 16.7884 42.9374 16.8007C42.5446 16.8007 42.0889 16.8007 41.5743 16.8483C41.0597 16.8959 40.6277 16.9157 40.2977 16.9672V16.2616C40.2758 15.888 40.3284 15.5137 40.4526 15.1609C40.5767 14.8082 40.7699 14.4842 41.0205 14.2083C41.5036 13.7167 42.3167 13.471 43.452 13.471C43.6547 13.4695 43.8572 13.4868 44.0569 13.5225C44.2455 13.5582 44.4222 13.5938 44.5833 13.6335C44.8678 13.7185 45.1625 13.7638 45.4592 13.7683C45.6743 13.7705 45.8882 13.7356 46.0917 13.6652C46.3162 13.5725 46.5214 13.4381 46.6966 13.2688L47.3172 14.24C46.9274 14.5953 46.4206 14.7917 45.8953 14.791C45.6967 14.7928 45.4983 14.7782 45.3021 14.7474C45.1332 14.7157 44.9447 14.6721 44.7365 14.6126C44.3986 14.5039 44.0462 14.4477 43.6916 14.4461C43.4899 14.4449 43.2902 14.486 43.105 14.5668C42.9199 14.6475 42.7534 14.7662 42.616 14.9152C42.4787 15.0643 42.3735 15.2404 42.3071 15.4326C42.2407 15.6248 42.2146 15.8288 42.2303 16.0317C42.7921 16.0317 43.2006 16 43.452 16C44.0756 15.9844 44.6989 16.0403 45.31 16.1665C45.7191 16.2472 46.0858 16.4737 46.3431 16.8047C46.6044 17.2188 46.7282 17.7062 46.6966 18.1961V20.2851C46.6966 21.4585 46.0131 22.0452 44.6461 22.0452C44.1808 22.0755 43.7199 21.9378 43.3459 21.6567V21.6567ZM45.0743 21.2246C45.2192 21.0498 45.2922 20.8257 45.2785 20.5983C45.2867 20.4873 45.2729 20.3758 45.2378 20.2703C45.2027 20.1648 45.1471 20.0674 45.0743 19.9839C45.0068 19.9148 44.9259 19.8604 44.8367 19.8243C44.7475 19.7881 44.6519 19.7709 44.5558 19.7738C44.4579 19.7712 44.3606 19.7884 44.2695 19.8245C44.1784 19.8606 44.0954 19.9148 44.0255 19.9839C43.9505 20.0663 43.893 20.1633 43.8565 20.269C43.82 20.3746 43.8053 20.4867 43.8134 20.5983C43.8002 20.827 43.8763 21.0519 44.0255 21.2246C44.0937 21.2968 44.1761 21.3538 44.2674 21.392C44.3587 21.4302 44.4569 21.4488 44.5558 21.4466C44.6523 21.4501 44.7485 21.4329 44.8379 21.396C44.9273 21.3591 45.0079 21.3034 45.0743 21.2325V21.2246Z" fill="#003D6B"/>
<path d="M42.2398 11.0199C42.4291 10.9631 42.6092 10.8805 42.7746 10.7744C42.9561 10.6738 43.1221 10.5486 43.2674 10.4025C43.0941 10.4105 42.9212 10.3813 42.7608 10.317C42.6004 10.2528 42.4564 10.155 42.3391 10.0306C42.1487 9.8056 42.0459 9.52245 42.0488 9.23095C42.0467 9.07287 42.0766 8.91593 42.137 8.76914C42.1973 8.62235 42.2867 8.4886 42.4002 8.37554C42.5421 8.24452 42.7106 8.14378 42.8947 8.07974C43.0789 8.0157 43.2748 7.98977 43.4698 8.00363C43.8861 7.98397 44.2949 8.11664 44.6158 8.37554C44.7468 8.487 44.8512 8.62494 44.9218 8.77975C44.9924 8.93456 45.0275 9.1025 45.0245 9.27186C45.0457 9.61028 44.9428 9.94503 44.7342 10.2165C44.5409 10.4433 44.2999 10.6272 44.0275 10.7558C44.9367 10.7 45.5822 10.4917 45.9566 10.1273C46.366 9.69028 46.5982 9.12316 46.6098 8.53175H48.1951C48.1866 8.97122 48.0714 9.4025 47.859 9.79034C47.6465 10.1782 47.3428 10.5116 46.9727 10.7632C46.1165 11.2929 45.1134 11.5527 44.1001 11.5071H42.2245L42.2398 11.0199ZM43.8824 9.7256C44.005 9.58206 44.0677 9.39884 44.0581 9.21235C44.0668 9.02713 44.0041 8.84541 43.8824 8.70283C43.8229 8.63983 43.7501 8.59021 43.669 8.55745C43.5878 8.52469 43.5003 8.50957 43.4125 8.51315C43.3264 8.51089 43.2409 8.52742 43.1623 8.56153C43.0836 8.59564 43.0138 8.64646 42.9579 8.71027C42.8443 8.85495 42.7827 9.03205 42.7827 9.21421C42.7827 9.39638 42.8443 9.57348 42.9579 9.71816C43.0138 9.78197 43.0836 9.83279 43.1623 9.8669C43.2409 9.90101 43.3264 9.91754 43.4125 9.91528C43.5003 9.91886 43.5878 9.90374 43.669 9.87098C43.7501 9.83822 43.8229 9.7886 43.8824 9.7256V9.7256Z" fill="#003D6B"/>
<path d="M50.377 18.1416C50.3753 17.915 50.4211 17.6906 50.5113 17.4836C50.6015 17.2766 50.7341 17.0916 50.9 16.9411C51.3355 16.5733 51.8931 16.391 52.4569 16.432C52.9428 16.4065 53.4224 16.5527 53.8151 16.8459C53.9609 16.9809 54.0786 17.1444 54.1613 17.3267C54.244 17.509 54.2899 17.7065 54.2964 17.9073C54.3028 18.1081 54.2696 18.3082 54.1988 18.4956C54.1279 18.6831 54.0209 18.8541 53.884 18.9984C53.576 19.282 53.1712 19.4307 52.7569 19.4124V21.2669H54.5327C54.6647 21.285 54.799 21.2716 54.925 21.2276C55.051 21.1837 55.1653 21.1105 55.2589 21.0138C55.3524 20.917 55.4227 20.7994 55.4641 20.6702C55.5056 20.541 55.5171 20.4038 55.4976 20.2693V15.9932C55.5032 15.735 55.4575 15.4784 55.3635 15.2387C55.2694 14.9989 55.1289 14.7811 54.9503 14.5982C54.7406 14.3978 54.4926 14.2437 54.222 14.1454C53.9514 14.0472 53.6638 14.0068 53.3772 14.027C52.8101 14.014 52.2499 14.1569 51.7555 14.4409C51.3051 14.708 50.9672 15.1355 50.8068 15.6414H49.9513C50.1507 14.9114 50.6223 14.2903 51.2649 13.9111C52.0715 13.4534 52.9864 13.2327 53.9083 13.2736C54.8972 13.2321 55.8784 13.4669 56.7464 13.9525C57.0984 14.1607 57.3873 14.4642 57.5811 14.8294C57.775 15.1946 57.8664 15.6074 57.8451 16.0222V20.1989C57.8707 20.4598 57.8392 20.7232 57.753 20.9701C57.6667 21.2171 57.5279 21.4414 57.3464 21.627C56.905 21.9407 56.3701 22.0872 55.8342 22.0409H50.377V18.1416ZM53.1502 18.5886C53.227 18.5005 53.286 18.3977 53.3236 18.2861C53.3612 18.1746 53.3766 18.0565 53.3691 17.9387C53.3827 17.6999 53.3041 17.4651 53.1502 17.2847C53.0808 17.2091 52.9965 17.1493 52.9029 17.1093C52.8092 17.0693 52.7084 17.0501 52.6069 17.0529C52.506 17.0502 52.4058 17.0694 52.3128 17.1094C52.2198 17.1494 52.1362 17.2092 52.0677 17.2847C51.921 17.4686 51.8473 17.702 51.8609 17.9387C51.8459 18.1744 51.9199 18.407 52.0677 18.5886C52.1373 18.6623 52.2212 18.7202 52.3141 18.7587C52.407 18.7972 52.5067 18.8154 52.6069 18.8122C52.7077 18.8155 52.8081 18.7973 52.9016 18.7589C52.9951 18.7204 53.0798 18.6624 53.1502 18.5886V18.5886Z" fill="#003D6B"/>
<path d="M69.2682 13.4602V21.861H67.1357C66.8435 21.3964 66.5036 20.9637 66.1218 20.5698C65.6792 20.1011 65.1523 19.7206 64.5688 19.4481V20.0533C64.586 20.3216 64.5478 20.5906 64.4564 20.8434C64.365 21.0962 64.2224 21.3272 64.0377 21.522C63.564 21.8979 62.9659 22.0795 62.3639 22.0305C62.1208 22.0678 61.8724 22.0495 61.6374 21.9768C61.4023 21.9042 61.1867 21.7792 61.0067 21.6111C60.8267 21.443 60.687 21.2362 60.598 21.0063C60.5091 20.7763 60.4731 20.5292 60.493 20.2833C60.4917 19.8638 60.6337 19.4566 60.8953 19.1293C61.2401 18.7493 61.7164 18.5156 62.2271 18.4757V16.1798C61.8277 16.1971 61.4361 16.0648 61.1287 15.8085C60.98 15.6807 60.8624 15.5204 60.785 15.34C60.7076 15.1595 60.6724 14.9637 60.6821 14.7675C60.6704 14.5638 60.7054 14.3602 60.7841 14.1721C60.8629 13.984 60.9835 13.8164 61.1367 13.6821C61.5145 13.3939 61.9826 13.2508 62.4564 13.2786C63.0346 13.2243 63.6113 13.3964 64.0658 13.7588C64.2368 13.9297 64.37 14.1348 64.4566 14.3607C64.5433 14.5867 64.5815 14.8284 64.5688 15.0702V18.6693C65.0763 18.853 65.5557 19.107 65.9931 19.4239C66.3424 19.6627 66.6542 19.9523 66.9184 20.2833V13.4239L69.2682 13.4602ZM62.1024 21.1266C62.1947 20.9521 62.2352 20.7546 62.2191 20.5577V19.097C61.9327 19.1188 61.6659 19.2513 61.4752 19.4667C61.2845 19.682 61.1848 19.9633 61.1971 20.251C61.1884 20.5063 61.2423 20.7599 61.354 20.9894C61.3852 21.0725 61.4399 21.1446 61.5114 21.1969C61.5828 21.2492 61.668 21.2795 61.7563 21.284C61.8212 21.287 61.8858 21.2743 61.9446 21.2469C62.0034 21.2195 62.0548 21.1782 62.0943 21.1266H62.1024ZM61.8167 15.3849C61.8876 15.4565 61.9724 15.5128 62.0658 15.5502C62.1592 15.5877 62.2593 15.6056 62.3599 15.6028C62.4587 15.6059 62.5571 15.5881 62.6486 15.5505C62.7401 15.513 62.8227 15.4566 62.891 15.3849C63.0265 15.2024 63.0997 14.9809 63.0997 14.7534C63.0997 14.5259 63.0265 14.3044 62.891 14.1219C62.8227 14.0503 62.7401 13.9938 62.6486 13.9563C62.5571 13.9187 62.4587 13.9009 62.3599 13.904C62.2593 13.9012 62.1592 13.9191 62.0658 13.9566C61.9724 13.994 61.8876 14.0503 61.8167 14.1219C61.6761 14.3022 61.5997 14.5245 61.5997 14.7534C61.5997 14.9823 61.6761 15.2046 61.8167 15.3849V15.3849Z" fill="#003D6B"/>
<path d="M73.3251 21.5627C72.9458 21.1994 72.752 20.7306 72.7839 20.2536L72.7805 13.2688H75.4365L75.4399 19.4428C75.8883 19.4265 76.3299 19.5368 76.6906 19.7552C76.852 19.8675 76.9791 20.009 77.062 20.1684C77.1449 20.3279 77.1812 20.5009 77.1682 20.6738C77.1789 20.8621 77.1374 21.0498 77.0468 21.2231C76.9562 21.3963 76.8189 21.5506 76.6451 21.6743C76.2146 21.9399 75.6827 22.0717 75.1443 22.0462C74.2938 22.0462 73.6844 21.8751 73.3251 21.5627ZM75.8765 21.2763C76.0492 21.1143 76.1374 20.9033 76.1221 20.6887C76.1314 20.584 76.1144 20.4789 76.0722 20.3797C76.03 20.2806 75.9634 20.1896 75.8765 20.1123C75.7961 20.0479 75.7008 19.9973 75.5961 19.9635C75.4915 19.9296 75.3796 19.9132 75.2671 19.9151C75.1552 19.9124 75.0437 19.9285 74.9397 19.9624C74.8356 19.9963 74.7412 20.0473 74.6622 20.1123C74.5779 20.1906 74.5136 20.282 74.4729 20.381C74.4323 20.48 74.4163 20.5846 74.4257 20.6887C74.4099 20.9021 74.4945 21.1124 74.6622 21.2763C74.7391 21.3442 74.8329 21.3979 74.9372 21.4338C75.0415 21.4697 75.154 21.4871 75.2671 21.4846C75.3808 21.4864 75.4937 21.4688 75.5987 21.433C75.7036 21.3971 75.7982 21.3438 75.8765 21.2763Z" fill="#003D6B"/>
<path d="M80.5047 16.2434C80.0944 16.2601 79.6925 16.1249 79.3766 15.864C79.2258 15.732 79.1071 15.5676 79.0296 15.3833C78.952 15.199 78.9175 14.9996 78.9287 14.8002C78.9176 14.5921 78.954 14.3842 79.0352 14.1921C79.1163 14.0001 79.2402 13.8287 79.3974 13.6909C79.7889 13.3974 80.2723 13.2513 80.7619 13.2786C81.3578 13.2239 81.9519 13.3997 82.4209 13.7693C82.5941 13.9483 82.7272 14.1617 82.8116 14.3955C82.8959 14.6293 82.9295 14.8783 82.9103 15.1259V18.668L84.4407 14.5445H85.5273L87.0411 18.668V13.4641H89.4632V22.0493H87.0577V21.8101L84.984 16.33L82.9103 21.8101V22.041H80.5047V16.2434ZM81.2015 15.4187C81.3387 15.2312 81.4126 15.0052 81.4126 14.7734C81.4126 14.5415 81.3387 14.3155 81.2015 14.128C81.1303 14.0547 81.0444 13.9969 80.9494 13.9586C80.8544 13.9202 80.7524 13.9021 80.6499 13.9054C80.5468 13.902 80.4441 13.9201 80.3484 13.9585C80.2527 13.9968 80.1661 14.0545 80.0941 14.128C79.9492 14.3123 79.8704 14.5394 79.8704 14.7734C79.8704 15.0073 79.9492 15.2344 80.0941 15.4187C80.1661 15.4922 80.2527 15.5499 80.3484 15.5882C80.4441 15.6266 80.5468 15.6447 80.6499 15.6413C80.7515 15.6462 80.853 15.63 80.9479 15.5938C81.0429 15.5576 81.1292 15.5022 81.2015 15.431V15.4187Z" fill="#003D6B"/>
<path d="M92.2272 19.2156C92.2272 18.4278 92.6454 17.8768 93.4819 17.5628C93.0941 17.3966 92.7526 17.111 92.4938 16.7364C92.2285 16.339 92.0903 15.8468 92.1028 15.3439C92.0822 15.0513 92.1211 14.7572 92.2161 14.4852C92.3112 14.2132 92.4599 13.971 92.6502 13.7779C93.0958 13.4136 93.6347 13.2359 94.1786 13.2738C94.6096 13.2454 95.0375 13.3755 95.4013 13.6457C95.5419 13.7582 95.6561 13.9097 95.7337 14.0865C95.8113 14.2632 95.8497 14.4597 95.8456 14.658C95.8548 14.8561 95.8278 15.0542 95.7666 15.2393C95.7053 15.4244 95.6111 15.5925 95.4902 15.7324C95.2039 16.0224 94.8314 16.1707 94.4523 16.1455C94.3606 16.1406 94.2692 16.1295 94.1786 16.1125C94.1834 16.2639 94.225 16.4107 94.2986 16.5357C94.3722 16.6608 94.4748 16.759 94.5944 16.8191C94.8688 16.9745 95.1708 17.0523 95.476 17.0463H96.2686V18.0586H95.3764C95.2275 18.0438 95.0777 18.0689 94.9384 18.132C94.7992 18.195 94.6742 18.2943 94.5731 18.4223C94.3936 18.6766 94.3001 18.9984 94.3101 19.3272V21.2568H96.1122C96.2411 21.2723 96.3714 21.2552 96.4941 21.2067C96.6168 21.1582 96.729 21.0794 96.8231 20.9758C96.98 20.7405 97.0572 20.4465 97.0399 20.1494V13.4432H99.1193V20.2734C99.1359 20.6368 99.0697 20.9988 98.9273 21.3229C98.7861 21.5906 98.5645 21.7879 98.3053 21.8766C97.9127 22.007 97.5048 22.0642 97.0968 22.046H92.2272V19.2156ZM94.7153 15.3522C94.7827 15.2643 94.8344 15.1616 94.8673 15.0503C94.9003 14.9389 94.9138 14.821 94.9072 14.7035C94.9192 14.4651 94.8503 14.2307 94.7153 14.0506C94.6526 13.9776 94.578 13.9196 94.496 13.88C94.414 13.8404 94.326 13.8201 94.2372 13.8201C94.1484 13.8201 94.0605 13.8404 93.9784 13.88C93.8964 13.9196 93.8219 13.9776 93.7592 14.0506C93.6242 14.2307 93.5553 14.4651 93.5672 14.7035C93.5606 14.821 93.5742 14.9389 93.6071 15.0503C93.6401 15.1616 93.6918 15.2643 93.7592 15.3522C93.888 15.4949 94.0592 15.5745 94.2372 15.5745C94.4152 15.5745 94.5864 15.4949 94.7153 15.3522Z" fill="#003D6B"/>
<path d="M96.0447 11.9749C95.8941 11.8188 95.7778 11.6315 95.7034 11.4257C95.629 11.2199 95.5984 11.0002 95.6135 10.7812C95.6022 10.5543 95.6435 10.3279 95.734 10.1204C95.8244 9.91297 95.9616 9.73038 96.1341 9.58757C96.5842 9.26344 97.0847 9.01992 97.6144 8.86739L98.135 8.70426C98.3107 8.65061 98.4665 8.54381 98.5818 8.39789C98.6727 8.28535 98.7259 8.14585 98.7334 8H100C99.9806 8.68039 99.7164 9.10613 99.2229 9.27324L97.8164 9.73877C97.6832 9.78969 97.5535 9.8495 97.4279 9.91782C97.3036 9.98943 97.2453 10.0491 97.2531 10.0969C97.3577 10.0512 97.4697 10.0255 97.5833 10.0213C97.6323 10.0148 97.682 10.0148 97.731 10.0213C97.8616 10.0314 97.9888 10.0692 98.1045 10.1322C98.2202 10.1952 98.3219 10.282 98.4031 10.3873C98.5591 10.6122 98.6384 10.8835 98.6285 11.1592C98.6306 11.3326 98.5923 11.5039 98.5166 11.659C98.4409 11.814 98.33 11.9483 98.1933 12.0505C97.9048 12.2822 97.5457 12.402 97.1793 12.3887C96.7629 12.4073 96.3559 12.2588 96.0447 11.9749V11.9749ZM97.7038 11.6088C97.8201 11.4669 97.8786 11.2845 97.8669 11.0995C97.876 10.9258 97.8173 10.7555 97.7038 10.6261C97.6486 10.5702 97.583 10.5263 97.5109 10.4969C97.4388 10.4675 97.3617 10.4532 97.2842 10.455C97.2114 10.4548 97.1394 10.4699 97.0726 10.4993C97.0058 10.5287 96.9455 10.5719 96.8956 10.6261C96.786 10.7574 96.7303 10.9271 96.7402 11.0995C96.728 11.2832 96.7834 11.4649 96.8956 11.6088C96.9439 11.6657 97.0037 11.7111 97.0707 11.742C97.1378 11.7729 97.2106 11.7886 97.2842 11.7879C97.3625 11.79 97.4403 11.7752 97.5127 11.7443C97.585 11.7135 97.6501 11.6673 97.7038 11.6088V11.6088Z" fill="#003D6B"/>
<path d="M51.6036 99.6743C49.7073 101.184 46.9987 101.939 43.478 101.939H36.7277V113.981H30V82.0801H43.9148C47.1206 82.0801 49.6782 82.8805 51.5874 84.4812C53.4967 86.0819 54.4502 88.5629 54.448 91.924C54.4545 95.5764 53.5064 98.1598 51.6036 99.6743ZM46.426 88.5003C45.563 87.81 44.3614 87.4659 42.8211 87.468H36.7277V96.6H42.8308C44.3776 96.6 45.5792 96.229 46.4357 95.4869C47.2921 94.7447 47.7236 93.5658 47.7301 91.9499C47.7258 90.3384 47.2943 89.1885 46.4357 88.5003H46.426Z" fill="#003D6B"/>
<path d="M67.3242 95.571C68.167 95.5022 68.9977 95.3272 69.7965 95.05C70.6875 94.6854 71.1319 94.117 71.1297 93.3446C71.1297 92.403 70.8061 91.7558 70.1072 91.403C69.4082 91.0503 68.4244 90.8691 67.1041 90.8691C65.622 90.8691 64.5725 91.2197 63.9555 91.9208C63.4775 92.5296 63.1733 93.2564 63.0753 94.0242H57.1081C57.2376 92.0179 57.819 90.3697 58.8523 89.0796C60.4919 87.0603 63.3115 86.0496 67.3112 86.0474C69.7064 86.0021 72.0793 86.5139 74.2428 87.5425C76.2664 88.5392 77.2771 90.4193 77.2749 93.1828V103.703C77.2749 104.434 77.2889 105.318 77.317 106.353C77.3623 107.141 77.4853 107.675 77.6859 107.955C77.9254 108.259 78.2399 108.496 78.5984 108.641V109.525H71.8675C71.693 109.108 71.5629 108.674 71.4792 108.23C71.4037 107.823 71.3455 107.36 71.3045 106.842C70.4344 107.751 69.433 108.524 68.3338 109.136C66.9442 109.89 65.384 110.273 63.8034 110.25C61.6461 110.25 59.8663 109.657 58.464 108.473C57.0617 107.289 56.3595 105.609 56.3574 103.435C56.3574 100.613 57.4867 98.5708 59.7455 97.3088C60.9838 96.6227 62.8067 96.1319 65.2143 95.8364L67.3242 95.571ZM71.1071 98.3702C70.7276 98.6014 70.3266 98.7954 69.9098 98.9494C69.3673 99.1311 68.8111 99.2685 68.2465 99.3604L66.8388 99.6128C65.8538 99.7358 64.894 100.012 63.9943 100.432C63.5358 100.674 63.1561 101.043 62.8998 101.494C62.6436 101.945 62.5215 102.46 62.5478 102.978C62.5478 104.004 62.8456 104.742 63.441 105.198C64.067 105.664 64.8323 105.905 65.6123 105.881C66.9406 105.89 68.2408 105.499 69.3435 104.758C70.4825 104.001 71.0736 102.619 71.1168 100.613L71.1071 98.3702Z" fill="#003D6B"/>
<path d="M97.9238 85.918L90.2318 114H83.9248L85.6593 105.972L79.5109 85.9083H86.2451L89.1575 94.4061L91.3482 85.9019L97.9238 85.918Z" fill="#003D6B"/>
</g>
<rect x="1.5" y="1.5" width="125" height="125" stroke="#003D6B" stroke-width="3"/>
<defs>
<clipPath id="clip0_1_1784">
<rect width="128" height="128" fill="white"/>
</clipPath>
</defs>
</svg>
