<svg width="128" height="128" viewBox="0 0 128 128" fill="none" xmlns="http://www.w3.org/2000/svg">
<rect width="128" height="128" fill="#052A51"/>
<path d="M71.0569 45.7677C71.0569 45.7677 79.2939 48.7293 82.348 57.3364C83.3661 60.298 86.6053 62.4267 89.9371 62.4267H106.041C110.483 62.4267 114.093 58.7247 114.093 54.3749C114.093 50.025 110.391 46.323 106.041 46.323H93.2689L111.501 28.0907C114.74 24.8515 114.74 19.7613 111.501 16.6146C108.262 13.3753 103.264 13.3753 100.118 16.6146L81.6076 34.9394L81.7927 22.075C81.7927 17.355 78.1833 14.1157 73.8334 14.1157C69.3911 14.1157 65.7816 17.7252 65.7816 22.075V38.1787C65.7816 41.6955 68.0954 44.472 71.0569 45.7677Z" fill="white"/>
<path d="M14.0463 54.2823C14.0463 58.7247 17.7483 62.4267 22.0981 62.4267H38.2018C41.6261 62.4267 44.5877 60.2055 45.7908 57.1513C45.7908 57.1513 48.6599 48.9144 57.1745 45.8603C60.136 44.8422 62.2647 41.603 62.2647 38.2712V22.1675C62.2647 17.7251 58.6553 14.1157 54.3054 14.1157C49.7705 14.1157 46.2536 17.8177 46.2536 22.1675V34.8468L27.7436 16.4294C24.5969 13.1902 19.5067 13.1902 16.36 16.4294C13.2133 19.6687 13.2133 24.6664 16.36 27.813L34.9625 46.4156L22.0981 46.323C17.0079 46.323 14.0463 49.7473 14.0463 54.2823Z" fill="white"/>
<path d="M73.7409 113.884C78.1833 113.884 81.7927 110.553 81.7927 105.833V93.2458L100.118 111.571C103.357 114.81 108.354 114.81 111.501 111.571C114.74 108.331 114.74 103.334 111.501 100.187L92.9912 81.5846L105.856 81.7696C110.668 81.7696 113.907 78.1602 113.907 73.8104C113.907 69.4605 110.205 65.7585 105.856 65.7585H89.752C86.3276 65.7585 83.366 67.9797 82.1629 71.0339C82.1629 71.0339 79.2939 79.2708 70.7793 82.325C67.8177 83.343 65.5965 86.5822 65.5965 89.914V106.018C65.689 110.275 69.2985 113.884 73.7409 113.884Z" fill="white"/>
<path d="M56.9893 82.2323C56.9893 82.2323 48.7524 79.3633 45.8834 70.7561C44.7728 67.7945 41.6261 65.6659 38.2943 65.6659H22.2832C17.7482 65.6659 14.2313 69.3679 14.2313 73.7177C14.2313 78.0676 17.8408 81.7695 22.2832 81.7695H34.7774L16.5451 100.187C13.3059 103.149 13.3059 108.424 16.5451 111.571C19.5067 114.81 24.782 114.81 27.9287 111.571L46.5312 92.9681L46.3461 105.832C46.161 110.923 49.7705 113.792 54.1203 113.792C58.6552 113.792 62.1721 110.182 62.1721 105.832V89.8214C62.2647 86.2119 60.136 83.3429 56.9893 82.2323Z" fill="white"/>
</svg>
