<svg width="128" height="128" viewBox="0 0 128 128" fill="none" xmlns="http://www.w3.org/2000/svg">
<rect width="128" height="128" fill="#186F9F"/>
<path opacity="0.7" d="M51.6875 110.562C49.0312 112.125 46.6875 113.062 44.1875 113.062C37.7031 113.062 32.3125 107.75 32 101.422L44.5781 93.9219L64.1094 102.672L51.6875 110.562Z" fill="white"/>
<path opacity="0.7" d="M59.1875 78.375L49.8125 74.2344C45.6719 72.3594 41.6875 70.7969 41.6875 66.1875C41.6875 63.7656 42.3906 62.5938 43.5625 61.3438L63.3281 70.0938L58.4063 72.9063C57.0781 73.7656 56.1406 74.4687 56.1406 75.4844C56.1406 76.6562 57.4688 77.5938 59.1875 78.375Z" fill="white"/>
<path opacity="0.7" d="M68.4062 35.25L58.7969 41.0312C57.9375 41.5781 56.8438 42.3594 56.8438 43.6875C56.8438 45.1719 59.0312 46.2656 60.9844 47.2031L49.0312 41.8906C45.5156 40.3281 42 38.6094 42 34.3125C42 32.5156 42.5469 31.1094 43.3281 29.8594L69.2656 14C72.3906 15.7969 75.3594 19.3125 75.3594 24.0781C75.3594 29.2344 72.7812 32.5938 68.4062 35.25Z" fill="white"/>
<path opacity="0.7" d="M88.7969 54L86.4531 55.3281L66.6094 46.5781L89.6562 32.75C92.7812 34.5469 95.8281 38.0625 95.8281 42.8281C95.8281 47.9063 93.25 51.4219 88.7969 54Z" fill="white"/>
<path opacity="0.7" d="M72.0781 70.7969L83.7969 75.9531C88.1719 77.9063 89.5 80.25 89.5 83.1406C89.5 84.7813 88.5625 86.4219 87.2344 87.5938L67.5469 78.8438L70.9062 76.9688C73.7187 75.4063 74.6562 74.4688 74.6562 73.4531C74.6562 72.3594 74.0312 71.6563 72.0781 70.7969Z" fill="white"/>
<path d="M92.9375 114C87.9375 110.172 82.625 107.594 76.2188 104.625L46.375 91.4219C38.875 88.0625 33.875 83.6094 33.875 76.1094C33.875 68.8438 37.3906 65.3281 42 62.3594L43.6406 61.3438C42.4688 62.5938 41.7656 63.8438 41.7656 66.1875C41.7656 70.7969 45.6719 72.3594 49.8906 74.2344L84.6562 89.5469C90.6719 92.125 96.2188 96.5781 96.2188 104.234C96.2188 108.375 94.6563 112.125 92.9375 114Z" fill="white"/>
<path d="M89.4219 86.1875L87.2344 87.5938C88.5625 86.4219 89.5 84.7813 89.5 83.1406C89.5 80.25 88.1719 77.9063 83.7969 75.9531L46.6875 59.5469C39.1875 56.2656 34.5 51.9687 34.5 44.4687C34.5 37.5937 37.9375 33.1406 43.3281 29.7812C42.4688 31.0313 42 32.4375 42 34.2344C42 38.4531 45.5156 40.25 49.0313 41.8125L85.125 57.75C91.6875 60.6406 97 65.0156 97 73.0625C97 79.3906 94.1094 83.2969 89.4219 86.1875Z" fill="white"/>
</svg>
