<svg width="128" height="128" viewBox="0 0 128 128" fill="none" xmlns="http://www.w3.org/2000/svg">
<rect width="128" height="128" fill="#4E317D"/>
<path d="M19.9969 98.4616C27.2322 101.843 34.4676 105.304 41.7029 108.764C42.0175 109 42.568 109 42.9612 109C48.4664 109 53.9715 109 59.4767 109C60.4204 109 60.5777 108.685 60.5777 107.82C60.4991 102.944 60.5777 98.0683 60.5777 93.1923C60.5777 92.8778 60.4991 92.7205 60.4991 92.2486C60.1059 92.4845 59.7126 92.5632 59.398 92.7205C54.3648 94.9225 49.1742 96.7314 43.5117 96.0236C41.3097 95.709 39.3436 95.0012 37.692 93.4283C34.7821 90.6757 33.9957 87.058 33.9171 83.2831C33.8384 80.1373 34.153 76.9915 34.5462 73.8457C34.9394 70.1493 35.8832 66.6103 37.4561 63.2286C41.6243 54.0271 47.7586 46.1626 54.9939 39.2418C57.3533 36.9611 60.1845 35.1523 62.8584 33.1075C63.4876 32.6357 64.1167 32.6357 64.8246 33.1075C66.948 34.6804 69.15 36.096 71.1162 37.7476C76.2281 42.2303 80.5536 47.3423 84.3285 52.9261C88.1821 58.5099 91.4066 64.4869 92.6649 71.2504C93.6086 76.205 94.2378 81.2383 93.3727 86.2716C92.1144 93.0351 88.1035 95.9449 82.0478 96.1022C79.0593 96.1809 76.1494 95.5517 73.3182 94.5293C71.2735 93.8215 69.2287 92.9564 67.1839 92.17C67.1839 92.4845 67.1839 92.6418 67.1839 92.8778C67.1839 97.7538 67.1839 102.63 67.1839 107.427C67.1839 108.449 67.4985 108.685 68.5209 108.685C73.8687 108.607 79.138 108.685 84.4858 108.607C85.1936 108.607 85.9014 108.371 86.5306 108.135C93.53 104.832 100.529 101.45 107.45 98.147C108.866 97.4392 108.866 97.5178 108.473 95.9449C104.54 80.5305 100.687 65.1947 96.7544 49.7803C96.5972 49.3084 96.3612 48.7579 95.8893 48.286C94.3164 46.7131 92.6649 45.2189 91.092 43.7246C88.0248 40.8934 84.9577 38.0622 81.8119 35.2309C77.6437 31.456 73.5542 27.7597 69.386 23.9061C67.8131 22.4118 66.0829 20.9175 64.51 19.3446C63.9595 18.8728 63.5662 18.8728 63.0157 19.4233C62.3079 20.1311 61.5215 20.7603 60.8137 21.3894C57.5892 24.3779 54.3648 27.3664 51.1403 30.2763C47.6799 33.4221 44.2982 36.5679 40.7592 39.7137C38.2425 41.9944 35.7259 44.2751 33.2092 46.5558C32.2655 47.4996 31.0858 48.286 30.6926 49.7803C26.839 65.1161 22.9854 80.5305 19.0531 95.8663C18.8958 97.5178 19.0531 98.0683 19.9969 98.4616Z" fill="white"/>
</svg>
