<svg width="128" height="128" viewBox="0 0 128 128" fill="none" xmlns="http://www.w3.org/2000/svg">
<rect width="128" height="128" fill="#0060AA"/>
<path d="M113.958 64.142C114.661 90.3811 91.78 115.058 62.0268 113.965C35.6316 112.95 14 90.6154 14 63.9858C14 37.6687 35.5535 13.5382 64.9162 14.0067C93.1076 14.4753 114.583 38.0592 113.958 64.142ZM106.071 60.9402C105.993 54.7709 103.806 46.0246 98.8083 38.0592C90.7648 25.4082 79.4414 18.0675 64.3696 17.6771C53.2024 17.3647 43.597 21.894 35.7878 29.7814C19.8569 45.9465 17.5142 72.3417 30.087 91.162C41.2542 107.796 60.465 114.434 78.0358 107.561C94.6695 101.158 105.993 83.5089 106.071 60.9402Z" fill="white"/>
<path d="M79.5196 78.1987C77.0206 80.9319 74.756 83.3528 72.1008 86.2422C68.9771 82.9623 65.8534 79.7606 62.8859 76.5588C59.9965 73.4351 60.0746 73.4351 63.1202 70.3895C64.5259 68.9838 65.6972 67.3439 66.6344 66.1725C71.398 70.6238 75.5369 74.5284 79.5196 78.1987Z" fill="#F99B05"/>
<path d="M77.333 62.8145C72.9598 58.207 69.3675 54.4586 65.9315 50.554C65.541 50.1635 65.4629 48.8359 65.8534 48.4455C67.8057 46.1027 69.9142 43.9942 72.4132 41.261C76.5521 45.5561 80.2224 49.3045 83.8146 53.131C84.2051 53.5215 84.2051 54.8491 83.8146 55.3176C81.8623 57.7385 79.91 59.847 77.333 62.8145Z" fill="#F99B05"/>
<path d="M70.1484 59.6127C66.1657 63.5174 62.183 67.5001 58.5127 71.1704C55.5451 68.7495 52.8119 66.4849 50.2349 64.2983C54.608 59.7689 58.5127 55.7862 62.5735 51.5692C65.0724 54.2244 67.4152 56.7233 70.1484 59.6127Z" fill="#F99B05"/>
<path d="M62.6515 80.6195C65.2286 83.3527 67.4933 85.7736 70.2265 88.5849C66.6342 92.0991 62.8858 95.7694 58.9812 99.3617C58.5907 99.7521 57.4193 99.9083 57.1851 99.596C55.5451 97.8779 53.5928 96.1599 52.8119 94.0514C52.3433 92.8019 53.2804 90.4591 54.2956 89.2097C56.7165 86.3203 59.684 83.6651 62.6515 80.6195Z" fill="#F99B05"/>
<path d="M75.3806 68.4371C78.9729 64.7668 82.8775 60.7841 87.0945 56.489C88.8125 58.3632 90.921 60.0032 92.0924 62.1117C93.0295 63.9078 92.5609 66.1725 90.8429 67.8124C88.0316 70.5456 85.2983 73.357 82.4089 76.2464C79.9881 73.5912 77.6453 70.9361 75.3806 68.4371Z" fill="#F99B05"/>
<path d="M43.0504 41.4952C47.5798 46.0246 51.4844 49.9292 55.5452 54.0681C52.9681 56.5671 50.4692 58.9098 48.2045 61.0964C45.1589 58.207 41.7228 55.3176 38.6772 52.0377C37.1154 50.3978 37.4278 48.1331 38.8334 46.2589C40.161 44.7751 41.4886 43.2914 43.0504 41.4952Z" fill="#F99B05"/>
<path d="M62.2611 47.0398C59.6841 44.4628 56.8727 41.7295 54.1395 38.9182C51.7186 36.3412 51.7186 33.5298 54.1395 31.0309C55.3109 29.8595 56.4823 28.7662 57.8098 27.5167C61.9487 31.6556 65.9315 35.6383 70.0704 39.7772C67.5714 42.12 65.0724 44.4628 62.2611 47.0398Z" fill="#F99B05"/>
<path d="M55.3109 74.0598C51.4063 77.8083 47.4236 81.6348 43.1285 85.6956C41.9571 84.6023 40.3953 83.3528 39.1458 81.8691C37.1935 79.5263 37.2716 77.0273 39.4582 74.8408C42.2695 72.0294 45.237 69.2962 48.2045 66.4849C50.313 68.7495 52.6558 71.3266 55.3109 74.0598Z" fill="#F99B05"/>
</svg>
