<svg width="128" height="128" viewBox="0 0 128 128" fill="none" xmlns="http://www.w3.org/2000/svg">
<rect width="128" height="128" fill="#18569D"/>
<path fill-rule="evenodd" clip-rule="evenodd" d="M14 41.1563C20.0161 41.1563 26.1104 41.0781 32.0484 41.2344C32.0484 44.7503 32.0484 48.1881 32.0484 51.704C30.9546 51.704 29.7826 51.704 28.6888 51.704C28.6888 63.1113 28.6888 74.5967 28.6888 86.0039C24.9384 86.0039 21.0319 86.082 17.3597 85.9258C17.3597 74.5185 17.3597 63.1113 17.3597 51.6259C16.2658 51.6259 15.172 51.6259 14 51.6259C14 48.1881 14 44.6722 14 41.1563Z" fill="white"/>
<path fill-rule="evenodd" clip-rule="evenodd" d="M34.6268 41.2344C38.3772 41.2344 42.1275 41.2344 45.8778 41.2344C45.8778 56.1575 45.8778 71.0807 45.8778 86.0039C42.1275 86.0039 38.299 86.0039 34.5487 86.0039C34.5487 71.1588 34.5487 56.2357 34.5487 41.3906C34.6268 41.3125 34.5487 41.2344 34.6268 41.2344Z" fill="white"/>
<path fill-rule="evenodd" clip-rule="evenodd" d="M66.3484 42.4845C66.3484 45.6098 66.3484 48.735 66.3484 51.7822C66.114 51.8603 65.9577 51.4697 65.7233 51.3134C64.0044 50.0633 61.4261 51.3134 61.1917 53.3448C61.1135 54.2824 61.4261 55.3762 61.5823 56.392C62.2074 59.2828 62.9887 62.0174 63.77 64.5958C64.8639 68.0336 66.4265 71.7058 66.114 76.0812C65.8014 80.2222 63.9263 83.1912 60.9573 84.8319C59.4728 85.6914 57.5195 86.1602 55.3318 86.0039C53.2222 85.8476 51.5815 85.3789 49.7844 84.5975C49.7844 81.1597 49.7844 77.8001 49.7844 74.3623C49.9407 74.2841 50.2532 74.5185 50.4876 74.6748C50.722 74.8311 50.9564 74.9873 51.2689 75.0655C53.066 75.6905 55.2536 74.8311 55.4099 72.9559C55.5662 71.3151 55.0193 69.44 54.5505 67.9555C53.1441 63.502 51.1908 59.6735 50.3313 54.5168C49.7063 50.6883 50.2532 47.4849 52.1284 45.0629C52.9878 43.969 54.0817 43.0314 55.3318 42.4064C56.5819 41.7032 57.9883 41.1563 59.7853 41C62.5199 41 64.3951 41.8595 66.3484 42.4845Z" fill="white"/>
<path fill-rule="evenodd" clip-rule="evenodd" d="M84.4748 41.2344C84.4748 44.4378 84.4748 47.6412 84.4748 50.8446C81.5839 50.532 79.7088 51.2352 79.0837 53.2666C78.6931 54.5168 78.9275 56.6263 78.9275 58.2671C78.9275 61.783 78.9275 65.0645 78.9275 68.5805C78.9275 70.2994 78.6931 72.2527 79.0837 73.5809C79.6307 75.7686 81.6621 76.5499 84.553 76.2374C84.553 79.4408 84.553 82.6442 84.553 85.8476C78.3805 86.1601 74.3958 83.9724 71.8956 80.4565C70.5674 78.6595 69.7079 76.5499 69.3954 73.9716C69.2391 72.6433 69.3173 71.0807 69.3173 69.5181C69.3173 65.0645 69.3173 60.5329 69.3173 56.0013C69.3173 54.4386 69.3173 53.0323 69.5517 51.704C70.2548 48.1881 72.3644 45.2972 74.8646 43.5002C77.2086 41.9375 80.2557 40.9218 84.4748 41.2344Z" fill="white"/>
<path fill-rule="evenodd" clip-rule="evenodd" d="M100.179 41.2343C105.805 40.8437 109.633 43.8908 111.821 47.2505C113.071 49.2038 113.852 51.3133 113.931 53.9698C114.087 57.1732 113.931 59.8297 113.931 62.7987C113.931 65.6896 113.931 68.6586 113.931 71.6276C113.931 74.5185 113.462 77.0187 112.368 78.8939C110.337 82.6442 106.742 85.4569 101.664 85.8476C98.8512 86.082 96.4291 85.2225 94.5539 84.2068C92.7569 83.1911 91.1161 81.7066 90.0223 79.9096C88.8503 78.1125 87.9908 75.8467 87.9127 73.1902C87.7564 67.3303 87.9127 61.3142 87.9127 55.5324C87.9127 52.329 88.3815 50.3757 89.4753 48.2662C90.9599 45.4534 93.2257 43.1876 96.5072 42.0156C97.6011 41.625 98.8512 41.3906 100.179 41.2343ZM97.8355 53.0322C97.2885 54.3605 97.5229 56.5482 97.5229 58.0327C97.5229 61.5486 97.5229 65.2208 97.5229 68.7367C97.5229 70.6119 97.2885 72.6433 97.6792 73.8934C98.3042 75.7686 100.336 76.9406 102.211 76.0811C102.914 75.7686 103.773 74.9091 104.086 73.8934C104.477 72.6433 104.242 70.3775 104.242 68.893C104.242 65.2208 104.242 61.9393 104.242 58.5015C104.242 56.7044 104.477 54.673 104.086 53.4229C103.617 51.9384 102.289 50.6883 100.414 51.0008C99.0856 51.0789 98.3042 52.0165 97.8355 53.0322Z" fill="white"/>
</svg>
