<svg width="128" height="128" viewBox="0 0 128 128" fill="none" xmlns="http://www.w3.org/2000/svg">
<rect width="128" height="128" fill="#1C7ABC"/>
<path d="M51.1094 40C48.2969 40 45.875 42.2656 45.875 45.2344C45.875 48.125 48.2188 50.4688 51.1094 50.4688C54 50.4688 56.3438 48.125 56.3438 45.2344C56.2656 42.3438 53.9219 40 51.1094 40ZM76.8125 40C74 40 71.5781 42.2656 71.5781 45.2344C71.5781 48.125 73.8438 50.4688 76.8125 50.4688C79.7813 50.4688 82.0469 48.125 82.0469 45.2344C82.0469 42.3438 79.7031 40 76.8125 40ZM46.0313 54.7656V87.6562H53.2188V64.6094H53.2969L61.1094 87.6562H66.7344L74.625 64.5313V87.6562H81.8906V54.7656H71.4219L64.1562 77.3438H64.0781L56.4219 54.7656H46.0313Z" fill="white"/>
<path d="M14 60.8594V54.7656H41.1875V60.8594H31.1875V87.5781H23.9219V60.8594H14Z" fill="white"/>
<path d="M102.359 54.7656C103.844 54.7656 105.25 54.9219 106.578 55.1562C107.828 55.4688 108.922 55.8594 109.781 56.4844C110.641 57.1094 111.344 57.9687 111.812 58.9844C112.281 60 112.516 61.3281 112.516 62.8906C112.516 64.5312 112.125 65.9375 111.422 67.0312C110.719 68.125 109.625 69.0625 108.219 69.6875C110.172 70.2344 111.578 71.25 112.594 72.7344C113.531 74.1406 114 75.9375 114 78.0469C114 79.6875 113.688 81.0938 113.063 82.4219C112.438 83.5938 111.578 84.6094 110.562 85.3906C109.547 86.1719 108.297 86.7188 106.969 87.1094C105.641 87.5 104.234 87.6562 102.75 87.6562H87.4375V54.7656H102.359ZM101.5 68.125C102.75 68.125 103.766 67.8125 104.547 67.1875C105.328 66.5625 105.719 65.625 105.719 64.2187C105.719 63.4375 105.563 62.8125 105.328 62.3437C105.094 61.875 104.703 61.4844 104.234 61.1719C103.766 60.8594 103.297 60.7031 102.672 60.625C102.125 60.5469 101.5 60.4687 100.875 60.4687H94.2344V68.125H101.5ZM101.891 82.0313C102.594 82.0313 103.219 81.9531 103.844 81.7969C104.469 81.6406 105.016 81.4062 105.484 81.0937C105.953 80.7812 106.344 80.3125 106.656 79.7656C106.969 79.2188 107.047 78.5156 107.047 77.6562C107.047 76.0156 106.578 74.7656 105.641 74.0625C104.703 73.3594 103.531 72.9687 102.047 72.9687H94.3906V82.0313H101.891" fill="white"/>
</svg>
