<svg width="128" height="128" viewBox="0 0 128 128" fill="none" xmlns="http://www.w3.org/2000/svg">
<path d="M89.6 0H38.4C17.2 0 0 17.2 0 38.4V89.6C0 110.8 17.2 128 38.4 128H89.6C110.8 128 128 110.8 128 89.6V38.4C128 17.2 110.8 0 89.6 0ZM42.6 8.8H85.3V36.9C81.7 39.1 77.9 41.9 74.3 45.8V19.6H53.6V45.8C50.4 42.3 46.6 39.4 42.6 36.9V8.8ZM48.9 99.8V118.9H43.9V109.3C43.9 109.3 44.5 104.6 39.4 104.6H13.9V100.1H42.8C44.1 100.1 44.1 98.2 42.8 98.2H13.9V93.8H44.5C49.5 93.8 48.9 96 48.9 99.8ZM55.9 87.1V118.9H50.9V96.6C50.9 96.6 51.5 91.9 46.4 91.9H13.9V87.4H49.9C51.1 87.4 51.1 85.5 49.9 85.5H13.9V81H51.5C56.5 81.1 55.9 83.2 55.9 87.1ZM63 118.9H58V83.8C58 83.8 58.6 79.1 53.5 79.1H13.9V74.7H57C58.2 74.7 58.2 72.8 57 72.8H13.9V68.4H57.9C61 69 62.9 72.1 62.9 75.3V118.9H63ZM114 98.3H85C83.7 98.3 83.7 100.2 85 100.2H114V104.7H88.5C83.3 104.7 84 109.4 84 109.4V119H79V99.8C79 95.9 78.4 93.8 83.4 93.8H114V98.3ZM114 85.6H78C76.8 85.6 76.8 87.5 78 87.5H114V92H81.5C76.3 92 77 96.7 77 96.7V119H72V87.1C72 83.2 71.4 81.1 76.4 81.1H114V85.6ZM114 72.8H70.9C69.7 72.8 69.7 74.7 70.9 74.7H114V79.1H74.5C69.4 79.1 70 83.8 70 83.8V118.9H65V75.3C65 72 66.9 69 70 68.4H114V72.8ZM114 66.4H102.6V43.5C97.7 44.1 88 49.3 83 55.3H99.7V66.5H64H63.9H13.9V44.5H25.1V55.3H44.8C38.5 48 25.1 41.7 13.9 42.1V22.5H41.1V33.7H32C48.3 39.2 60 52.9 63.9 66.3C68.8 51 80.8 38.9 95.9 33.7H86.7V22.5H102.6V19.3H114V66.4Z" fill="white"/>
<path d="M63.8 66.4H64C64 66.3 64 66.3 63.9 66.2C63.9 66.3 63.9 66.4 63.8 66.4Z" fill="white"/>
</svg>
