<svg width="128" height="128" viewBox="0 0 128 128" fill="none" xmlns="http://www.w3.org/2000/svg">
<path d="M42.2 50.7C44.3 55.2 46.8 59.6 50.1 63.3C51.3 61.1 52.2 58.8 53.2 56.5C57.1 46.3 59.2 35.5 60.6 24.8C61.6 16.7 62.3 8.39999 62.2 0.299988C52.9 0.499988 43.4 2.89999 35 7.09999C34.8 7.19999 34.5 7.39999 34.3 7.59999C34.1 9.19999 34.3 10.9 34.2 12.5C34.5 25.5 36.8 38.7 42.2 50.7Z" fill="white"/>
<path d="M72.6 50.2C74 54.6 75.6 59.1 77.8 63.2C80.2 60.4 82.2 57.3 84 54.1C89.3 44.2 92.1 33 93.2 21.8C93.6 17.1 93.9 12.3 93.7 7.60001C91.6 6.30001 89.2 5.40001 87 4.40001C80.2 1.80001 73 0.400012 65.7 0.200012C65.6 4.20001 65.8 8.20001 66.1 12.1C67 25 68.8 37.8 72.6 50.2Z" fill="white"/>
<path d="M18.8 56.5C23.6 49.4 26.5 41.2 28.4 32.9C30.1 25.2 31 17.3 31 9.40002C30.5 9.60002 30 9.90002 29.6 10.2C21.5 15.4 14.5 22.4 9.39999 30.7C1.89999 42.8 -1.30001 57.7 0.499988 71.8C7.99999 68.7 14.3 63.1 18.8 56.5Z" fill="white"/>
<path d="M120.5 34.2C116 25.6 109.4 18 101.5 12.3C100 11.3 98.6 10.2 97 9.40002C97 15.7 97.6 22.1 98.7 28.4C100.4 37.9 103.4 47.4 108.6 55.5C113.1 62.6 119.6 68.6 127.5 71.8C129.1 59 126.6 45.6 120.5 34.2Z" fill="white"/>
<path d="M44.8 74.9C44.4 74.1 43.6 73.5 43 72.8C40.3 69.7 38.1 66.2 36.2 62.6C34.7 59.7 33.6 56.6 32.6 53.6C32 54.5 31.7 55.5 31.4 56.5C29.6 61.6 27 66.5 23.7 70.8C18.6 77.4 11.8 83 3.89999 85.9C3.99999 86.5 4.19999 87.1 4.39999 87.6C6.39999 92.6 8.99999 97.4 12.2 101.7C13.5 103.3 14.7 105.1 16.2 106.5C17.2 106.2 18 105.6 18.9 105.1C28.5 98.9 36.1 89.9 41.9 80.2C43 78.5 44.1 76.8 44.8 74.9Z" fill="white"/>
<path d="M64.8 56.9C64.5 55.8 64.6 54.6 63.9 53.7C63.2 54.6 63.3 55.9 63 56.9C60.9 67.7 57.7 78.4 53.4 88.5C48.5 99.9 42.1 110.9 33.1 119.6C32.7 120.1 33.6 120.3 33.9 120.5C42.9 125.2 53.1 127.8 63.3 127.9C74.2 128 85.3 125.3 94.8 119.9C85.8 111 79.1 99.9 74.2 88.3C70.2 78.2 66.9 67.7 64.8 56.9Z" fill="white"/>
<path d="M96.5 56.4C96.2 55.5 96 54.5 95.4 53.7C94.8 54.7 94.5 55.9 94.1 57C91.7 63.5 88.1 69.5 83.4 74.6C82.9 75 83.3 75.5 83.5 75.9C85.6 79.9 88 83.7 90.6 87.3C95.7 94.2 101.8 100.5 109.1 105.3C109.9 105.8 110.7 106.4 111.6 106.6C112.3 106.1 112.8 105.3 113.3 104.7C116.7 100.6 119.5 96.1 121.8 91.3C122.6 89.6 123.4 87.8 123.9 86C119.6 84.4 115.7 82.1 112.2 79.2C105 73.2 99.6 65.2 96.5 56.4Z" fill="white"/>
</svg>
