<svg width="128" height="128" viewBox="0 0 128 128" fill="none" xmlns="http://www.w3.org/2000/svg">
<path d="M86.8 29.8L64 0L41.2 29.8C24 52.3 17.2 62.4 17.2 77.5C17.2 90.3 20.5 96.5 32.5 105.2L64 128L95.5 105.2C107.5 96.5 110.8 90.3 110.8 77.5C110.8 62.4 104 52.3 86.8 29.8ZM57 103.8L56.8 110C56.8 110.8 56.3 110.9 55.8 110.5C47.6 104.6 38 97.6 38 97.6C28 90.4 27.4 82.6 27.4 77.3C27.4 73.7 27.9 69.8 29.6 65.8C29.7 65.5 29.9 65 30.2 65C30.4 65 30.5 65.1 30.6 65.3C34.1 70.4 39.7 78.7 45.3 85.5C56.1 98.5 57.2 97.4 57 103.8ZM64 92.1C63.9 92.1 63.8 92 63.7 92L41.6 65.8C39.1 62.8 37.7 59.5 37.7 56.2C37.7 54 38.5 51.7 40.1 49.6L63.7 17.2C63.8 17.1 63.9 17 64 17C64.1 17 64.2 17.1 64.3 17.2L87.9 49.6C89.4 51.7 90.3 54 90.3 56.2C90.3 59.5 89 62.8 86.4 65.8L64.3 92C64.2 92.1 64.1 92.1 64 92.1ZM90 97.6C90 97.6 80.3 104.6 72.2 110.5C71.7 110.9 71.3 110.8 71.2 110L71 103.8C70.8 97.4 71.9 98.5 82.7 85.5C88.3 78.7 93.9 70.5 97.4 65.3C97.5 65.1 97.7 65 97.8 65C98 65 98.3 65.5 98.4 65.8C100 69.8 100.6 73.7 100.6 77.3C100.6 82.6 100 90.4 90 97.6Z" fill="white"/>
</svg>
