<svg width="128" height="128" viewBox="0 0 128 128" fill="none" xmlns="http://www.w3.org/2000/svg">
<path d="M21.8 122.4C15.8 117.8 12.3 108.9 12.3 108.9C7.2 107 0 102.1 0 102.1C0 102.1 4.7 99.5 8.9 98.8C7.4 90.1 9.4 78.3 9.4 78.3C9.4 78.3 10.8 89 16 97.2C22.4 95.9 27.8 95.4 27.8 95.4C27.8 95.4 24.4 100.2 22.6 105.5C26.6 109.5 33.9 113.6 36.7 114.6C30.6 114.3 23.7 113.1 21.1 112.1C21 115.8 21.1 119.7 21.8 122.4ZM38.1 71.9C34.6 64.5 32.3 54.8 32.3 54.8C32.3 54.8 23.7 60.1 10.7 72.8C18.3 57.8 27.3 48.3 27.3 48.3C27.3 48.3 23.9 44.9 11.7 43.8C23.5 39.6 36.5 41 36.5 41C36.5 41 42.3 36.1 51.9 33.3C51.9 33.3 49.4 36.7 47.5 42C61.2 43.5 73.9 51.5 73.9 51.5C73.9 51.5 52.8 48.2 43.8 51C40.6 58.7 38.8 67 38.1 71.9ZM68.7 114.5C68.8 116.9 69.7 119.3 69.7 119.3C69.7 119.3 67.8 119.5 62.6 119.7C55.2 124 46.1 125.6 46.1 125.6C46.1 125.6 51.9 121.8 54.8 118.8C50.2 118.1 46.1 116 46.1 116C46.1 116 53.9 115.5 59.6 114.1C62.3 111.4 67.3 104.3 67.3 104.3C67.3 104.3 67.6 108.3 68.1 110.9C74.7 107.7 80.2 103.6 80.2 103.6C80.2 103.6 75.3 109.6 68.7 114.5ZM120.8 20.3C121.4 31.6 119 45.1 115 55.7C115 48.7 114.3 35.9 110.1 27.2C106.8 29.5 98.3 33.7 86.4 39.8C88.2 38 96.1 28.6 98.4 24.6C90.1 24.7 75.8 25.7 63.9 28.4C71.8 24 87.3 18.9 99.9 16.7C94.4 12 84.1 6.30002 76.2 2.40002C82.6 2.60002 107 7.20003 115.3 13.6C120.8 12.3 128 12.1 128 12.1C126.3 15.6 124 18.2 120.8 20.3ZM21.8 122.4C15.8 117.8 12.3 108.9 12.3 108.9C7.2 107 0 102.1 0 102.1C0 102.1 4.7 99.5 8.9 98.8C7.4 90.1 9.4 78.3 9.4 78.3C9.4 78.3 10.8 89 16 97.2C22.4 95.9 27.8 95.4 27.8 95.4C27.8 95.4 24.4 100.2 22.6 105.5C26.6 109.5 33.9 113.6 36.7 114.6C30.6 114.3 23.7 113.1 21.1 112.1C21 115.8 21.1 119.7 21.8 122.4ZM38.1 71.9C34.6 64.5 32.3 54.8 32.3 54.8C32.3 54.8 23.7 60.1 10.7 72.8C18.3 57.8 27.3 48.3 27.3 48.3C27.3 48.3 23.9 44.9 11.7 43.8C23.5 39.6 36.5 41 36.5 41C36.5 41 42.3 36.1 51.9 33.3C51.9 33.3 49.4 36.7 47.5 42C61.2 43.5 73.9 51.5 73.9 51.5C73.9 51.5 52.8 48.2 43.8 51C40.6 58.7 38.8 67 38.1 71.9ZM68.7 114.5C68.8 116.9 69.7 119.3 69.7 119.3C69.7 119.3 67.8 119.5 62.6 119.7C55.2 124 46.1 125.6 46.1 125.6C46.1 125.6 51.9 121.8 54.8 118.8C50.2 118.1 46.1 116 46.1 116C46.1 116 53.9 115.5 59.6 114.1C62.3 111.4 67.3 104.3 67.3 104.3C67.3 104.3 67.6 108.3 68.1 110.9C74.7 107.7 80.2 103.6 80.2 103.6C80.2 103.6 75.3 109.6 68.7 114.5ZM120.8 20.3C121.4 31.6 119 45.1 115 55.7C115 48.7 114.3 35.9 110.1 27.2C106.8 29.5 98.3 33.7 86.4 39.8C88.2 38 96.1 28.6 98.4 24.6C90.1 24.7 75.8 25.7 63.9 28.4C71.8 24 87.3 18.9 99.9 16.7C94.4 12 84.1 6.30002 76.2 2.40002C82.6 2.60002 107 7.20003 115.3 13.6C120.8 12.3 128 12.1 128 12.1C126.3 15.6 124 18.2 120.8 20.3Z" fill="white"/>
</svg>
