<svg width="128" height="128" viewBox="0 0 128 128" fill="none" xmlns="http://www.w3.org/2000/svg">
<path opacity="0.7" d="M44.6 45.7C39.7 47.8 18.4 57.3 10.4 61.9C6.9 60.5 4 59.5 0 58C16.6 48.5 34.6 43 34.9 42.5C38.3 43.5 41.1 44.9 44.6 45.7Z" fill="white"/>
<path opacity="0.7" d="M60.6 52.4C55.7 54.5 34.2 64.8 26.3 69.5C22.6 67.6 19 65.8 15.2 64.3C31.8 54.6 49 48.2 49.3 47.8C52.4 49 57.2 51 60.6 52.4Z" fill="white"/>
<path d="M112.2 48.7C107.3 50.8 73.6 61.7 41.7 82.9C37.7 80.4 31.1 76.7 27.2 75.4C43.8 65.7 65.7 51.2 99.2 42.6C104.3 44.8 107.7 46.7 112.2 48.7Z" fill="white"/>
<path d="M128 57.5C123.1 59.6 82.2 79.1 62.4 96.4C58.8 94.3 50.9 88.3 47.2 86.4C63.1 76.1 83.2999 61.3 116.4 51.3C121.5 53.5 123.9 55.2 128 57.5Z" fill="white"/>
<path d="M44.8 35.4C53.5 38.2 66.3 42.7 74.6 46.9C72 48.3 68.4 49.3 65.2 50.6C44 41.7 35.4 39.1 35 38.8C37 38 43.2 36 44.8 35.4Z" fill="white"/>
<path d="M60.3 31.5C69 34.3 82.3 38.1 90.7 42.4C87.9 43.1 83.8 43.9 80.5 45.3C59.3 36.4 51.5 34.1 51.1 33.8C53 33 58.7 32 60.3 31.5Z" fill="white"/>
</svg>
