<svg width="128" height="128" viewBox="0 0 128 128" fill="none" xmlns="http://www.w3.org/2000/svg">
<path d="M98.4 43.7L98.1 43.9L97.5 44.1L96.8 44.3H96.2L95.7 44.2L95.1 44L94.7 43.8L94.5 43.7L94.7 44.5L95.2 46L95.8 47.5L96.6 49.1L97.5 50.5L98.5 51.7L99.5 52.5L100.3 53L101.1 53.2H101.9L102.7 53.1L103.2 52.9L103.7 52.7L103.9 52.5L128 39.3V27.6L98.4 43.7Z" fill="white"/>
<path d="M108.8 55.9L100 60.7999L98.6 61.5L86.4 35.4H68.5L43 82.3L43.9 82.1999L44.9 82L47.1 81.6999L49.5 81.1999L52 80.6999L54.4 80L57 79.1999L59.5 78.3L61.4 77.6999L62.2 77.3L63 76.9L63.6 76.3L64.3 75.5999L64.7 74.8L76.9 49.2999L84.8 68.9L84.7 69L78.2 72.3L72.3 75.1999L67 77.5999L62.1 79.6999L57.3 81.4L52.6 83L48.1 84.3L43.5 85.4L39.1 86.3L34.9 87L31 87.5999L27.5 87.9L24.3 88.0999L21.7 88.3L19.4 88.1999L15.9 87.8L13.5 87.1999L11.8 86.5L10.4 85.5999L9.2 84.5L8.4 83.1999L7.8 81.8L7.7 80.1999L7.8 78.1999L8.5 76L9.7 73.5L11.2 71L13 68.5999L15.2 66.1999L17.3 64L19.5 62L21.9 60.2L24.6 58.0999L27.4 56.2999L30 54.7L32.8 53.0999L35.7 51.7L38.5 50.4L41.4 49.2L44.2 48.2999L46.8 47.5L49.1 47L51.2 46.5999L53.3 46.5L55.5 46.7L56.7 46.9L56.1 44.7L55 41L54.2 38.5L53.5 36.9L53 36.0999L52.5 35.5999L51.9 35.2L51 34.9L49.6 34.7L47.6 34.7999L45.1 35.0999L42.2 35.7L39.2 36.5999L36.1 37.7L33.1 39L30.3 40.2999L27.5 41.7999L24.8 43.2999L22 45L19.2 47L16.3 49L13.8 51L11.6 52.7999L9.7 54.7L7.7 56.7L6 58.7999L4.3 61.0999L2.9 63.4L1.7 65.9L0.8 68.4L0.2 70.9L0 73.3L0.2 76L0.7 78.6999L1.4 81.5L2.4 84.0999L3.5 86.5L4.8 88.5999L6.4 90.6999L8.2 92.5999L10.1 94.1999L12.2 95.5999L14.5 96.8L17.2 97.6999L20.4 98.5999L23.9 99.3L27.5 99.5999L31 99.7L34.4 99.5L37.4 99.3L40.3 98.8999L43.2 98.4L46.1 97.8L48.9 97.0999L51.5 96.5L54.4 95.5999L57.3 94.8L60.2 93.9L63.1 92.8L66.1 91.6999L69 90.5L72 89.3L75 87.8L78.2 86.3L80 85.3L82.4 84L85.7 82.3L89.3 80.3L96.4 97.8L96.6 98.4L96.9 98.8999L97.3 99.3L97.8 99.7L98.4 100L98.9 100.2L99.6 100.4H100.2H116.7L103.7 72.4L105.9 71.1999L116.4 65.3L128 58.9V45L118.2 50.5999L108.8 55.9Z" fill="white"/>
</svg>
