<svg width="128" height="128" viewBox="0 0 128 128" fill="none" xmlns="http://www.w3.org/2000/svg">
<path d="M37.8 88.5C34.9 92.2 30.4 94.5 25.4 94.5C16.7 94.5 9.6 87.4 9.6 78.7C9.6 70 16.7 62.9 25.4 62.9C30.1 62.9 34.4 65 37.3 68.3L43.2 60.8C38.6 56.2 32.3 53.4 25.4 53.4C11.3 53.4 0 64.7 0 78.7C0 92.7 11.3 104 25.3 104C32.3 104 38.6 101.2 43.2 96.6L37.8 88.5Z" fill="white"/>
<path d="M59 54.4H48.3V103.5H59V54.4Z" fill="white"/>
<path d="M117.3 54.6H106.6V103.7H117.3V54.6Z" fill="white"/>
<path d="M88.3 104C79.1 104 76.9 96.2 76.7 91.7H76.6V63.7H67.2V54.7H76.6V45.2L86.1 39.4L85.8 46.7V54.7H95.4V63.7H85.8V88.6C85.7 88.9 85.7 89.3 85.7 89.7C85.7 90.1 85.7 90.4 85.8 90.8V91.4C86.2 93.6 87.6 95.4 89.6 96.2C90.4 96.5 91.2 96.7 92.1 96.7C94.1 96.7 95.9 95.8 97.1 94.4C97.4 94.1 97.6 93.7 97.8 93.4C97.9 93.1 98.1 104 88.3 104Z" fill="white"/>
<path d="M85.9 88.5V90.6C85.8 90.3 85.8 89.9 85.8 89.5C85.8 89.2 85.8 88.8 85.9 88.5Z" fill="white"/>
<path d="M84.5 23.9C66.4 23.9 50.3 33.1 41 47.1H56.1C63.4 40 73.4 35.5 84.4 35.5C95.4 35.5 105.4 39.9 112.7 47.1H128C118.7 33.3 102.7 23.9 84.5 23.9Z" fill="white"/>
</svg>
