<svg width="128" height="128" viewBox="0 0 128 128" fill="none" xmlns="http://www.w3.org/2000/svg">
<g clip-path="url(#clip0_1_47)">
<path d="M6.60002 92.3C6.60002 86.2 6.70002 80.2 6.60002 74.1C6.60002 72.1 7.30002 71.6 9.10002 71.6C12.5 71.7 15.9 71.6 19.3 71.7C21.3 71.8 21.8 71 21.8 69.1C21.7 65.3 21.7 61.5 21.8 57.7C21.8 56 21.3 55.2 19.5 55.3C15.9 55.4 12.4 55.3 8.80002 55.4C7.20002 55.4 6.70002 54.9 6.70002 53.3C6.80002 46.2 6.80002 39.1 6.70002 31.9C6.70002 30.2 7.60002 29.5 8.80002 28.7C23.5 20.1 38.3 11.6 53 2.99999C53.3 2.79999 53.6 2.69999 53.8 2.49999C58.1 -1.50001 61.8 -0.400007 66.5 2.69999C83.8 14 101.5 24.9 119 35.8C120.7 36.9 121.4 38 121.4 40.1C121.3 50.9 121.3 61.8 121.4 72.6C121.4 74.6 120.8 75.3 118.8 75.2C115.2 75.1 111.7 75.2 108.1 75.1C106.5 75.1 105.7 75.5 105.8 77.3C105.9 81.3 105.9 85.2 105.8 89.2C105.8 90.9 106.4 91.5 108.1 91.5C111.7 91.4 115.2 91.5 118.8 91.5C120.3 91.5 121 91.9 120.9 93.6C120.8 99.2 120.8 104.8 120.9 110.4C120.9 112.3 120.1 112.9 118.5 113.4C103.9 118 89.3 122.6 74.7 127.4C71.5 128.4 69 128.2 66 127C54.8 122.5 43.6 118.2 32.4 113.8C31.2 113.3 29.9 113.1 28.6 113.1C22.1 113 15.6 113 9.20002 113.1C6.90002 113.2 6.30002 112.3 6.40002 110.2C6.70002 104.2 6.60002 98.2 6.60002 92.3ZM15.6 40.7C16.7 40.4 17.6 40.2 18.5 39.9C29.6 36.2 40.7 32.6 51.8 28.7C54.4 27.8 56.4 28.1 58.6 29.6C65 34.2 71.6 38.6 78.2 43C80.4 44.5 80.9 46.4 79.5 48.8C77.9 51.6 76.1 52.2 73.5 50.7C70.8 49.1 68.2 47.3 65.5 45.6C62.5 43.7 60.4 44.3 58.2 47.5C56.2 50.4 56.5 52.5 59.4 54.5C66.2 59.3 73.1 64 80 68.6C80.9 69.2 82.2 69.6 83.4 69.6C92.3 69.7 101.2 69.6 110.1 69.7C112 69.7 112.8 69.3 112.8 67.2C112.7 59.4 112.7 51.5 112.8 43.7C112.8 42.2 112.3 41.4 111.1 40.6C94.4 30.7 77.6 20.7 60.9 10.7C59.3 9.69999 58 9.79999 56.5 10.7C43.9 18.1 31.3 25.5 18.7 32.9C14.7 35 14.4 35.8 15.6 40.7ZM83.7 98C74.7 98 65.7 98 56.7 98C53.8 98 52.3 96.2 52.3 93.1C52.4 90.2 53.5 89.1 56.5 89.1C60.8 89.1 65.1 89.2 69.4 89C72.6 88.9 74.1 87.1 74.1 83.8C74.1 80.9 71.9 78.6 69.1 78.6C51.9 78.6 34.6 78.6 17.4 78.6C15.7 78.6 15.1 79.1 15.1 80.8C15.2 88.3 15.2 95.9 15.1 103.4C15.1 105.2 15.7 105.8 17.5 105.8C23.2 105.7 29 105.7 34.7 105.8C36 105.8 37.3 106 38.5 106.5C48.3 110.3 58.1 114.1 67.8 118C69.8 118.8 71.4 118.8 73.4 118.2C85.6 114.1 97.9 110.1 110.2 106.1C112.4 105.4 113.5 104.4 113.1 102C113 101.5 113 101 113.1 100.5C113.3 98.6 112.6 98 110.7 98C101.6 98.1 92.6 98 83.7 98Z" fill="white"/>
</g>
<defs>
<clipPath id="clip0_1_47">
<rect width="128" height="128" fill="white"/>
</clipPath>
</defs>
</svg>
