<svg width="128" height="128" viewBox="0 0 128 128" fill="none" xmlns="http://www.w3.org/2000/svg">
<g clip-path="url(#clip0_1_106)">
<path d="M111.5 21.1C103.4 12.1 92.7 5.50001 81 2.30001C73.4 0.200008 65.4 -0.399992 57.5 0.400008C44.3 1.60001 31.6 7.10001 21.7 15.9C13.4 23.2 7.10002 32.7 3.40002 43.2C-0.799983 55.5 -1.19998 69 2.40002 81.5C5.40002 92.3 11.4 102.3 19.5 110.1C27.6 118 37.9 123.7 48.9 126.3C64.2 130.1 80.9 128 94.8 120.3C105.9 114.2 115.2 104.8 120.9 93.6C127.7 80.6 129.7 65.3 126.7 50.9C124.3 39.7 119 29.4 111.5 21.1ZM65.3 110.3C59 112.7 51.7 113.2 45.5 110.1C40.8 107.8 37.6 103.2 36.4 98.3C34.6 91.2 35.8 83.7 38.2 76.9C39.3 73.8 40.7 70.9 42.2 68C36.8 73.4 31.5 78.9 26.2 84.4C34.1 73.6 42.6 63.1 52 53.5C57 48.7 62 44 67.2 39.5C69 37.9 70.8 36.4 72.8 35.1C69.2 39.7 66.2 44.6 63.5 49.7C60.1 56.1 57 62.8 55 69.8C53 76.9 51.8 84.7 54.5 91.8C56.1 95.6 58.9 99.5 63.2 100.5C70.9 102.4 79.3 100.4 85.5 95.6C80 101.8 73.2 107.2 65.3 110.3ZM86.5 35.2C84.9 34.4 83.4 33.7 81.8 32.9C80.3 33.8 78.7 34.6 77.2 35.4C77.5 33.7 77.7 32 78 30.2C76.7 29 75.4 27.8 74.1 26.6C75.8 26.3 77.5 26 79.3 25.7C80 24.1 80.8 22.5 81.5 20.9C82.3 22.4 83.1 24 83.9 25.6C85.6 25.8 87.4 26.1 89.2 26.3C87.9 27.5 86.8 28.8 85.5 30.1C85.9 31.7 86.2 33.4 86.5 35.2Z" fill="white"/>
</g>
<defs>
<clipPath id="clip0_1_106">
<rect width="128" height="128" fill="white"/>
</clipPath>
</defs>
</svg>
