<svg width="128" height="128" viewBox="0 0 128 128" fill="none" xmlns="http://www.w3.org/2000/svg">
<g clip-path="url(#clip0_1_108)">
<path d="M61 0H67.1C82.9 0.9 98.4 7.6 109.5 19C119.6 29.2 126.1 42.8 127.6 57C129.1 70.7 126.1 84.8 119 96.7C111.6 109.2 99.9 119 86.3 124C72.2 129.3 56.3 129.3 42.2 124.2C28 119.1 15.7 108.7 8.29999 95.4C1.29999 83.3 -1.30001 68.8 0.599986 54.9C2.79999 39 11.4 24.1 24 14C34.4 5.6 47.6 0.7 61 0ZM56.8 10.4C39.7 12.5 24.1 23.5 16.1 38.8C9.69999 50.8 8.19999 65.2 11.8 78.2C15.4 91.4 24.2 103.1 35.9 110.2C46.8 116.9 60.1 119.4 72.7 117.3C88 115 101.9 105.6 110 92.5C116.7 81.7 119.4 68.6 117.5 56C115.5 42 107.6 29 96.3 20.7C85.1 12.2 70.6 8.5 56.8 10.4ZM29.7 59.1C36.2 59.1 42.8 59.1 49.3 59.1C49.3 62.4 49.3 65.6 49.3 68.9C42.8 68.9 36.2 68.9 29.7 68.9C29.7 78.8 29.7 88.6 29.7 98.5C40.4 98.5 51 98.5 61.7 98.5C61.7 95.2 61.7 91.9 61.7 88.6C54.3 88.6 47 88.6 39.6 88.6C39.6 85.3 39.6 82 39.6 78.7C46.1 78.7 52.7 78.7 59.2 78.7C59.2 68.9 59.2 59 59.2 49.2C52.7 49.2 46.1 49.2 39.6 49.2C39.6 45.9 39.6 42.6 39.6 39.4C47 39.4 54.3 39.4 61.7 39.4C61.7 36.1 61.7 32.8 61.7 29.5C51 29.5 40.4 29.5 29.7 29.5C29.7 39.4 29.7 49.2 29.7 59.1ZM66.6 29.6C66.6 32.9 66.6 36.1 66.6 39.4C74 39.4 81.3 39.4 88.7 39.4C88.7 42.7 88.7 46 88.7 49.3C82.2 49.3 75.6 49.3 69.1 49.3C69.1 59.2 69.1 69 69.1 78.9C75.6 78.9 82.2 78.9 88.7 78.9C88.7 82.2 88.7 85.4 88.7 88.7C81.3 88.7 74 88.7 66.6 88.7C66.6 92 66.6 95.3 66.6 98.6C77.2 98.6 87.9 98.6 98.5 98.6C98.5 88.8 98.5 78.9 98.5 69.1C92 69.1 85.4 69.1 78.9 69.1C78.9 65.8 78.9 62.5 78.9 59.2C85.4 59.2 92 59.2 98.5 59.2C98.5 49.4 98.5 39.5 98.5 29.7C87.9 29.6 77.2 29.6 66.6 29.6Z" fill="white"/>
</g>
<defs>
<clipPath id="clip0_1_108">
<rect width="128" height="128" fill="white"/>
</clipPath>
</defs>
</svg>
