<svg width="128" height="128" viewBox="0 0 128 128" fill="none" xmlns="http://www.w3.org/2000/svg">
<path d="M94.2 95C91.5 93.6 88.6 92.2 84.3 92.2C80.5 92.2 77.4 93.6 74.5 95C71.4 96.4 68.2 97.9 63.9 97.9C60.1 97.9 57.3 96.6 54.3 95.2C51.2 93.8 48 92.3 43.6 92.3C39.8 92.3 36.7 93.7 33.7 95C30.6 96.4 27.3 97.9 23.1 97.9C22.9 97.9 22.6 97.9 22.4 97.9C22.8 98.4 23.3 99 23.7 99.5C28 99.4 31.2 97.9 34.3 96.5C37.3 95.2 40 93.9 43.5 93.9C47.5 93.9 50.4 95.3 53.5 96.7C56.5 98.1 59.7 99.6 63.8 99.6C68.4 99.6 71.8 98 75.1 96.5C78 95.2 80.8 93.9 84.3 93.9C88.2 93.9 90.8 95.2 93.5 96.6C96.4 98.1 99.5 99.6 104.5 99.6C105 99.1 105.4 98.5 105.9 97.9C105.5 97.9 105 98 104.6 98C99.9 97.8 97 96.4 94.2 95Z" fill="white"/>
<path d="M84.3 95.2C80.5 95.2 77.4 96.6 74.5 98C71.4 99.4 68.2 100.9 63.9 100.9C60.1 100.9 57.3 99.6 54.3 98.2C51.2 96.8 48 95.3 43.6 95.3C39.8 95.3 36.7 96.7 33.7 98C31.1 99.2 28.3 100.4 25 100.8C25.5 101.3 25.9 101.8 26.4 102.2C29.5 101.7 32 100.6 34.4 99.5C37.4 98.2 40.1 96.9 43.6 96.9C47.6 96.9 50.5 98.3 53.6 99.7C56.6 101.1 59.8 102.6 63.9 102.6C68.5 102.6 71.9 101 75.2 99.5C78.1 98.1 80.9 96.9 84.4 96.9C88.3 96.9 90.9 98.2 93.6 99.6C96 100.8 98.4 102 101.9 102.5C102.4 102 102.9 101.5 103.3 101C99.4 100.8 96.8 99.4 94.3 98.2C91.4 96.6 88.6 95.2 84.3 95.2Z" fill="white"/>
<path d="M84.3 98.2C80.5 98.2 77.4 99.6 74.5 101C71.4 102.4 68.2 103.9 63.9 103.9C60.1 103.9 57.3 102.6 54.3 101.2C51.2 99.8 48 98.3 43.6 98.3C39.8 98.3 36.7 99.7 33.7 101C31.8 101.9 29.8 102.8 27.5 103.3C28 103.7 28.4 104.2 28.9 104.6C30.8 104 32.6 103.2 34.3 102.5C37.3 101.2 40 99.9 43.5 99.9C47.5 99.9 50.4 101.3 53.5 102.7C56.5 104.1 59.7 105.6 63.8 105.6C68.4 105.6 71.8 104 75.1 102.5C78 101.2 80.8 99.9 84.3 99.9C88.2 99.9 90.8 101.2 93.5 102.5C95.2 103.4 96.9 104.2 99.1 104.8C99.6 104.4 100.1 103.9 100.6 103.5C98.1 103 96.2 102 94.3 101C91.4 99.7 88.6 98.2 84.3 98.2Z" fill="white"/>
<path d="M84.3 101.3C80.5 101.3 77.4 102.7 74.5 104.1C71.4 105.5 68.2 107 63.9 107C60.1 107 57.3 105.7 54.3 104.3C51.2 102.9 48 101.4 43.6 101.4C39.8 101.4 36.7 102.8 33.7 104.1C32.5 104.6 31.4 105.2 30.1 105.6C30.6 106 31.1 106.4 31.6 106.8C32.6 106.4 33.5 106 34.4 105.6C37.4 104.3 40.1 103 43.6 103C47.6 103 50.5 104.4 53.6 105.8C56.6 107.2 59.8 108.7 63.9 108.7C68.5 108.7 71.9 107.1 75.2 105.6C78.1 104.2 80.9 103 84.4 103C88.3 103 90.9 104.3 93.6 105.7C94.5 106.2 95.5 106.7 96.5 107.1C97 106.7 97.5 106.3 98 105.9C96.7 105.4 95.5 104.8 94.3 104.2C91.4 102.7 88.6 101.3 84.3 101.3Z" fill="white"/>
<path d="M84.3001 104.3C80.5001 104.3 77.4001 105.7 74.5001 107.1C71.4001 108.5 68.2001 110 63.9001 110C60.1001 110 57.3001 108.7 54.3001 107.3C51.2001 105.8 48.0001 104.4 43.6001 104.4C39.8001 104.4 36.7001 105.8 33.7001 107.1C33.4001 107.3 33.0001 107.4 32.7001 107.6C33.2001 108 33.7001 108.3 34.2001 108.7C34.3001 108.7 34.3001 108.7 34.4001 108.6C37.4001 107.3 40.1001 106 43.6001 106C47.6001 106 50.5001 107.4 53.6001 108.8C56.6001 110.2 59.8001 111.7 63.9001 111.7C68.5001 111.7 71.9001 110.1 75.2001 108.6C78.1001 107.2 80.9001 106 84.4001 106C88.3001 106 90.9001 107.3 93.6001 108.7C93.7001 108.8 93.8001 108.8 94.0001 108.9C94.5001 108.6 95.0001 108.2 95.5001 107.9C95.1001 107.7 94.7001 107.5 94.4001 107.3C91.4001 105.8 88.6001 104.3 84.3001 104.3Z" fill="white"/>
<path d="M74.3001 110.1C71.2001 111.5 68.0001 113 63.7001 113C59.9001 113 57.1001 111.7 54.1001 110.3C51.0001 108.9 47.8001 107.4 43.4001 107.4C40.3001 107.4 37.7001 108.3 35.2001 109.4C35.8001 109.8 36.3001 110.1 36.9001 110.4C38.9001 109.6 41.0001 109 43.4001 109C47.4001 109 50.3001 110.4 53.4001 111.8C56.4001 113.2 59.6001 114.7 63.7001 114.7C68.3001 114.7 71.7001 113.1 75.0001 111.6C77.9001 110.3 80.7001 109 84.2001 109C87.0001 109 89.1001 109.6 91.0001 110.5C91.6001 110.2 92.1001 109.8 92.6001 109.5C90.3001 108.4 87.7001 107.4 84.2001 107.4C80.5001 107.4 77.3001 108.8 74.3001 110.1Z" fill="white"/>
<path d="M64 0C28.7 0 0 28.7 0 64C0 99.3 28.7 128 64 128C99.3 128 128 99.3 128 64C128 28.7 99.3 0 64 0ZM64 117.8C34.3 117.8 10.2 93.7 10.2 64C10.2 34.3 34.3 10.2 64 10.2C93.7 10.2 117.8 34.3 117.8 64C117.8 93.7 93.7 117.8 64 117.8Z" fill="white"/>
<path d="M93.9 48.2C93.5 50.2 91.5 52.3 90.4 53.2C87.9 55.2 71.3 65.3 69.4 67.6C67.5 69.9 67.2 73.4 67.2 76V95.5H69.8C69.8 93.8 69.8 90.9 69.8 90.5C69.8 88.8 70.8 86.1 72.8 84C76.2 80.4 84.1 76 89.4 72.2C93.7 69 94 64.7 94 61C94 57.9 94 49.3 94 47.7L93.9 48.2Z" fill="white"/>
<path d="M67.2999 66.4C69.0999 64.1 86.2999 53.7 88.6999 51.7C91.0999 49.7 93.9999 46.7 93.9999 42.8C93.9999 39.5 93.9999 23.3 93.9999 21C93.9999 24.1 92.2999 26.4 90.0999 29.3C87.5999 32.6 76.0999 38.8 70.3999 42.8C64.6999 46.8 62.7999 50.7 62.7999 55.6C62.7999 59.7 62.7999 86.7 62.7999 95.4H65.2999C65.2999 89.7 65.2999 76.6 65.2999 74.6C65.1999 72 65.3999 68.7 67.2999 66.4Z" fill="white"/>
<path d="M54.2999 43.8C49.0999 39.8 38.5 31.3 37.2 29.6C35.9 27.9 33.2 24.9 33.2 21.2C33.2 23.9 33.2 39 33.2 41.5C33.2 44.4 34.5999 49.6 39.5999 53.3C44.5999 57 51.7 62.3 53.9 64.5C56 66.6 58 70.5 58 76C58 80 58 90.7 58 95.6H60.5C60.5 87.2 60.5 61.8 60.5 56.7C60.7 50.3 59.4999 47.8 54.2999 43.8Z" fill="white"/>
</svg>
