<svg width="128" height="128" viewBox="0 0 128 128" fill="none" xmlns="http://www.w3.org/2000/svg">
<g clip-path="url(#clip0_1_134)">
<path d="M88.5827 100.504C88.5827 100.504 89.3328 99.2543 89.7078 101.004C89.7078 101.004 90.4577 111.129 84.5827 117.379C80.5827 121.504 71.3328 127.379 60.9578 124.754C60.9578 124.754 77.5827 123.629 81.8327 107.129L82.3327 105.254C82.0827 105.254 86.2077 104.129 88.5827 100.504ZM126.458 49.5044C126.458 49.2544 126.458 49.1294 126.333 48.8794C126.333 48.8794 126.083 47.8794 125.458 46.1294C125.333 45.8794 125.208 45.6293 125.208 45.3793C125.208 45.2543 125.083 45.1294 125.083 45.1294C123.958 42.5044 121.833 38.7544 118.208 35.1294C118.208 35.1294 122.083 34.8794 117.833 30.1294C117.833 30.1294 110.833 21.8794 97.2078 15.5044C89.9578 12.1294 81.7077 13.5043 82.4577 21.6293C82.9577 27.2543 77.7077 29.5044 73.5827 29.0044C68.7077 28.3794 65.7078 24.3794 66.5828 21.1294C67.4578 17.6294 69.2078 14.8794 71.9578 12.7544C73.8328 11.2544 75.0828 10.2544 78.4578 9.62937C80.4578 9.25437 83.2077 8.50437 83.9577 10.8794C85.3327 10.1294 87.8328 5.37934 79.7078 5.37934C79.7078 5.37934 78.4578 2.75437 75.7078 3.25437C75.7078 3.25437 67.5828 -4.74563 58.4578 5.12937C58.4578 5.12937 54.9578 6.50437 54.7078 5.12937C55.4578 5.75437 56.8328 3.87936 55.0828 3.12936C54.2078 2.75436 53.2077 3.75437 53.0827 4.50437C52.9577 5.12937 53.2077 6.62936 54.9577 6.87936C55.4577 7.00436 56.3328 6.87936 56.3328 6.87936L55.7078 7.62937C52.9578 8.75437 50.4577 7.87934 49.9577 6.00434C50.5827 6.37934 51.3327 5.87937 51.4577 5.25437C51.7077 4.50437 51.2078 3.50437 50.0828 3.37937C48.5828 3.12937 47.9578 4.87937 48.2078 6.37937C48.7078 8.75437 50.9577 10.3794 53.9577 9.87935L53.4578 10.6294C53.4578 10.6294 50.4577 14.3794 48.0827 18.6294C45.5827 22.8794 35.4577 27.6294 37.2077 17.3794C37.7077 14.1294 32.3328 10.2544 22.7078 16.7544C17.7078 20.2544 11.4577 25.5044 6.70774 34.0044C6.70774 34.0044 4.70775 37.2544 8.08275 37.3794C8.08275 37.3794 1.20776 40.6294 0.832764 56.2544C0.832764 56.2544 0.832764 56.8794 0.832764 57.7544C0.832764 58.2544 0.832764 58.8794 0.832764 59.3794C0.832764 61.1294 0.957741 63.1294 1.08274 64.2544C1.08274 64.2544 1.83273 73.6294 3.45773 75.2544C3.45773 75.2544 3.58275 75.2544 3.70775 75.2544C4.20775 75.6294 4.83276 75.7544 5.70776 74.8794C5.70776 75.0044 7.83276 85.5044 12.0828 94.3794C15.5828 101.379 21.9578 111.629 19.4578 114.129C16.9578 116.629 13.4578 111.629 13.9578 113.629C15.0828 117.754 19.4577 118.379 21.7077 116.629C27.7077 111.879 18.9577 100.504 16.2077 86.1294C21.9577 83.6294 21.7077 74.6294 21.7077 74.6294C21.7077 74.6294 29.8327 74.3793 32.3327 64.7543C32.3327 64.7543 42.2078 67.6294 46.9578 59.0044C46.9578 59.0044 46.9578 59.0044 46.9578 58.8794L47.0827 58.7544C48.0827 61.7544 49.9578 64.3794 52.5828 66.7544C52.5828 66.7544 52.0827 70.8794 47.4577 72.3794C47.4577 72.3794 41.8327 70.0044 35.5827 72.3794C29.9577 74.6294 32.2078 80.6293 36.3328 79.1293C35.0828 78.5043 34.7077 76.5043 36.7077 76.0043C37.2077 76.3793 37.7078 76.6294 38.3328 76.7544C38.4578 76.7544 43.3327 77.6294 46.8327 76.2544C47.0827 76.1294 47.3328 76.1294 47.5828 75.8794H47.7077C48.0827 75.6294 48.3327 75.3794 48.5827 75.1294C49.8327 75.2544 50.7077 77.1294 48.9577 78.0044C52.3327 78.7544 53.5828 75.1294 52.2078 73.2544C52.2078 73.2544 52.9577 72.7544 53.9577 72.0044C53.9577 72.0044 55.0827 71.0043 55.8327 69.7543C55.8327 69.7543 59.2078 72.3794 65.3328 73.8794C65.3328 73.8794 62.0827 79.2544 57.3327 80.2544C57.3327 80.2544 50.5828 78.0044 45.9578 80.8794C45.9578 80.8794 43.4578 82.2544 43.8328 84.8794C44.0828 86.8794 45.8328 88.3794 48.2078 88.0044C47.2078 87.5044 44.9578 85.0044 47.8328 83.8794C48.3328 84.6294 48.9577 85.1294 49.8327 85.2544C49.8327 85.2544 54.0827 86.2544 59.3327 84.0044C59.5827 83.8794 59.7077 83.8794 59.9577 83.7544C59.9577 83.7544 60.0827 83.7544 60.2077 83.6294C60.5827 83.3794 60.8328 83.1293 60.9578 82.8793C62.3328 82.6293 64.2078 83.2544 63.4578 85.8794C65.0828 85.6294 67.7078 82.7543 63.8328 80.3793C63.8328 80.3793 66.0827 79.2544 67.9577 77.6294L70.7078 74.8794C76.0828 75.6294 80.0828 80.7544 80.0828 87.0044C80.0828 92.1294 75.7077 98.1294 71.0827 99.3794C71.2077 99.3794 71.4578 99.2544 71.5828 99.2544L70.9578 99.3794H71.0827C70.3327 99.5044 69.5827 99.6294 68.5827 99.6294C63.8327 99.5044 66.7077 94.0044 66.7077 94.0044C65.9577 93.8794 65.2077 94.1294 64.5827 94.8794C63.8327 95.7544 63.5828 97.3793 63.8328 99.1293C63.5828 99.0043 63.3328 99.0044 63.2078 98.8794C59.0828 97.1294 59.3327 94.0044 59.3327 94.0044C58.2077 94.5044 57.4578 95.8794 57.8328 98.2544C58.4578 101.379 62.4578 102.754 65.7078 103.129C67.5828 105.004 70.5827 106.879 77.4577 105.754C77.4577 105.754 74.4577 121.754 54.2077 121.004C54.2077 121.004 48.0827 118.754 48.3327 113.629C48.5827 106.754 53.3327 104.379 53.3327 104.379C51.5827 104.129 47.3327 104.629 45.4577 110.254C44.5827 112.754 44.8327 117.004 47.0827 119.879C39.4577 117.879 33.7077 112.129 36.0827 104.129C36.4577 102.879 37.2078 101.629 38.2078 100.504C43.9578 95.1294 52.4577 98.3794 52.4577 98.3794C52.0827 96.5044 49.7077 94.0044 45.4577 93.7544C41.0827 93.5044 32.7078 96.1294 32.0828 106.254C31.4578 115.504 37.3328 122.254 51.9578 124.379L52.2078 124.504C52.2078 124.504 61.0827 130.754 73.5827 127.379C73.5827 127.379 98.8328 122.254 93.4578 93.3794C93.4578 93.3794 99.3328 74.1294 86.9578 63.2544C94.5828 69.5044 103.958 65.8794 103.958 65.8794C103.333 83.3794 110.708 85.6294 110.708 85.6294L110.958 85.5044C110.958 85.5044 97.0827 115.379 105.208 119.254C107.958 120.504 111.208 119.879 112.833 116.379C114.208 113.504 109.833 119.129 107.333 116.754C104.333 113.754 108.083 106.629 111.708 99.0044C116.833 88.7544 120.208 81.1293 120.833 76.0043C120.833 76.0043 121.583 76.5044 122.458 76.1294L122.583 76.2544C124.583 75.7544 125.833 67.5044 126.083 66.1294C127.708 58.7544 127.208 53.1294 126.458 49.5044Z" fill="white"/>
</g>
<defs>
<clipPath id="clip0_1_134">
<rect width="128" height="128" fill="white"/>
</clipPath>
</defs>
</svg>
