<svg width="128" height="128" viewBox="0 0 128 128" fill="none" xmlns="http://www.w3.org/2000/svg">
<path d="M9.69995 78.7C9.69995 78.7 64 61 128 83.2C128 83.2 76.2 72.5 9.69995 78.7Z" fill="white"/>
<path d="M0 66.8H2.9L4.5 50.2L11.9 67H12.5L20 49.9L21.5 66.9H28.1L25.8 44.9H19.1L14.3 56.6L9.1 44.8H0.3V45.6C0.3 45.6 2.4 45.3 2.1 48.1L0 66.8Z" fill="white"/>
<path d="M30 46.9V47.6C30 47.6 31.9 47.4 31.9 50.1C31.9 52.7 31.9 67.1 31.9 67.1H37.7V46.9H30Z" fill="white"/>
<path d="M40.9001 46.8V51H41.5C41.5 51 41.3 49.3 43.6 49.3H50.3L40.3 66.3V67H59V64.4H48.2001L58.4001 47.5V46.8H40.9001V46.8Z" fill="white"/>
<path d="M59.2999 46.8H67V61.2C67 61.2 66.5 65.1 70.9 65.1H74.4V50C74.4 50 74.7999 47.8 72.5999 47.8V46.9H80.4V55.5H87.8V49.4C87.8 49.4 88.1 47.5 85.9 47.5V46.8H93.5999V66.8H87.5999C87.5999 66.8 87.9 64.9 87.9 63.7V57.8H80V64.2C80 64.2 79.8999 65.5 80.1999 66.8C80.1999 66.8 74.5 67.3 70.9 67.3C67.3 67.3 60.9 67.4 60.9 59.6C60.9 51.8 60.9 50.5 60.9 50.5C60.9 50.5 61.1 47.6 59.2 47.6V46.8H59.2999Z" fill="white"/>
<path d="M107.4 46.4C100.9 46.4 95.6001 51 95.6001 56.7C95.6001 62.4 100.9 67 107.4 67C113.9 67 119.2 62.4 119.2 56.7C119.2 51 113.9 46.4 107.4 46.4ZM107.4 65C104.1 65 101.4 61.4 101.4 57C101.4 52.6 104.1 49 107.4 49C110.7 49 113.3 52.6 113.3 57C113.3 61.4 110.7 65 107.4 65Z" fill="white"/>
</svg>
