<svg width="128" height="128" viewBox="0 0 128 128" fill="none" xmlns="http://www.w3.org/2000/svg">
<path d="M64 45C53.6 45 45.1 53.5 45.1 63.9C45.1 74.3 53.6 82.9 64 82.9C74.4 82.9 82.9 74.4 82.9 64C82.9 53.6 74.4 45 64 45Z" fill="white"/>
<path d="M82.5 18.5C75.9 18.5 69.6 19.9 64 22.5C58.4 19.9 52 18.5 45.5 18.5C20.3 18.5 0 38.8 0 64C0 89.2 20.3 109.5 45.5 109.5C52.1 109.5 58.4 108.1 64 105.5C69.6 108.1 76 109.5 82.5 109.5C107.5 109.5 128 89.2 128 64C128 38.8 107.7 18.5 82.5 18.5ZM64 105C41.3 105 22.9 86.6 22.9 63.9C22.9 41.2 41.3 22.8 64 22.8C86.7 22.8 105.1 41.2 105.1 63.9C105.1 86.6 86.7 105 64 105Z" fill="white"/>
</svg>
