<svg width="128" height="128" viewBox="0 0 128 128" fill="none" xmlns="http://www.w3.org/2000/svg">
<g clip-path="url(#clip0_1_1804)">
<path d="M49.989 47.6168C48.0839 47.6168 46.6994 48.3382 45.8357 49.7811C44.9338 51.3692 44.4856 53.1745 44.5401 55C44.5401 56.9465 44.9719 58.5779 45.8357 59.8942C46.6994 61.2105 48.0729 61.8626 49.9561 61.8504C52.0194 61.8504 53.4342 61.0755 54.2007 59.5256C54.984 57.913 55.379 56.1394 55.3539 54.3467C55.3539 52.6436 55.0766 51.2482 54.5218 50.1606C53.6459 48.4648 52.135 47.6168 49.989 47.6168Z" fill="white"/>
<path d="M100.993 47.7227C98.8029 47.7227 97.3041 48.7932 96.4963 50.9343C96.0204 52.3438 95.8004 53.827 95.8467 55.3139C95.8126 56.5537 96.0338 57.7872 96.4963 58.938C97.3138 60.8431 98.8126 61.7944 100.993 61.792C101.706 61.7989 102.41 61.6372 103.049 61.3201C103.688 61.0029 104.242 60.5394 104.668 59.9672C105.641 58.7506 106.128 56.9429 106.128 54.5438C106.16 53.2532 105.939 51.9688 105.478 50.7628C104.665 48.7336 103.17 47.7202 100.993 47.7227Z" fill="white"/>
<path d="M0 30V74H128.102V30H0ZM24.0146 50.9963C22.7664 52.4562 20.8564 53.1861 18.2847 53.1861H10.2555V63.8613H6.77737V43.3869H10.2591V50.2993H17.1387C18.691 50.2993 19.9501 49.9732 20.9161 49.3212C21.882 48.6691 22.3686 47.517 22.3759 45.865C22.3759 44.0061 21.68 42.7457 20.2883 42.0839C19.2908 41.6846 18.2194 41.5029 17.146 41.5511H6.77737V38.6095H18.2774C20.5547 38.6095 22.3917 39.2433 23.7883 40.511C25.1849 41.7786 25.8844 43.5572 25.8869 45.8467C25.9166 47.735 25.2501 49.5681 24.0146 50.9963ZM39.4891 48.3905C39.3029 48.3577 39.1241 48.3358 38.9745 48.3212C38.8248 48.3066 38.646 48.3212 38.4599 48.3212C36.8735 48.3212 35.6569 48.8224 34.8102 49.8248C33.9752 50.7843 33.5208 52.0165 33.5328 53.2883V63.8723H30.3723V45.4526H33.365V48.6277C33.6095 48.011 34.2117 47.2555 35.1679 46.3686C36.0535 45.5093 37.2405 45.0311 38.4745 45.0365C38.5329 45.0365 38.6314 45.0365 38.7737 45.0365L39.5037 45.1022L39.4891 48.3905ZM56.4526 61.6131C54.9927 63.5474 52.7287 64.5146 49.6606 64.5146C47.0985 64.5146 45.0645 63.663 43.5584 61.9599C42.0523 60.2567 41.3005 57.9574 41.3029 55.062C41.3029 51.972 42.0961 49.5109 43.6825 47.6788C45.2689 45.8467 47.4002 44.9307 50.0766 44.9307C51.1964 44.9041 52.3103 45.0997 53.3539 45.5063C54.3976 45.9128 55.3503 46.5222 56.1569 47.2993C57.8139 48.8783 58.6423 51.2032 58.6423 54.2737C58.6423 57.2299 57.9124 59.6764 56.4526 61.6131ZM88.073 63.8613H84.7883V51.0876C84.7883 49.871 84.4757 49.0292 83.8504 48.562C83.1857 48.0894 82.3846 47.8471 81.5694 47.8723C80.3868 47.8515 79.2422 48.2897 78.3759 49.0949C77.483 49.91 77.0365 51.2676 77.0365 53.1679V63.8759H73.8321V51.8467C73.8321 50.5985 73.6813 49.6873 73.3796 49.1131C72.8978 48.2555 72.0073 47.8248 70.7007 47.8248C69.4833 47.8355 68.3185 48.3229 67.4562 49.1825C66.483 50.0876 65.9964 51.7263 65.9964 54.0985V63.8613H62.8467V45.4526H65.9635V48.0657C66.5473 47.3108 67.2327 46.6403 68 46.073C69.0444 45.3741 70.2763 45.0089 71.5329 45.0255C73.0292 45.0255 74.2312 45.3905 75.1387 46.1204C75.7263 46.6259 76.2034 47.2471 76.5402 47.9453C77.1694 47.0231 78.017 46.2708 79.0073 45.7555C79.9956 45.2643 81.0862 45.0142 82.1898 45.0255C84.7105 45.0255 86.4258 45.9197 87.3358 47.708C87.8224 48.6691 88.0657 49.9635 88.0657 51.5912L88.073 63.8613ZM106.157 62.8613C104.816 63.9449 103.137 64.5236 101.412 64.4963C100.161 64.5382 98.9241 64.2216 97.8467 63.5839C97.1293 63.0972 96.4937 62.4998 95.9635 61.8139V68.4635H92.8175V45.5365H95.8978V47.9781C96.4605 47.2062 97.1638 46.5475 97.9708 46.0365C99.0933 45.3323 100.398 44.9731 101.723 45.0036C102.746 44.9904 103.76 45.1977 104.696 45.6115C105.632 46.0252 106.467 46.6357 107.146 47.4015C108.633 49 109.375 51.2835 109.372 54.2518C109.372 58.264 108.3 61.1338 106.157 62.8613ZM120.19 47.9781H117.197V59.9927C117.197 60.635 117.42 61.0657 117.861 61.2847C118.252 61.4338 118.67 61.4973 119.088 61.4708H119.577C119.752 61.4708 119.956 61.4526 120.19 61.4161V63.8723C119.821 63.9772 119.443 64.0517 119.062 64.0949C118.64 64.1435 118.216 64.1666 117.792 64.1642C116.332 64.1642 115.335 63.7993 114.799 63.0693C114.242 62.2158 113.967 61.2082 114.015 60.1898V47.9781H111.46V45.4526H114.015V40.3139H117.197V45.4526H120.19V47.9781Z" fill="white"/>
<path d="M29.4331 16.2407C29.0565 16.2584 28.6873 16.1233 28.3974 15.8617C28.2619 15.7284 28.1561 15.5635 28.0878 15.3795C28.0194 15.1954 27.9904 14.9969 28.0028 14.7989C27.9918 14.5909 28.0247 14.383 28.099 14.1909C28.1733 13.9989 28.287 13.8278 28.4315 13.6907C28.7877 13.3965 29.2291 13.2504 29.676 13.2788C30.2211 13.2233 30.7649 13.399 31.1936 13.769C31.3548 13.9435 31.4804 14.1529 31.5621 14.3836C31.6438 14.6142 31.6798 14.861 31.6678 15.1078V18.6465L33.0678 14.527H34.058L35.4428 18.6465V13.4642H37.6585V22.041H35.4277V21.8021L33.5496 16.3272L31.6526 21.8185V22.0492H29.4331V16.2407ZM30.0667 15.4168C30.1945 15.2305 30.2636 15.0044 30.2636 14.7721C30.2636 14.5398 30.1945 14.3137 30.0667 14.1274C30.0023 14.0542 29.9244 13.9966 29.8381 13.9583C29.7519 13.9199 29.6591 13.9018 29.5659 13.9049C29.4711 13.9021 29.3767 13.9203 29.2886 13.9586C29.2005 13.9968 29.1206 14.0543 29.0537 14.1274C28.9211 14.3115 28.8491 14.5384 28.8491 14.7721C28.8491 15.0058 28.9211 15.2328 29.0537 15.4168C29.1206 15.4899 29.2005 15.5474 29.2886 15.5856C29.3767 15.6239 29.4711 15.6422 29.5659 15.6393C29.6601 15.6458 29.7546 15.6304 29.8429 15.5942C29.9312 15.558 30.0114 15.5017 30.0781 15.4292L30.0667 15.4168Z" fill="white"/>
<path d="M43.3459 21.6566C43.2015 21.5217 43.0888 21.356 43.0161 21.1715C42.9434 20.987 42.9125 20.7884 42.9256 20.5903C42.92 20.4052 42.9556 20.2212 43.0297 20.0518C43.1038 19.8823 43.2145 19.7318 43.3538 19.6112C43.6473 19.3499 44.0269 19.2085 44.4183 19.2148V18.0216C44.43 17.7628 44.3913 17.5043 44.3044 17.2605C44.2638 17.1708 44.2034 17.0916 44.1278 17.0291C44.0522 16.9666 43.9635 16.9224 43.8684 16.8998C43.5644 16.8217 43.2508 16.7884 42.9374 16.8007C42.5446 16.8007 42.0889 16.8007 41.5743 16.8483C41.0597 16.8958 40.6277 16.9156 40.2977 16.9672V16.2616C40.2758 15.8879 40.3284 15.5136 40.4526 15.1609C40.5767 14.8082 40.7699 14.4842 41.0205 14.2082C41.5036 13.7167 42.3167 13.4709 43.452 13.4709C43.6547 13.4695 43.8572 13.4867 44.0569 13.5224C44.2455 13.5581 44.4222 13.5938 44.5833 13.6334C44.8678 13.7184 45.1625 13.7638 45.4592 13.7682C45.6743 13.7704 45.8882 13.7356 46.0917 13.6651C46.3162 13.5725 46.5214 13.438 46.6966 13.2687L47.3172 14.2399C46.9274 14.5953 46.4206 14.7916 45.8953 14.7909C45.6967 14.7928 45.4983 14.7782 45.3021 14.7473C45.1332 14.7156 44.9447 14.672 44.7365 14.6125C44.3986 14.5038 44.0462 14.4477 43.6916 14.4461C43.4899 14.4449 43.2902 14.486 43.105 14.5667C42.9199 14.6475 42.7534 14.7661 42.616 14.9152C42.4787 15.0642 42.3735 15.2404 42.3071 15.4326C42.2407 15.6248 42.2146 15.8288 42.2303 16.0317C42.7921 16.0317 43.2006 16 43.452 16C44.0756 15.9844 44.6989 16.0402 45.31 16.1664C45.7191 16.2471 46.0858 16.4737 46.3431 16.8047C46.6044 17.2188 46.7282 17.7061 46.6966 18.196V20.2851C46.6966 21.4584 46.0131 22.0451 44.6461 22.0451C44.1808 22.0755 43.7199 21.9378 43.3459 21.6566V21.6566ZM45.0743 21.2245C45.2192 21.0498 45.2922 20.8257 45.2785 20.5982C45.2867 20.4873 45.2729 20.3757 45.2378 20.2702C45.2027 20.1647 45.1471 20.0674 45.0743 19.9838C45.0068 19.9147 44.9259 19.8604 44.8367 19.8242C44.7475 19.7881 44.6519 19.7709 44.5558 19.7737C44.4579 19.7711 44.3606 19.7884 44.2695 19.8245C44.1784 19.8605 44.0954 19.9147 44.0255 19.9838C43.9505 20.0662 43.893 20.1632 43.8565 20.2689C43.82 20.3746 43.8053 20.4866 43.8134 20.5982C43.8002 20.827 43.8763 21.0518 44.0255 21.2245C44.0937 21.2967 44.1761 21.3537 44.2674 21.392C44.3587 21.4302 44.4569 21.4488 44.5558 21.4465C44.6523 21.4501 44.7485 21.4328 44.8379 21.3959C44.9273 21.359 45.0079 21.3033 45.0743 21.2325V21.2245Z" fill="white"/>
<path d="M42.2398 11.0199C42.4291 10.9631 42.6092 10.8805 42.7746 10.7744C42.9561 10.6738 43.1221 10.5486 43.2674 10.4025C43.0941 10.4105 42.9212 10.3813 42.7608 10.317C42.6004 10.2528 42.4564 10.155 42.3391 10.0306C42.1487 9.8056 42.0459 9.52245 42.0488 9.23095C42.0467 9.07287 42.0766 8.91593 42.137 8.76914C42.1973 8.62235 42.2867 8.4886 42.4002 8.37554C42.5421 8.24452 42.7106 8.14378 42.8947 8.07974C43.0789 8.0157 43.2748 7.98977 43.4698 8.00363C43.8861 7.98397 44.2949 8.11664 44.6158 8.37554C44.7468 8.487 44.8512 8.62494 44.9218 8.77975C44.9924 8.93456 45.0275 9.1025 45.0245 9.27186C45.0457 9.61028 44.9428 9.94503 44.7342 10.2165C44.5409 10.4433 44.2999 10.6272 44.0275 10.7558C44.9367 10.7 45.5822 10.4917 45.9566 10.1273C46.366 9.69028 46.5982 9.12316 46.6098 8.53175H48.1951C48.1866 8.97122 48.0714 9.4025 47.859 9.79034C47.6465 10.1782 47.3428 10.5116 46.9727 10.7632C46.1165 11.2929 45.1134 11.5527 44.1001 11.5071H42.2245L42.2398 11.0199ZM43.8824 9.7256C44.005 9.58206 44.0677 9.39884 44.0581 9.21235C44.0668 9.02713 44.0041 8.84541 43.8824 8.70283C43.8229 8.63983 43.7501 8.59021 43.669 8.55745C43.5878 8.52469 43.5003 8.50957 43.4125 8.51315C43.3264 8.51089 43.2409 8.52742 43.1623 8.56153C43.0836 8.59564 43.0138 8.64646 42.9579 8.71027C42.8443 8.85495 42.7827 9.03205 42.7827 9.21421C42.7827 9.39638 42.8443 9.57348 42.9579 9.71816C43.0138 9.78197 43.0836 9.83279 43.1623 9.8669C43.2409 9.90101 43.3264 9.91754 43.4125 9.91528C43.5003 9.91886 43.5878 9.90374 43.669 9.87098C43.7501 9.83822 43.8229 9.7886 43.8824 9.7256V9.7256Z" fill="white"/>
<path d="M50.377 18.1415C50.3753 17.9149 50.4211 17.6906 50.5113 17.4836C50.6015 17.2765 50.7341 17.0916 50.9 16.9411C51.3355 16.5733 51.8931 16.3909 52.4569 16.4319C52.9428 16.4064 53.4224 16.5526 53.8151 16.8459C53.9609 16.9808 54.0786 17.1443 54.1613 17.3266C54.244 17.509 54.2899 17.7064 54.2964 17.9072C54.3028 18.108 54.2696 18.3081 54.1988 18.4956C54.1279 18.683 54.0209 18.854 53.884 18.9984C53.576 19.2819 53.1712 19.4306 52.7569 19.4123V21.2668H54.5327C54.6647 21.2849 54.799 21.2715 54.925 21.2276C55.051 21.1837 55.1653 21.1104 55.2589 21.0137C55.3524 20.917 55.4227 20.7994 55.4641 20.6702C55.5056 20.541 55.5171 20.4037 55.4976 20.2692V15.9932C55.5032 15.735 55.4575 15.4783 55.3635 15.2386C55.2694 14.9989 55.1289 14.781 54.9503 14.5982C54.7406 14.3978 54.4926 14.2437 54.222 14.1454C53.9514 14.0471 53.6638 14.0068 53.3772 14.0269C52.8101 14.0139 52.2499 14.1569 51.7555 14.4409C51.3051 14.7079 50.9672 15.1354 50.8068 15.6413H49.9513C50.1507 14.9114 50.6223 14.2902 51.2649 13.911C52.0715 13.4533 52.9864 13.2327 53.9083 13.2735C54.8972 13.2321 55.8784 13.4668 56.7464 13.9524C57.0984 14.1607 57.3873 14.4641 57.5811 14.8293C57.775 15.1945 57.8664 15.6073 57.8451 16.0221V20.1988C57.8707 20.4597 57.8392 20.7231 57.753 20.9701C57.6667 21.2171 57.5279 21.4414 57.3464 21.6269C56.905 21.9407 56.3701 22.0871 55.8342 22.0409H50.377V18.1415ZM53.1502 18.5886C53.227 18.5005 53.286 18.3977 53.3236 18.2861C53.3612 18.1745 53.3766 18.0564 53.3691 17.9387C53.3827 17.6998 53.3041 17.4651 53.1502 17.2847C53.0808 17.209 52.9965 17.1492 52.9029 17.1092C52.8092 17.0693 52.7084 17.0501 52.6069 17.0529C52.506 17.0501 52.4058 17.0694 52.3128 17.1094C52.2198 17.1493 52.1362 17.2091 52.0677 17.2847C51.921 17.4686 51.8473 17.702 51.8609 17.9387C51.8459 18.1744 51.9199 18.4069 52.0677 18.5886C52.1373 18.6622 52.2212 18.7202 52.3141 18.7587C52.407 18.7972 52.5067 18.8154 52.6069 18.8121C52.7077 18.8154 52.8081 18.7973 52.9016 18.7588C52.9951 18.7203 53.0798 18.6623 53.1502 18.5886V18.5886Z" fill="white"/>
<path d="M69.2682 13.4601V21.8609H67.1357C66.8435 21.3963 66.5036 20.9636 66.1218 20.5697C65.6792 20.1011 65.1523 19.7205 64.5688 19.448V20.0533C64.586 20.3216 64.5478 20.5906 64.4564 20.8433C64.365 21.0961 64.2224 21.3272 64.0377 21.522C63.564 21.8978 62.9659 22.0795 62.3639 22.0304C62.1208 22.0677 61.8724 22.0494 61.6374 21.9768C61.4023 21.9042 61.1867 21.7791 61.0067 21.611C60.8267 21.4429 60.687 21.2362 60.598 21.0062C60.5091 20.7763 60.4731 20.5291 60.493 20.2833C60.4917 19.8638 60.6337 19.4565 60.8953 19.1293C61.2401 18.7493 61.7164 18.5155 62.2271 18.4756V16.1797C61.8277 16.1971 61.4361 16.0648 61.1287 15.8085C60.98 15.6807 60.8624 15.5204 60.785 15.3399C60.7076 15.1595 60.6724 14.9637 60.6821 14.7675C60.6704 14.5638 60.7054 14.3601 60.7841 14.172C60.8629 13.9839 60.9835 13.8163 61.1367 13.6821C61.5145 13.3939 61.9826 13.2507 62.4564 13.2786C63.0346 13.2243 63.6113 13.3963 64.0658 13.7587C64.2368 13.9296 64.37 14.1347 64.4566 14.3607C64.5433 14.5866 64.5815 14.8283 64.5688 15.0701V18.6693C65.0763 18.853 65.5557 19.1069 65.9931 19.4238C66.3424 19.6626 66.6542 19.9523 66.9184 20.2833V13.4238L69.2682 13.4601ZM62.1024 21.1266C62.1947 20.952 62.2352 20.7546 62.2191 20.5576V19.097C61.9327 19.1187 61.6659 19.2513 61.4752 19.4666C61.2845 19.682 61.1848 19.9632 61.1971 20.251C61.1884 20.5063 61.2423 20.7598 61.354 20.9894C61.3852 21.0724 61.4399 21.1445 61.5114 21.1968C61.5828 21.2492 61.668 21.2794 61.7563 21.2839C61.8212 21.287 61.8858 21.2743 61.9446 21.2468C62.0034 21.2194 62.0548 21.1782 62.0943 21.1266H62.1024ZM61.8167 15.3848C61.8876 15.4564 61.9724 15.5127 62.0658 15.5502C62.1592 15.5877 62.2593 15.6055 62.3599 15.6027C62.4587 15.6058 62.5571 15.588 62.6486 15.5505C62.7401 15.5129 62.8227 15.4565 62.891 15.3848C63.0265 15.2023 63.0997 14.9809 63.0997 14.7534C63.0997 14.5258 63.0265 14.3044 62.891 14.1219C62.8227 14.0502 62.7401 13.9938 62.6486 13.9562C62.5571 13.9187 62.4587 13.9009 62.3599 13.904C62.2593 13.9012 62.1592 13.919 62.0658 13.9565C61.9724 13.994 61.8876 14.0503 61.8167 14.1219C61.6761 14.3022 61.5997 14.5245 61.5997 14.7534C61.5997 14.9822 61.6761 15.2045 61.8167 15.3848V15.3848Z" fill="white"/>
<path d="M73.3251 21.5626C72.9458 21.1993 72.752 20.7306 72.7839 20.2535L72.7805 13.2687H75.4365L75.4399 19.4428C75.8883 19.4265 76.3299 19.5368 76.6906 19.7552C76.852 19.8675 76.9791 20.0089 77.062 20.1684C77.1449 20.3278 77.1812 20.5009 77.1682 20.6738C77.1789 20.862 77.1374 21.0497 77.0468 21.223C76.9562 21.3962 76.8189 21.5505 76.6451 21.6742C76.2146 21.9398 75.6827 22.0716 75.1443 22.0461C74.2938 22.0461 73.6844 21.8751 73.3251 21.5626ZM75.8765 21.2763C76.0492 21.1142 76.1374 20.9033 76.1221 20.6887C76.1314 20.584 76.1144 20.4788 76.0722 20.3797C76.03 20.2805 75.9634 20.1895 75.8765 20.1122C75.7961 20.0479 75.7008 19.9973 75.5961 19.9634C75.4915 19.9296 75.3796 19.9131 75.2671 19.9151C75.1552 19.9124 75.0437 19.9284 74.9397 19.9624C74.8356 19.9963 74.7412 20.0473 74.6622 20.1122C74.5779 20.1906 74.5136 20.282 74.4729 20.3809C74.4323 20.4799 74.4163 20.5845 74.4257 20.6887C74.4099 20.902 74.4945 21.1123 74.6622 21.2763C74.7391 21.3442 74.8329 21.3979 74.9372 21.4338C75.0415 21.4697 75.154 21.487 75.2671 21.4845C75.3808 21.4864 75.4937 21.4688 75.5987 21.4329C75.7036 21.397 75.7982 21.3437 75.8765 21.2763Z" fill="white"/>
<path d="M80.5047 16.2433C80.0944 16.26 79.6925 16.1249 79.3766 15.864C79.2258 15.7319 79.1071 15.5676 79.0296 15.3833C78.952 15.199 78.9175 14.9996 78.9287 14.8001C78.9176 14.592 78.954 14.3842 79.0352 14.1921C79.1163 14 79.2402 13.8287 79.3974 13.6909C79.7889 13.3974 80.2723 13.2513 80.7619 13.2785C81.3578 13.2239 81.9519 13.3996 82.4209 13.7692C82.5941 13.9482 82.7272 14.1617 82.8116 14.3955C82.8959 14.6293 82.9295 14.8782 82.9103 15.1259V18.668L84.4407 14.5444H85.5273L87.0411 18.668V13.4641H89.4632V22.0492H87.0577V21.8101L84.984 16.3299L82.9103 21.8101V22.041H80.5047V16.2433ZM81.2015 15.4186C81.3387 15.2311 81.4126 15.0052 81.4126 14.7733C81.4126 14.5414 81.3387 14.3155 81.2015 14.128C81.1303 14.0546 81.0444 13.9969 80.9494 13.9585C80.8544 13.9202 80.7524 13.902 80.6499 13.9053C80.5468 13.902 80.4441 13.9201 80.3484 13.9584C80.2527 13.9967 80.1661 14.0545 80.0941 14.128C79.9492 14.3122 79.8704 14.5394 79.8704 14.7733C79.8704 15.0072 79.9492 15.2344 80.0941 15.4186C80.1661 15.4921 80.2527 15.5498 80.3484 15.5882C80.4441 15.6265 80.5468 15.6446 80.6499 15.6413C80.7515 15.6461 80.853 15.6299 80.9479 15.5937C81.0429 15.5575 81.1292 15.5021 81.2015 15.431V15.4186Z" fill="white"/>
<path d="M92.2272 19.2155C92.2272 18.4277 92.6454 17.8768 93.4819 17.5628C93.0941 17.3966 92.7526 17.1109 92.4938 16.7364C92.2285 16.3389 92.0903 15.8467 92.1028 15.3439C92.0822 15.0513 92.1211 14.7571 92.2161 14.4851C92.3112 14.2132 92.4599 13.9709 92.6502 13.7779C93.0958 13.4135 93.6347 13.2358 94.1786 13.2738C94.6096 13.2453 95.0375 13.3754 95.4013 13.6457C95.5419 13.7582 95.6561 13.9097 95.7337 14.0864C95.8113 14.2632 95.8497 14.4596 95.8456 14.658C95.8548 14.856 95.8278 15.0541 95.7666 15.2393C95.7053 15.4244 95.6111 15.5924 95.4902 15.7323C95.2039 16.0223 94.8314 16.1706 94.4523 16.1455C94.3606 16.1405 94.2692 16.1295 94.1786 16.1124C94.1834 16.2639 94.225 16.4106 94.2986 16.5357C94.3722 16.6607 94.4748 16.759 94.5944 16.819C94.8688 16.9744 95.1708 17.0523 95.476 17.0463H96.2686V18.0586H95.3764C95.2275 18.0438 95.0777 18.0689 94.9384 18.1319C94.7992 18.1949 94.6742 18.2942 94.5731 18.4222C94.3936 18.6766 94.3001 18.9983 94.3101 19.3271V21.2567H96.1122C96.2411 21.2722 96.3714 21.2551 96.4941 21.2066C96.6168 21.1581 96.729 21.0794 96.8231 20.9758C96.98 20.7405 97.0572 20.4464 97.0399 20.1494V13.4432H99.1193V20.2733C99.1359 20.6367 99.0697 20.9988 98.9273 21.3228C98.7861 21.5906 98.5645 21.7878 98.3053 21.8765C97.9127 22.0069 97.5048 22.0641 97.0968 22.0459H92.2272V19.2155ZM94.7153 15.3522C94.7827 15.2642 94.8344 15.1616 94.8673 15.0502C94.9003 14.9388 94.9138 14.821 94.9072 14.7034C94.9192 14.465 94.8503 14.2307 94.7153 14.0506C94.6526 13.9775 94.578 13.9195 94.496 13.88C94.414 13.8404 94.326 13.82 94.2372 13.82C94.1484 13.82 94.0605 13.8404 93.9784 13.88C93.8964 13.9195 93.8219 13.9775 93.7592 14.0506C93.6242 14.2307 93.5553 14.465 93.5672 14.7034C93.5606 14.821 93.5742 14.9388 93.6071 15.0502C93.6401 15.1616 93.6918 15.2642 93.7592 15.3522C93.888 15.4949 94.0592 15.5745 94.2372 15.5745C94.4152 15.5745 94.5864 15.4949 94.7153 15.3522Z" fill="white"/>
<path d="M96.0447 11.9749C95.8941 11.8188 95.7778 11.6315 95.7034 11.4257C95.629 11.2199 95.5984 11.0002 95.6135 10.7812C95.6022 10.5543 95.6435 10.3279 95.734 10.1204C95.8244 9.91297 95.9616 9.73038 96.1341 9.58757C96.5842 9.26344 97.0847 9.01992 97.6144 8.86739L98.135 8.70426C98.3107 8.65061 98.4665 8.54381 98.5818 8.39789C98.6727 8.28535 98.7259 8.14585 98.7334 8H100C99.9806 8.68039 99.7164 9.10613 99.2229 9.27324L97.8164 9.73877C97.6832 9.78969 97.5535 9.8495 97.4279 9.91782C97.3036 9.98943 97.2453 10.0491 97.2531 10.0969C97.3577 10.0512 97.4697 10.0255 97.5833 10.0213C97.6323 10.0148 97.682 10.0148 97.731 10.0213C97.8616 10.0314 97.9888 10.0692 98.1045 10.1322C98.2202 10.1952 98.3219 10.282 98.4031 10.3873C98.5591 10.6122 98.6384 10.8835 98.6285 11.1592C98.6306 11.3326 98.5923 11.5039 98.5166 11.659C98.4409 11.814 98.33 11.9483 98.1933 12.0505C97.9048 12.2822 97.5457 12.402 97.1793 12.3887C96.7629 12.4073 96.3559 12.2588 96.0447 11.9749V11.9749ZM97.7038 11.6088C97.8201 11.4669 97.8786 11.2845 97.8669 11.0995C97.876 10.9258 97.8173 10.7555 97.7038 10.6261C97.6486 10.5702 97.583 10.5263 97.5109 10.4969C97.4388 10.4675 97.3617 10.4532 97.2842 10.455C97.2114 10.4548 97.1394 10.4699 97.0726 10.4993C97.0058 10.5287 96.9455 10.5719 96.8956 10.6261C96.786 10.7574 96.7303 10.9271 96.7402 11.0995C96.728 11.2832 96.7834 11.4649 96.8956 11.6088C96.9439 11.6657 97.0037 11.7111 97.0707 11.742C97.1378 11.7729 97.2106 11.7886 97.2842 11.7879C97.3625 11.79 97.4403 11.7752 97.5127 11.7443C97.585 11.7135 97.6501 11.6673 97.7038 11.6088V11.6088Z" fill="white"/>
<path d="M51.6036 99.6742C49.7073 101.184 46.9987 101.939 43.478 101.939H36.7277V113.981H30V82.08H43.9148C47.1206 82.08 49.6782 82.8804 51.5874 84.4811C53.4967 86.0819 54.4502 88.5628 54.448 91.924C54.4545 95.5763 53.5064 98.1597 51.6036 99.6742ZM46.426 88.5003C45.563 87.8099 44.3614 87.4658 42.8211 87.468H36.7277V96.6H42.8308C44.3776 96.6 45.5792 96.2289 46.4357 95.4868C47.2921 94.7447 47.7236 93.5657 47.7301 91.9498C47.7258 90.3383 47.2943 89.1884 46.4357 88.5003H46.426Z" fill="white"/>
<path d="M67.3242 95.5709C68.167 95.5021 68.9977 95.3271 69.7965 95.0499C70.6875 94.6853 71.1319 94.1168 71.1297 93.3445C71.1297 92.4028 70.8061 91.7556 70.1072 91.4029C69.4082 91.0502 68.4244 90.869 67.1041 90.869C65.622 90.869 64.5725 91.2195 63.9555 91.9207C63.4775 92.5294 63.1733 93.2563 63.0753 94.0241H57.1081C57.2376 92.0178 57.819 90.3695 58.8523 89.0795C60.4919 87.0602 63.3115 86.0495 67.3112 86.0473C69.7064 86.002 72.0793 86.5138 74.2428 87.5424C76.2664 88.539 77.2771 90.4192 77.2749 93.1827V103.703C77.2749 104.434 77.2889 105.318 77.317 106.353C77.3623 107.141 77.4853 107.675 77.6859 107.955C77.9254 108.259 78.2399 108.496 78.5984 108.641V109.525H71.8675C71.693 109.108 71.5629 108.674 71.4792 108.23C71.4037 107.822 71.3455 107.36 71.3045 106.842C70.4344 107.751 69.433 108.524 68.3338 109.136C66.9442 109.89 65.384 110.273 63.8034 110.249C61.6461 110.249 59.8663 109.657 58.464 108.473C57.0617 107.288 56.3595 105.609 56.3574 103.434C56.3574 100.613 57.4867 98.5707 59.7455 97.3086C60.9838 96.6226 62.8067 96.1318 65.2143 95.8362L67.3242 95.5709ZM71.1071 98.37C70.7276 98.6013 70.3266 98.7953 69.9098 98.9493C69.3673 99.131 68.8111 99.2684 68.2465 99.3603L66.8388 99.6127C65.8538 99.7357 64.894 100.012 63.9943 100.431C63.5358 100.674 63.1561 101.043 62.8998 101.494C62.6436 101.945 62.5215 102.46 62.5478 102.978C62.5478 104.004 62.8456 104.742 63.441 105.198C64.067 105.664 64.8323 105.905 65.6123 105.881C66.9406 105.89 68.2408 105.499 69.3435 104.758C70.4825 104.001 71.0736 102.619 71.1168 100.613L71.1071 98.37Z" fill="white"/>
<path d="M97.9238 85.9179L90.2318 114H83.9248L85.6593 105.971L79.5109 85.9082H86.2451L89.1575 94.406L91.3482 85.9017L97.9238 85.9179Z" fill="white"/>
</g>
<rect x="1.5" y="1.5" width="125" height="125" stroke="white" stroke-width="3"/>
<defs>
<clipPath id="clip0_1_1804">
<rect width="128" height="128" fill="white"/>
</clipPath>
</defs>
</svg>
