<svg width="128" height="128" viewBox="0 0 128 128" fill="none" xmlns="http://www.w3.org/2000/svg">
<path d="M71.6 44.3C71.6 44.3 80.5 47.5 83.8 56.8C84.9 60 88.4 62.3 92 62.3H109.4C114.2 62.3 118.1 58.3 118.1 53.6C118.1 48.9 114.1 44.9 109.4 44.9H95.6L115.3 25.2C118.8 21.7 118.8 16.2 115.3 12.8C111.8 9.30001 106.4 9.30001 103 12.8L83 32.6L83.2 18.7C83.2 13.6 79.3 10.1 74.6 10.1C69.8 10.1 65.9 14 65.9 18.7V36.1C65.9 39.9 68.4 42.9 71.6 44.3Z" fill="white"/>
<path d="M10 53.5C10 58.3 14 62.3 18.7 62.3H36.1C39.8 62.3 43 59.9 44.3 56.6C44.3 56.6 47.4 47.7 56.6 44.4C59.8 43.3 62.1 39.8 62.1 36.2V18.8C62.1 14 58.2 10.1 53.5 10.1C48.6 10.1 44.8 14.1 44.8 18.8V32.5L24.8 12.6C21.4 9.10001 15.9 9.10001 12.5 12.6C9.10001 16.1 9.10001 21.5 12.5 24.9L32.6 45L18.7 44.9C13.2 44.9 10 48.6 10 53.5Z" fill="white"/>
<path d="M74.5 117.9C79.3 117.9 83.2 114.3 83.2 109.2V95.6L103 115.4C106.5 118.9 111.9 118.9 115.3 115.4C118.8 111.9 118.8 106.5 115.3 103.1L95.3 83L109.2 83.2C114.4 83.2 117.9 79.3 117.9 74.6C117.9 69.9 113.9 65.9 109.2 65.9H91.8C88.1 65.9 84.9 68.3 83.6 71.6C83.6 71.6 80.5 80.5 71.3 83.8C68.1 84.9 65.7 88.4 65.7 92V109.4C65.8 114 69.7 117.9 74.5 117.9Z" fill="white"/>
<path d="M56.4 83.7C56.4 83.7 47.5 80.6 44.4 71.3C43.2 68.1 39.8 65.8 36.2 65.8H18.9C14 65.8 10.2 69.8 10.2 74.5C10.2 79.2 14.1 83.2 18.9 83.2H32.4L12.7 103.1C9.20001 106.3 9.20001 112 12.7 115.4C15.9 118.9 21.6 118.9 25 115.4L45.1 95.3L44.9 109.2C44.7 114.7 48.6 117.8 53.3 117.8C58.2 117.8 62 113.9 62 109.2V91.9C62.1 88 59.8 84.9 56.4 83.7Z" fill="white"/>
</svg>
