<svg width="128" height="128" viewBox="0 0 128 128" fill="none" xmlns="http://www.w3.org/2000/svg">
<path opacity="0.7" d="M47.6 123.6C44.2 125.6 41.2 126.8 38 126.8C29.7 126.8 22.8 120 22.4 111.9L38.5 102.3L63.5 113.5L47.6 123.6Z" fill="white"/>
<path opacity="0.7" d="M57.2001 82.4L45.2001 77.1C39.9001 74.7 34.8 72.7 34.8 66.8C34.8 63.7 35.7001 62.2 37.2001 60.6L62.5 71.8L56.2001 75.4C54.5001 76.5 53.3 77.4 53.3 78.7C53.3 80.2 55.0001 81.4 57.2001 82.4Z" fill="white"/>
<path opacity="0.7" d="M69 27.2L56.7 34.6C55.6 35.3 54.2 36.3 54.2 38C54.2 39.9 57 41.3 59.5 42.5L44.2 35.7C39.7 33.7 35.2 31.5 35.2 26C35.2 23.7 35.9 21.9 36.9 20.3L70.1 0C74.1 2.3 77.9 6.8 77.9 12.9C77.9 19.5 74.6 23.8 69 27.2Z" fill="white"/>
<path opacity="0.7" d="M95.1 51.2L92.1 52.9L66.7 41.7L96.2 24C100.2 26.3 104.1 30.8 104.1 36.9C104.1 43.4 100.8 47.9 95.1 51.2Z" fill="white"/>
<path opacity="0.7" d="M73.7 72.7L88.7 79.3C94.3 81.8 96 84.8 96 88.5C96 90.6 94.8 92.7 93.1 94.2L67.9 83L72.2 80.6C75.8 78.6 77 77.4 77 76.1C77 74.7 76.2 73.8 73.7 72.7Z" fill="white"/>
<path d="M100.4 128C94.0001 123.1 87.2 119.8 79 116L40.8 99.1C31.2 94.8 24.8 89.1 24.8 79.5C24.8 70.2 29.3001 65.7 35.2001 61.9L37.3 60.6C35.8 62.2 34.9001 63.8 34.9001 66.8C34.9001 72.7 39.9 74.7 45.3 77.1L89.8 96.7C97.5 100 104.6 105.7 104.6 115.5C104.6 120.8 102.6 125.6 100.4 128Z" fill="white"/>
<path d="M95.9 92.4L93.1 94.2C94.8 92.7 96 90.6 96 88.5C96 84.8 94.3 81.8 88.7 79.3L41.2 58.3C31.6 54.1 25.6 48.6 25.6 39C25.6 30.2 30 24.5 36.9 20.2C35.8 21.8 35.2 23.6 35.2 25.9C35.2 31.3 39.7 33.6 44.2 35.6L90.4 56C98.8 59.7 105.6 65.3 105.6 75.6C105.6 83.7 101.9 88.7 95.9 92.4Z" fill="white"/>
</svg>
