<svg width="128" height="128" viewBox="0 0 128 128" fill="none" xmlns="http://www.w3.org/2000/svg">
<path d="M8.2 107.6C17.4 111.9 26.6 116.3 35.8 120.7C36.2 121 36.9 121 37.4 121C44.4 121 51.4 121 58.4 121C59.6 121 59.8 120.6 59.8 119.5C59.7 113.3 59.8 107.1 59.8 100.9C59.8 100.5 59.7 100.3 59.7 99.7C59.2 100 58.7 100.1 58.3 100.3C51.9 103.1 45.3 105.4 38.1 104.5C35.3 104.1 32.8 103.2 30.7 101.2C27 97.7 26 93.1 25.9 88.3C25.8 84.3 26.2 80.3 26.7 76.3C27.2 71.6 28.4 67.1 30.4 62.8C35.7 51.1 43.5 41.1 52.7 32.3C55.7 29.4 59.3 27.1 62.7 24.5C63.5 23.9 64.3 23.9 65.2 24.5C67.9 26.5 70.7 28.3 73.2 30.4C79.7 36.1 85.2 42.6 90 49.7C94.9 56.8 99 64.4 100.6 73C101.8 79.3 102.6 85.7 101.5 92.1C99.9 100.7 94.8 104.4 87.1 104.6C83.3 104.7 79.6 103.9 76 102.6C73.4 101.7 70.8 100.6 68.2 99.6C68.2 100 68.2 100.2 68.2 100.5C68.2 106.7 68.2 112.9 68.2 119C68.2 120.3 68.6 120.6 69.9 120.6C76.7 120.5 83.4 120.6 90.2 120.5C91.1 120.5 92 120.2 92.8 119.9C101.7 115.7 110.6 111.4 119.4 107.2C121.2 106.3 121.2 106.4 120.7 104.4C115.7 84.8 110.8 65.3 105.8 45.7C105.6 45.1 105.3 44.4 104.7 43.8C102.7 41.8 100.6 39.9 98.6 38C94.7 34.4 90.8 30.8 86.8 27.2C81.5 22.4 76.3 17.7 71 12.8C69 10.9 66.8 9 64.8 7C64.1 6.4 63.6 6.4 62.9 7.1C62 8 61 8.80001 60.1 9.60001C56 13.4 51.9 17.2 47.8 20.9C43.4 24.9 39.1 28.9 34.6 32.9C31.4 35.8 28.2 38.7 25 41.6C23.8 42.8 22.3 43.8 21.8 45.7C16.9 65.2 12 84.8 7 104.3C6.8 106.4 7 107.1 8.2 107.6Z" fill="white"/>
</svg>
