<svg width="128" height="128" viewBox="0 0 128 128" fill="none" xmlns="http://www.w3.org/2000/svg">
<g clip-path="url(#clip0_1_182)">
<path d="M96.2 57.1C94.1 55.7 91.8 54.6 89.5 53.8C81.5 51 79.4 51.7 75.2 59.2C72.1 64.7 69.4 70.3 66.3 75.8C65 78.2 63.5 80.6 61.5 82.5C51.1 92.8 38 94.6 24.1 93.7C28.3 91.3 31.1 87.7 33.5 83.6C36.6 78.2 39.7 72.7 42.6 67.1C45.8 61 50.3 56.3 56.6 53.4C57.7 52.9 58.7 52.5 59.8 52.1C59.7 52 59.7 51.9 59.6 51.8C59.3 51.8 59 51.8 58.7 51.8C43.6 54 29.4 58.6 16.6 67.1C11 70.7 6.10004 75.1 2.60004 80.9C-2.29996 89.1 -0.0999565 97.4 8.40004 101.7C11.3 103.2 14.5 104.3 17.6 105.1C27.7 107.5 37.9 106.9 48 105.1C62 102.6 75.3 97.9 87.1 89.8C92.7 86 97.8 81.5 100.9 75.2C104.4 68.3 102.7 61.5 96.2 57.1Z" fill="white"/>
<path opacity="0.7" d="M124.8 21.4C103.7 21.4 82.5 21.3 61.4 21.5C55.5 21.5 49.5 22 43.6 22.9C34.1 24.3 25.2 27.7 17.9 34.2C14.2 37.4 11.3 41.3 9.5 46.2C10.6 46.3 11.3 46.4 12.1 46.4C35 46.4 58 46.5 80.9 46.3C91.4 46.2 101.7 44.3 111.1 39.4C118.7 35.5 124.4 29.9 128.1 21.4C126.6 21.4 125.7 21.4 124.8 21.4Z" fill="white"/>
</g>
<defs>
<clipPath id="clip0_1_182">
<rect width="128" height="128" fill="white"/>
</clipPath>
</defs>
</svg>
