<svg width="128" height="128" viewBox="0 0 128 128" fill="none" xmlns="http://www.w3.org/2000/svg">
<g clip-path="url(#clip0_1_191)">
<path d="M128 64.2C128.9 97.8 99.6 129.4 61.5 128C27.7 126.7 0 98.1 0 64C0 30.3 27.6 -0.599994 65.2 5.68572e-06C101.3 0.600006 128.8 30.8 128 64.2ZM117.9 60.1C117.8 52.2 115 41 108.6 30.8C98.3 14.6 83.8 5.20001 64.5 4.70001C50.2 4.30001 37.9 10.1 27.9 20.2C7.5 40.9 4.5 74.7 20.6 98.8C34.9 120.1 59.5 128.6 82 119.8C103.3 111.6 117.8 89 117.9 60.1Z" fill="white"/>
<path opacity="0.7" d="M83.9 82.2C80.7 85.7 77.8 88.8 74.4 92.5C70.4 88.3 66.4 84.2 62.6 80.1C58.9 76.1 59 76.1 62.9 72.2C64.7 70.4 66.2 68.3 67.4 66.8C73.5 72.5 78.8 77.5 83.9 82.2Z" fill="white"/>
<path opacity="0.7" d="M81.1 62.5C75.5 56.6 70.9 51.8 66.5 46.8C66 46.3 65.9 44.6 66.4 44.1C68.9 41.1 71.6 38.4 74.8 34.9C80.1 40.4 84.8 45.2 89.4 50.1C89.9 50.6 89.9 52.3 89.4 52.9C86.9 56 84.4 58.7 81.1 62.5Z" fill="white"/>
<path opacity="0.7" d="M71.9 58.4C66.8 63.4 61.7 68.5 57 73.2C53.2 70.1 49.7 67.2 46.4 64.4C52 58.6 57 53.5 62.2 48.1C65.4 51.5 68.4 54.7 71.9 58.4Z" fill="white"/>
<path opacity="0.7" d="M62.3 85.3C65.6 88.8 68.5 91.9 72 95.5C67.4 100 62.6 104.7 57.6 109.3C57.1 109.8 55.6 110 55.3 109.6C53.2 107.4 50.7 105.2 49.7 102.5C49.1 100.9 50.3 97.9 51.6 96.3C54.7 92.6 58.5 89.2 62.3 85.3Z" fill="white"/>
<path opacity="0.7" d="M78.6 69.7C83.2 65 88.2 59.9 93.6 54.4C95.8 56.8 98.5 58.9 100 61.6C101.2 63.9 100.6 66.8 98.4 68.9C94.8 72.4 91.3 76 87.6 79.7C84.5 76.3 81.5 72.9 78.6 69.7Z" fill="white"/>
<path opacity="0.7" d="M37.2001 35.2C43.0001 41 48.0001 46 53.2001 51.3C49.9001 54.5 46.7001 57.5 43.8001 60.3C39.9001 56.6 35.5001 52.9 31.6001 48.7C29.6001 46.6 30.0001 43.7 31.8001 41.3C33.5001 39.4 35.2001 37.5 37.2001 35.2Z" fill="white"/>
<path opacity="0.7" d="M61.7999 42.3C58.4999 39 54.9 35.5 51.4 31.9C48.3 28.6 48.3 25 51.4 21.8C52.9 20.3 54.3999 18.9 56.0999 17.3C61.3999 22.6 66.5 27.7 71.8 33C68.6 36 65.3999 39 61.7999 42.3Z" fill="white"/>
<path opacity="0.7" d="M52.9 76.9C47.9 81.7 42.8 86.6 37.3 91.8C35.8 90.4 33.8 88.8 32.2 86.9C29.7 83.9 29.8 80.7 32.6 77.9C36.2 74.3 40 70.8 43.8 67.2C46.5 70.1 49.5 73.4 52.9 76.9Z" fill="white"/>
</g>
<defs>
<clipPath id="clip0_1_191">
<rect width="128" height="128" fill="white"/>
</clipPath>
</defs>
</svg>
