<svg width="128" height="128" viewBox="0 0 128 128" fill="none" xmlns="http://www.w3.org/2000/svg">
<path fill-rule="evenodd" clip-rule="evenodd" d="M0 35.2C7.7 35.2 15.5 35.1 23.1 35.3C23.1 39.8 23.1 44.2 23.1 48.7C21.7 48.7 20.2 48.7 18.8 48.7C18.8 63.3 18.8 78 18.8 92.6C14 92.6 9 92.7 4.3 92.5C4.3 77.9 4.3 63.3 4.3 48.6C2.9 48.6 1.5 48.6 0 48.6C0 44.2 0 39.7 0 35.2Z" fill="white"/>
<path fill-rule="evenodd" clip-rule="evenodd" d="M26.4 35.3C31.2 35.3 36 35.3 40.8 35.3C40.8 54.4 40.8 73.5 40.8 92.6C36 92.6 31.1 92.6 26.3 92.6C26.3 73.6 26.3 54.5 26.3 35.5C26.4 35.4 26.3 35.3 26.4 35.3Z" fill="white"/>
<path fill-rule="evenodd" clip-rule="evenodd" d="M67 36.9C67 40.9 67 44.9 67 48.8C66.7 48.9 66.5 48.4 66.2 48.2C64 46.6 60.7001 48.2 60.4001 50.8C60.3001 52 60.7001 53.4 60.9001 54.7C61.7001 58.4 62.7001 61.9 63.7001 65.2C65.1001 69.6 67.1 74.3 66.7 79.9C66.3 85.2 63.9 89 60.1 91.1C58.2 92.2 55.7001 92.8 52.9001 92.6C50.2001 92.4 48.1 91.8 45.8 90.8C45.8 86.4 45.8 82.1 45.8 77.7C46 77.6 46.4001 77.9 46.7001 78.1C47.0001 78.3 47.3001 78.5 47.7001 78.6C50.0001 79.4 52.8 78.3 53 75.9C53.2 73.8 52.5001 71.4 51.9001 69.5C50.1001 63.8 47.6 58.9 46.5 52.3C45.7 47.4 46.4 43.3 48.8 40.2C49.9 38.8 51.3001 37.6 52.9001 36.8C54.5001 35.9 56.3 35.2 58.6 35C62.1 35 64.5 36.1 67 36.9Z" fill="white"/>
<path fill-rule="evenodd" clip-rule="evenodd" d="M90.2 35.3C90.2 39.4 90.2 43.5 90.2 47.6C86.5 47.2 84.1 48.1 83.3 50.7C82.8 52.3 83.1 55 83.1 57.1C83.1 61.6 83.1 65.8 83.1 70.3C83.1 72.5 82.8 75 83.3 76.7C84 79.5 86.6 80.5 90.3 80.1C90.3 84.2 90.3 88.3 90.3 92.4C82.4 92.8 77.3 90 74.1 85.5C72.4 83.2 71.3 80.5 70.9 77.2C70.7 75.5 70.8 73.5 70.8 71.5C70.8 65.8 70.8 60 70.8 54.2C70.8 52.2 70.8 50.4 71.1 48.7C72 44.2 74.7 40.5 77.9 38.2C80.9 36.2 84.8 34.9 90.2 35.3Z" fill="white"/>
<path fill-rule="evenodd" clip-rule="evenodd" d="M110.3 35.3C117.5 34.8 122.4 38.7 125.2 43C126.8 45.5 127.8 48.2 127.9 51.6C128.1 55.7 127.9 59.1 127.9 62.9C127.9 66.6 127.9 70.4 127.9 74.2C127.9 77.9 127.3 81.1 125.9 83.5C123.3 88.3 118.7 91.9 112.2 92.4C108.6 92.7 105.5 91.6 103.1 90.3C100.8 89 98.7 87.1 97.3 84.8C95.8 82.5 94.7 79.6 94.6 76.2C94.4 68.7 94.6 61 94.6 53.6C94.6 49.5 95.2 47 96.6 44.3C98.5 40.7 101.4 37.8 105.6 36.3C107 35.8 108.6 35.5 110.3 35.3ZM107.3 50.4C106.6 52.1 106.9 54.9 106.9 56.8C106.9 61.3 106.9 66 106.9 70.5C106.9 72.9 106.6 75.5 107.1 77.1C107.9 79.5 110.5 81 112.9 79.9C113.8 79.5 114.9 78.4 115.3 77.1C115.8 75.5 115.5 72.6 115.5 70.7C115.5 66 115.5 61.8 115.5 57.4C115.5 55.1 115.8 52.5 115.3 50.9C114.7 49 113 47.4 110.6 47.8C108.9 47.9 107.9 49.1 107.3 50.4Z" fill="white"/>
</svg>
