<svg width="128" height="128" viewBox="0 0 128 128" fill="none" xmlns="http://www.w3.org/2000/svg">
<path d="M47.5 33.5C43.9 33.5 40.8 36.4 40.8 40.2C40.8 43.9 43.8 46.9 47.5 46.9C51.2 46.9 54.2 43.9 54.2 40.2C54.1 36.5 51.1 33.5 47.5 33.5ZM80.4 33.5C76.8 33.5 73.7 36.4 73.7 40.2C73.7 43.9 76.6 46.9 80.4 46.9C84.2 46.9 87.1 43.9 87.1 40.2C87.1 36.5 84.1 33.5 80.4 33.5ZM41 52.4V94.5H50.2V65H50.3L60.3 94.5H67.5L77.6 64.9V94.5H86.9V52.4H73.5L64.2 81.3H64.1L54.3 52.4H41Z" fill="white"/>
<path d="M0 60.2V52.4H34.8V60.2H22V94.4H12.7V60.2H0Z" fill="white"/>
<path d="M113.1 52.4C115 52.4 116.8 52.6 118.5 52.9C120.1 53.3 121.5 53.8 122.6 54.6C123.7 55.4 124.6 56.5 125.2 57.8C125.8 59.1 126.1 60.8 126.1 62.8C126.1 64.9 125.6 66.7 124.7 68.1C123.8 69.5 122.4 70.7 120.6 71.5C123.1 72.2 124.9 73.5 126.2 75.4C127.4 77.2 128 79.5 128 82.2C128 84.3 127.6 86.1 126.8 87.8C126 89.3 124.9 90.6 123.6 91.6C122.3 92.6 120.7 93.3 119 93.8C117.3 94.3 115.5 94.5 113.6 94.5H94V52.4H113.1ZM112 69.5C113.6 69.5 114.9 69.1 115.9 68.3C116.9 67.5 117.4 66.3 117.4 64.5C117.4 63.5 117.2 62.7 116.9 62.1C116.6 61.5 116.1 61 115.5 60.6C114.9 60.2 114.3 60 113.5 59.9C112.8 59.8 112 59.7 111.2 59.7H102.7V69.5H112ZM112.5 87.3C113.4 87.3 114.2 87.2 115 87C115.8 86.8 116.5 86.5 117.1 86.1C117.7 85.7 118.2 85.1 118.6 84.4C119 83.7 119.1 82.8 119.1 81.7C119.1 79.6 118.5 78 117.3 77.1C116.1 76.2 114.6 75.7 112.7 75.7H102.9V87.3H112.5" fill="white"/>
</svg>
