<svg width="128" height="128" viewBox="0 0 128 128" fill="none" xmlns="http://www.w3.org/2000/svg">
<path d="M27.1936 82.3871C20.2258 82.3871 14.6129 76.7742 14.6129 69.8065V57.7097H26.7097V46.0968H14.6129V34H3V46.0968V57.7097V69.8065C3 83.1613 13.8387 94 27.1936 94C34.5484 94 41.129 90.7097 45.5806 85.4839C42 81.2258 39.7742 75.8065 39.7742 69.8065C39.7742 76.6774 34.0645 82.3871 27.1936 82.3871Z" fill="white"/>
<path d="M76.5486 69.8065C76.5486 76.7742 70.9357 82.3871 63.968 82.3871C57.0002 82.3871 51.3873 76.7742 51.3873 69.8065V57.7097H63.4841V46.0968H51.3873V34H39.7744V46.0968V57.7097V69.8065C39.7744 75.8065 42.0002 81.3226 45.5809 85.4839C50.0325 90.7097 56.6131 94 63.968 94C71.3228 94 77.9034 90.7097 82.3551 85.4839C78.6776 81.2258 76.5486 75.8065 76.5486 69.8065Z" fill="white"/>
<path d="M100.742 45.6129C96.0967 45.6129 91.8387 46.871 88.1612 49.0968V34H76.5483V69.8065C76.5483 75.8065 78.7741 81.3226 82.3548 85.4839C86.8064 90.7097 93.3871 94 100.742 94C114.097 94 124.935 83.1613 124.935 69.8065C124.935 56.4516 114.097 45.6129 100.742 45.6129ZM100.742 82.3871C93.7741 82.3871 88.1612 76.7742 88.1612 69.8065C88.1612 62.8387 93.7741 57.2258 100.742 57.2258C107.71 57.2258 113.323 62.8387 113.323 69.8065C113.323 76.7742 107.613 82.3871 100.742 82.3871Z" fill="white"/>
</svg>
