<svg width="128" height="128" viewBox="0 0 128 128" fill="none" xmlns="http://www.w3.org/2000/svg">
<rect width="128" height="128" rx="20" fill="#FDC34A"/>
<path d="M46.9708 53.4648C48.6119 56.9815 50.5656 60.42 53.1445 63.3115C54.0823 61.5922 54.7856 59.7948 55.5671 57.9974C58.6149 50.0263 60.256 41.5863 61.35 33.2245C62.1315 26.8945 62.6786 20.4082 62.6004 14.0782C55.3327 14.2345 47.9086 16.11 41.3441 19.3923C41.1879 19.4704 40.9534 19.6267 40.7971 19.783C40.6408 21.0334 40.7971 22.3619 40.719 23.6122C40.9534 33.7715 42.7508 44.087 46.9708 53.4648Z" fill="white"/>
<path d="M70.7278 53.0741C71.8219 56.5126 73.0722 60.0293 74.7915 63.2333C76.667 61.0452 78.23 58.6226 79.6367 56.1219C83.7785 48.3852 85.9667 39.6326 86.8263 30.88C87.1389 27.2071 87.3733 23.456 87.217 19.783C85.5759 18.7671 83.7004 18.0638 81.9811 17.2823C76.667 15.2504 71.0404 14.1564 65.3356 14.0001C65.2574 17.126 65.4137 20.2519 65.6482 23.2997C66.3515 33.3808 67.7582 43.3837 70.7278 53.0741Z" fill="white"/>
<path d="M28.6841 57.9973C32.4353 52.4488 34.7015 46.0407 36.1864 39.5544C37.5149 33.537 38.2182 27.3633 38.2182 21.1896C37.8275 21.3459 37.4367 21.5803 37.1241 21.8148C30.7941 25.8785 25.3238 31.3489 21.3382 37.8351C15.4771 47.2911 12.9764 58.9351 14.3831 69.954C20.2442 67.5314 25.1675 63.1551 28.6841 57.9973Z" fill="white"/>
<path d="M108.161 40.5703C104.644 33.8496 99.4863 27.9103 93.3126 23.4559C92.1404 22.6744 91.0463 21.8148 89.796 21.1896C89.796 26.1129 90.2648 31.1144 91.1245 36.0377C92.453 43.4618 94.7974 50.8859 98.8611 57.2159C102.378 62.7644 107.457 67.4533 113.631 69.954C114.881 59.951 112.928 49.4792 108.161 40.5703Z" fill="white"/>
<path d="M49.0027 72.3766C48.6901 71.7515 48.0649 71.2826 47.596 70.7355C45.486 68.3129 43.7667 65.5778 42.2819 62.7644C41.1097 60.4981 40.2501 58.0756 39.4686 55.7311C38.9997 56.4344 38.7653 57.2159 38.5308 57.9974C37.1242 61.983 35.0923 65.8122 32.5134 69.1726C28.5279 74.3303 23.2138 78.7066 17.0401 80.9729C17.1182 81.4418 17.2745 81.9107 17.4308 82.3014C18.9938 86.2088 21.0257 89.96 23.5264 93.3203C24.5423 94.5707 25.4801 95.9774 26.6523 97.0714C27.4338 96.837 28.059 96.3681 28.7623 95.9774C36.2645 91.1322 42.2038 84.0989 46.7364 76.5185C47.596 75.19 48.4556 73.8615 49.0027 72.3766Z" fill="white"/>
<path d="M64.6323 58.31C64.3978 57.4503 64.476 56.5126 63.9289 55.8092C63.3819 56.5126 63.46 57.5285 63.2256 58.31C61.5845 66.75 59.0837 75.1118 55.7234 83.0048C51.8941 91.9136 46.8926 100.51 39.8593 107.309C39.5467 107.7 40.2501 107.856 40.4845 108.012C47.5178 111.685 55.4889 113.717 63.46 113.795C71.9782 113.873 80.6526 111.763 88.0767 107.543C81.0433 100.588 75.8074 91.9136 71.9782 82.8485C68.8522 74.9555 66.2734 66.75 64.6323 58.31Z" fill="white"/>
<path d="M89.4052 57.9192C89.1707 57.2159 89.0144 56.4344 88.5455 55.8092C88.0767 56.5907 87.8422 57.5285 87.5296 58.3881C85.6541 63.4677 82.8407 68.1566 79.1678 72.1422C78.777 72.4548 79.0896 72.8455 79.2459 73.1581C80.887 76.284 82.7626 79.2537 84.7944 82.067C88.78 87.4592 93.547 92.3825 99.2518 96.1336C99.877 96.5244 100.502 96.9933 101.206 97.1496C101.753 96.7588 102.143 96.1336 102.534 95.6647C105.191 92.4607 107.379 88.944 109.177 85.1929C109.802 83.8644 110.427 82.4577 110.818 81.0511C107.457 79.8007 104.41 78.0033 101.674 75.737C96.0478 71.0481 91.8278 64.7963 89.4052 57.9192Z" fill="white"/>
</svg>
