<svg width="128" height="128" viewBox="0 0 128 128" fill="none" xmlns="http://www.w3.org/2000/svg">
<rect width="128" height="128" rx="20" fill="#17755B"/>
<path d="M90.875 48.5782L90.6406 48.7344L90.1719 48.8907L89.625 49.0469H89.1562L88.7656 48.9688L88.2969 48.8125L87.9844 48.6563L87.8281 48.5782L87.9844 49.2032L88.375 50.375L88.8438 51.5469L89.4687 52.7969L90.1719 53.8907L90.9531 54.8282L91.7344 55.4532L92.3594 55.8438L92.9844 56H93.6094L94.2344 55.9219L94.625 55.7657L95.0156 55.6094L95.1719 55.4532L114 45.1407V36L90.875 48.5782Z" fill="white"/>
<path d="M99 58.1094L92.125 61.9375L91.0312 62.4844L81.5 42.0938H67.5156L47.5938 78.7344L48.2969 78.6562L49.0781 78.5L50.7969 78.2656L52.6719 77.875L54.625 77.4844L56.5 76.9375L58.5312 76.3125L60.4844 75.6094L61.9688 75.1406L62.5938 74.8281L63.2188 74.5156L63.6875 74.0469L64.2344 73.5L64.5469 72.875L74.0781 52.9531L80.25 68.2656L80.1719 68.3437L75.0937 70.9219L70.4844 73.1875L66.3438 75.0625L62.5156 76.7031L58.7656 78.0313L55.0937 79.2812L51.5781 80.2969L47.9844 81.1563L44.5469 81.8594L41.2656 82.4062L38.2188 82.875L35.4844 83.1094L32.9844 83.2656L30.9531 83.4219L29.1562 83.3437L26.4219 83.0313L24.5469 82.5625L23.2188 82.0156L22.125 81.3125L21.1875 80.4531L20.5625 79.4375L20.0938 78.3438L20.0156 77.0937L20.0938 75.5312L20.6406 73.8125L21.5781 71.8594L22.75 69.9062L24.1562 68.0312L25.875 66.1562L27.5156 64.4375L29.2344 62.875L31.1094 61.4688L33.2188 59.8281L35.4062 58.4219L37.4375 57.1719L39.625 55.9219L41.8906 54.8281L44.0781 53.8125L46.3438 52.875L48.5313 52.1719L50.5625 51.5469L52.3594 51.1562L54 50.8437L55.6406 50.7656L57.3594 50.9219L58.2969 51.0781L57.8281 49.3594L56.9688 46.4687L56.3438 44.5156L55.7969 43.2656L55.4062 42.6406L55.0156 42.25L54.5469 41.9375L53.8438 41.7031L52.75 41.5469L51.1875 41.625L49.2344 41.8594L46.9688 42.3281L44.625 43.0312L42.2031 43.8906L39.8594 44.9062L37.6719 45.9219L35.4844 47.0937L33.375 48.2656L31.1875 49.5937L29 51.1562L26.7344 52.7187L24.7813 54.2812L23.0625 55.6875L21.5781 57.1719L20.0156 58.7344L18.6875 60.375L17.3594 62.1719L16.2656 63.9688L15.3281 65.9219L14.625 67.875L14.1563 69.8281L14 71.7031L14.1563 73.8125L14.5469 75.9219L15.0937 78.1094L15.875 80.1406L16.7344 82.0156L17.75 83.6562L19 85.2969L20.4062 86.7812L21.8906 88.0312L23.5312 89.125L25.3281 90.0625L27.4375 90.7656L29.9375 91.4687L32.6719 92.0156L35.4844 92.25L38.2188 92.3281L40.875 92.1719L43.2188 92.0156L45.4844 91.7031L47.75 91.3125L50.0156 90.8438L52.2031 90.2969L54.2344 89.8281L56.5 89.125L58.7656 88.5L61.0313 87.7969L63.2969 86.9375L65.6406 86.0781L67.9062 85.1406L70.25 84.2031L72.5938 83.0313L75.0937 81.8594L76.5 81.0781L78.375 80.0625L80.9531 78.7344L83.7656 77.1719L89.3125 90.8438L89.4687 91.3125L89.7031 91.7031L90.0156 92.0156L90.4063 92.3281L90.875 92.5625L91.2656 92.7188L91.8125 92.875H92.2812H105.172L95.0156 71L96.7344 70.0625L104.938 65.4531L114 60.4531V49.5937L106.344 53.9687L99 58.1094Z" fill="white"/>
</svg>
