<svg width="128" height="128" viewBox="0 0 128 128" fill="none" xmlns="http://www.w3.org/2000/svg">
<rect width="128" height="128" rx="20" fill="#2084C5"/>
<path d="M43.5312 83.4687C41.2656 86.3593 37.75 88.1562 33.8437 88.1562C27.0469 88.1562 21.5 82.6093 21.5 75.8125C21.5 69.0156 27.0469 63.4687 33.8437 63.4687C37.5156 63.4687 40.875 65.1093 43.1406 67.6875L47.75 61.8281C44.1563 58.2343 39.2344 56.0468 33.8437 56.0468C22.8281 56.0468 14 64.875 14 75.8125C14 86.75 22.8281 95.5781 33.7656 95.5781C39.2344 95.5781 44.1563 93.3906 47.75 89.7968L43.5312 83.4687Z" fill="white"/>
<path d="M60.0938 56.8281H51.7344V95.1875H60.0938V56.8281Z" fill="white"/>
<path d="M105.641 56.9843H97.2812V95.3437H105.641V56.9843Z" fill="white"/>
<path d="M82.9844 95.5781C75.7969 95.5781 74.0781 89.4843 73.9219 85.9687H73.8438V64.0937H66.5V57.0625H73.8438V49.6406L81.2656 45.1093L81.0313 50.8125V57.0625H88.5313V64.0937H81.0313V83.5468C80.9531 83.7812 80.9531 84.0937 80.9531 84.4062C80.9531 84.7187 80.9531 84.9531 81.0313 85.2656V85.7343C81.3438 87.4531 82.4375 88.8593 84 89.4843C84.625 89.7187 85.25 89.875 85.9531 89.875C87.5156 89.875 88.9219 89.1718 89.8594 88.0781C90.0938 87.8437 90.25 87.5312 90.4063 87.2968C90.4844 87.0625 90.6406 95.5781 82.9844 95.5781Z" fill="white"/>
<path d="M81.1094 83.4687V85.1093C81.0312 84.8749 81.0313 84.5624 81.0313 84.2499C81.0313 84.0156 81.0312 83.7031 81.1094 83.4687Z" fill="white"/>
<path d="M80.0156 33C65.875 33 53.2969 40.1875 46.0312 51.125H57.8281C63.5312 45.5781 71.3438 42.0625 79.9375 42.0625C88.5313 42.0625 96.3437 45.5 102.047 51.125H114C106.734 40.3437 94.2344 33 80.0156 33Z" fill="white"/>
</svg>
