<svg width="128" height="128" viewBox="0 0 128 128" fill="none" xmlns="http://www.w3.org/2000/svg">
<rect width="128" height="128" rx="20" fill="#1D8E33"/>
<path d="M87.5937 88.2187C85.4844 87.1249 83.2188 86.0312 79.8594 86.0312C76.8906 86.0312 74.4687 87.1249 72.2031 88.2187C69.7812 89.3124 67.2813 90.4843 63.9219 90.4843C60.9531 90.4843 58.7656 89.4687 56.4219 88.3749C54 87.2812 51.5 86.1093 48.0625 86.1093C45.0937 86.1093 42.6719 87.2031 40.3281 88.2187C37.9063 89.3124 35.3281 90.4843 32.0469 90.4843C31.8906 90.4843 31.6563 90.4843 31.5 90.4843C31.8125 90.8749 32.2031 91.3437 32.5156 91.7343C35.875 91.6562 38.375 90.4843 40.7969 89.3906C43.1406 88.3749 45.25 87.3593 47.9844 87.3593C51.1094 87.3593 53.375 88.4531 55.7969 89.5468C58.1406 90.6406 60.6406 91.8124 63.8438 91.8124C67.4375 91.8124 70.0937 90.5624 72.6719 89.3906C74.9375 88.3749 77.125 87.3593 79.8594 87.3593C82.9063 87.3593 84.9375 88.3749 87.0469 89.4687C89.3125 90.6406 91.7344 91.8124 95.6406 91.8124C96.0312 91.4218 96.3438 90.9531 96.7344 90.4843C96.4219 90.4843 96.0312 90.5624 95.7187 90.5624C92.0469 90.4062 89.7812 89.3124 87.5937 88.2187Z" fill="white"/>
<path d="M79.8594 88.3749C76.8906 88.3749 74.4688 89.4686 72.2031 90.5624C69.7813 91.6561 67.2813 92.828 63.9219 92.828C60.9531 92.828 58.7656 91.8124 56.4219 90.7186C54 89.6249 51.5 88.453 48.0625 88.453C45.0937 88.453 42.6719 89.5468 40.3281 90.5624C38.2969 91.4999 36.1094 92.4374 33.5312 92.7499C33.9219 93.1405 34.2344 93.5311 34.625 93.8436C37.0469 93.453 39 92.5936 40.875 91.7343C43.2188 90.7186 45.3281 89.703 48.0625 89.703C51.1875 89.703 53.4531 90.7968 55.875 91.8905C58.2187 92.9843 60.7188 94.1561 63.9219 94.1561C67.5156 94.1561 70.1719 92.9061 72.75 91.7343C75.0156 90.6405 77.2031 89.703 79.9375 89.703C82.9844 89.703 85.0156 90.7186 87.125 91.8124C89 92.7499 90.875 93.6874 93.6094 94.078C94 93.6874 94.3906 93.2968 94.7031 92.9061C91.6563 92.7499 89.625 91.6561 87.6719 90.7186C85.4063 89.4686 83.2188 88.3749 79.8594 88.3749Z" fill="white"/>
<path d="M79.8594 90.7186C76.8906 90.7186 74.4688 91.8124 72.2031 92.9061C69.7813 93.9999 67.2813 95.1718 63.9219 95.1718C60.9531 95.1718 58.7656 94.1561 56.4219 93.0624C54 91.9686 51.5 90.7968 48.0625 90.7968C45.0937 90.7968 42.6719 91.8905 40.3281 92.9061C38.8438 93.6093 37.2812 94.3124 35.4844 94.703C35.875 95.0155 36.1875 95.4061 36.5781 95.7186C38.0625 95.2499 39.4687 94.6249 40.7969 94.078C43.1406 93.0624 45.25 92.0468 47.9844 92.0468C51.1094 92.0468 53.375 93.1405 55.7969 94.2343C58.1406 95.328 60.6406 96.4999 63.8437 96.4999C67.4375 96.4999 70.0937 95.2499 72.6719 94.078C74.9375 93.0624 77.125 92.0468 79.8594 92.0468C82.9063 92.0468 84.9375 93.0624 87.0469 94.078C88.375 94.7811 89.7031 95.4061 91.4219 95.8749C91.8125 95.5624 92.2031 95.1718 92.5937 94.8593C90.6406 94.4686 89.1563 93.6874 87.6719 92.9061C85.4063 91.8905 83.2188 90.7186 79.8594 90.7186Z" fill="white"/>
<path d="M79.8594 93.1405C76.8906 93.1405 74.4688 94.2342 72.2031 95.328C69.7813 96.4217 67.2813 97.5936 63.9219 97.5936C60.9531 97.5936 58.7656 96.578 56.4219 95.4843C54 94.3905 51.5 93.2186 48.0625 93.2186C45.0937 93.2186 42.6719 94.3124 40.3281 95.328C39.3906 95.7186 38.5312 96.1874 37.5156 96.4999C37.9062 96.8124 38.2969 97.1249 38.6875 97.4374C39.4688 97.1249 40.1719 96.8124 40.875 96.4999C43.2188 95.4842 45.3281 94.4686 48.0625 94.4686C51.1875 94.4686 53.4531 95.5624 55.875 96.6561C58.2187 97.7499 60.7188 98.9217 63.9219 98.9217C67.5156 98.9217 70.1719 97.6717 72.75 96.4999C75.0156 95.4061 77.2031 94.4686 79.9375 94.4686C82.9844 94.4686 85.0156 95.4842 87.125 96.578C87.8281 96.9686 88.6094 97.3592 89.3906 97.6717C89.7813 97.3592 90.1719 97.0468 90.5625 96.7343C89.5469 96.3436 88.6094 95.8749 87.6719 95.4061C85.4063 94.2342 83.2188 93.1405 79.8594 93.1405Z" fill="white"/>
<path d="M79.8594 95.4843C76.8906 95.4843 74.4687 96.578 72.2031 97.6717C69.7812 98.7655 67.2813 99.9374 63.9219 99.9374C60.9531 99.9374 58.7656 98.9218 56.4219 97.828C54 96.6561 51.5 95.5624 48.0625 95.5624C45.0937 95.5624 42.6719 96.6561 40.3281 97.6717C40.0937 97.828 39.7813 97.9061 39.5469 98.0624C39.9375 98.3749 40.3281 98.6092 40.7188 98.9217C40.7969 98.9217 40.7969 98.9217 40.875 98.8436C43.2188 97.828 45.3281 96.8124 48.0625 96.8124C51.1875 96.8124 53.4531 97.9061 55.875 98.9999C58.2187 100.094 60.7188 101.265 63.9219 101.265C67.5156 101.265 70.1719 100.015 72.75 98.8436C75.0156 97.7499 77.2031 96.8124 79.9375 96.8124C82.9844 96.8124 85.0156 97.828 87.125 98.9217C87.2031 98.9999 87.2812 98.9999 87.4375 99.078C87.8281 98.8436 88.2187 98.5311 88.6094 98.2968C88.2969 98.1405 87.9844 97.9843 87.75 97.828C85.4063 96.6561 83.2188 95.4843 79.8594 95.4843Z" fill="white"/>
<path d="M72.0469 100.016C69.625 101.109 67.125 102.281 63.7656 102.281C60.7969 102.281 58.6094 101.266 56.2656 100.172C53.8437 99.078 51.3438 97.9061 47.9063 97.9061C45.4844 97.9061 43.4531 98.6093 41.5 99.4686C41.9688 99.7811 42.3594 100.016 42.8281 100.25C44.3906 99.6249 46.0313 99.1561 47.9063 99.1561C51.0313 99.1561 53.2969 100.25 55.7188 101.344C58.0625 102.437 60.5625 103.609 63.7656 103.609C67.3594 103.609 70.0156 102.359 72.5938 101.187C74.8594 100.172 77.0469 99.1561 79.7812 99.1561C81.9688 99.1561 83.6094 99.6249 85.0938 100.328C85.5625 100.094 85.9531 99.7811 86.3438 99.5468C84.5469 98.6874 82.5156 97.9061 79.7812 97.9061C76.8906 97.9061 74.3906 98.9999 72.0469 100.016Z" fill="white"/>
<path d="M64 14C36.4219 14 14 36.4219 14 64C14 91.5781 36.4219 114 64 114C91.5781 114 114 91.5781 114 64C114 36.4219 91.5781 14 64 14ZM64 106.031C40.7969 106.031 21.9687 87.2031 21.9687 64C21.9687 40.7969 40.7969 21.9687 64 21.9687C87.2031 21.9687 106.031 40.7969 106.031 64C106.031 87.2031 87.2031 106.031 64 106.031Z" fill="white"/>
<path d="M87.3594 51.6562C87.0469 53.2187 85.4844 54.8593 84.625 55.5624C82.6719 57.1249 69.7031 65.0156 68.2188 66.8124C66.7344 68.6093 66.5 71.3437 66.5 73.3749V88.6093H68.5313C68.5313 87.2812 68.5313 85.0156 68.5313 84.7031C68.5313 83.3749 69.3125 81.2656 70.875 79.6249C73.5313 76.8124 79.7031 73.3749 83.8438 70.4062C87.2031 67.9062 87.4375 64.5468 87.4375 61.6562C87.4375 59.2343 87.4375 52.5156 87.4375 51.2656L87.3594 51.6562Z" fill="white"/>
<path d="M66.5781 65.875C67.9844 64.0781 81.4219 55.9531 83.2969 54.3906C85.1719 52.8281 87.4375 50.4844 87.4375 47.4375C87.4375 44.8594 87.4375 32.2031 87.4375 30.4062C87.4375 32.8281 86.1094 34.625 84.3906 36.8906C82.4375 39.4687 73.4531 44.3125 69 47.4375C64.5469 50.5625 63.0625 53.6094 63.0625 57.4375C63.0625 60.6406 63.0625 81.7344 63.0625 88.5313H65.0156C65.0156 84.0781 65.0156 73.8437 65.0156 72.2812C64.9375 70.25 65.0938 67.6719 66.5781 65.875Z" fill="white"/>
<path d="M56.4219 48.2187C52.3594 45.0937 44.0781 38.4531 43.0625 37.1249C42.0469 35.7968 39.9375 33.4531 39.9375 30.5624C39.9375 32.6718 39.9375 44.4687 39.9375 46.4218C39.9375 48.6874 41.0312 52.7499 44.9375 55.6406C48.8437 58.5312 54.3906 62.6718 56.1094 64.3906C57.75 66.0312 59.3125 69.0781 59.3125 73.3749C59.3125 76.4999 59.3125 84.8593 59.3125 88.6874H61.2656C61.2656 82.1249 61.2656 62.2812 61.2656 58.2968C61.4219 53.2968 60.4844 51.3437 56.4219 48.2187Z" fill="white"/>
</svg>
