<svg width="128" height="128" viewBox="0 0 128 128" fill="none" xmlns="http://www.w3.org/2000/svg">
<rect width="128" height="128" rx="20" fill="#259DC3"/>
<path d="M64 14C36.4219 14 14 36.4219 14 64C14 91.5781 36.4219 114 64 114C91.5781 114 114 91.5781 114 64C114 36.4219 91.5781 14 64 14ZM52.6719 42.9844C52.6719 42.125 53.6875 40.9531 54.4687 40.5625C62.8281 36.5781 71.3437 32.75 79.7031 28.8438C82.9844 27.3594 86.1094 27.75 88.7656 30.1719C91.8125 33.0625 94.7812 36.0313 97.6719 39.1563C98.2969 39.7813 98.375 41.0312 98.6875 41.9687C97.8281 42.2031 96.9688 42.4375 96.0312 42.6719C94.3125 43.0625 92.5156 43.2188 90.9531 44C79.3906 49.4688 67.8281 55.1719 56.1875 60.7187C55.1719 61.1875 54.2344 61.5781 52.5938 62.3594C52.5938 55.4063 52.5156 49.2344 52.6719 42.9844ZM92.5937 80.4844C88.6875 80.6406 84.7812 80.6406 80.9531 80.4844C80.0937 80.4062 78.8438 79.625 78.4531 78.7656C74.8594 71.8906 71.4219 64.9375 67.75 57.5937C73.5313 54.7812 78.9219 52.2031 84.625 49.3906C88.8438 57.5156 93.1406 65.3281 97.0469 73.375C98.6875 76.7344 96.4219 80.25 92.5937 80.4844ZM36.3438 32.4375C40.7188 28.8438 45.25 25.6406 50.7969 24.3906C50.7969 43.375 50.7969 61.7344 50.7969 80.3281C44.5469 80.3281 38.7656 80.3281 32.5156 80.3281C32.5156 79.1563 32.5156 78.0625 32.5156 76.8906C32.5156 64.8594 32.5938 52.9063 32.5156 40.875C32.5156 37.3594 33.6875 34.625 36.3438 32.4375ZM78.0625 100.094C73.375 100.094 68.7656 100.094 64.0781 100.094C59.5469 100.094 54.9375 99.7813 50.4062 100.172C43.7656 100.719 38.5312 97.9844 34.2344 92.9062C32.0469 90.25 29.9375 87.5156 27.9062 84.7031C27.4375 84.0781 27.4375 82.9063 27.6719 82.2031C27.75 81.8906 29 81.8125 29.7031 81.8906C31.6563 82.0469 33.6094 82.5156 35.6406 82.5156C54.3906 82.5937 73.2188 82.5937 91.9688 82.5156C94.1563 82.5156 96.3437 82.0469 98.5312 81.8125C99.1562 81.7344 100.172 81.8125 100.328 82.125C100.641 82.75 100.641 83.7656 100.406 84.3906C97.125 92.8281 86.7344 100.094 78.0625 100.094Z" fill="white"/>
</svg>
