<svg width="128" height="128" viewBox="0 0 128 128" fill="none" xmlns="http://www.w3.org/2000/svg">
<rect width="128" height="128" rx="20" fill="#D4182B"/>
<path d="M64 48.7031C55.875 48.7031 49.2344 55.3438 49.2344 63.4688C49.2344 71.5938 55.875 78.3125 64 78.3125C72.125 78.3125 78.7656 71.6719 78.7656 63.5469C78.7656 55.4219 72.125 48.7031 64 48.7031Z" fill="white"/>
<path d="M78.4531 28C73.2969 28 68.375 29.0938 64 31.125C59.625 29.0938 54.625 28 49.5469 28C29.8594 28 14 43.8594 14 63.5469C14 83.2344 29.8594 99.0938 49.5469 99.0938C54.7031 99.0938 59.625 98 64 95.9688C68.375 98 73.375 99.0938 78.4531 99.0938C97.9844 99.0938 114 83.2344 114 63.5469C114 43.8594 98.1406 28 78.4531 28ZM64 95.5781C46.2656 95.5781 31.8906 81.2031 31.8906 63.4688C31.8906 45.7344 46.2656 31.3594 64 31.3594C81.7344 31.3594 96.1094 45.7344 96.1094 63.4688C96.1094 81.2031 81.7344 95.5781 64 95.5781Z" fill="white"/>
</svg>
