<svg width="128" height="128" viewBox="0 0 128 128" fill="none" xmlns="http://www.w3.org/2000/svg">
<rect width="128" height="128" rx="20" fill="#F9502D"/>
<path d="M89.0918 58.8949C87.452 57.8017 85.6562 56.9428 83.8603 56.3182C77.6137 54.1319 75.974 54.6784 72.6945 60.5346C70.274 64.8291 68.1657 69.2017 65.7452 73.4963C64.7301 75.3702 63.5589 77.2442 61.9972 78.7278C53.8767 86.7702 43.6479 88.1757 32.7945 87.473C36.0739 85.599 38.2602 82.788 40.1342 79.5867C42.5548 75.3702 44.9753 71.0757 47.2397 66.7031C49.7383 61.9401 53.252 58.2702 58.1712 56.0058C59.0301 55.6154 59.8109 55.3031 60.6698 54.9908C60.5918 54.9127 60.5918 54.8346 60.5137 54.7565C60.2794 54.7565 60.0452 54.7565 59.8109 54.7565C48.0205 56.4743 36.9329 60.0661 26.9383 66.7031C22.5657 69.5141 18.7397 72.9497 16.0068 77.4785C12.1808 83.8812 13.8986 90.362 20.5356 93.7196C22.8 94.8908 25.2986 95.7497 27.7192 96.3743C35.6055 98.2483 43.5698 97.7798 51.4561 96.3743C62.3877 94.4223 72.7726 90.7524 81.9863 84.4278C86.3589 81.4606 90.3411 77.9469 92.7616 73.0278C95.4945 67.6401 94.1671 62.3305 89.0918 58.8949Z" fill="white"/>
<path opacity="0.7" d="M111.423 31.0195C94.9479 31.0195 78.3944 30.9414 61.9191 31.0976C57.3122 31.0976 52.6273 31.488 48.0204 32.1908C40.6026 33.2839 33.6533 35.9387 27.9533 41.014C25.0643 43.5127 22.7999 46.5579 21.3944 50.3839C22.2533 50.462 22.7999 50.5401 23.4245 50.5401C41.3054 50.5401 59.2643 50.6182 77.1451 50.462C85.3437 50.3839 93.3862 48.9003 100.726 45.0743C106.66 42.0291 111.111 37.6565 114 31.0195C112.829 31.0195 112.126 31.0195 111.423 31.0195Z" fill="white"/>
</svg>
