<svg width="128" height="128" viewBox="0 0 128 128" fill="none" xmlns="http://www.w3.org/2000/svg">
<rect width="128" height="128" rx="20" fill="#0060AA"/>
<path d="M113.958 64.142C114.661 90.381 91.78 115.058 62.0268 113.965C35.6316 112.95 14 90.6153 14 63.9858C14 37.6686 35.5535 13.5381 64.9162 14.0067C93.1076 14.4752 114.583 38.0591 113.958 64.142ZM106.071 60.9402C105.993 54.7709 103.806 46.0245 98.8083 38.0591C90.7648 25.4081 79.4414 18.0675 64.3696 17.677C53.2024 17.3646 43.597 21.894 35.7878 29.7813C19.8569 45.9464 17.5142 72.3417 30.087 91.1619C41.2542 107.796 60.465 114.433 78.0358 107.561C94.6695 101.158 105.993 83.5089 106.071 60.9402Z" fill="white"/>
<path d="M79.5196 78.1986C77.0206 80.9318 74.756 83.3527 72.1008 86.2421C68.9771 82.9622 65.8534 79.7604 62.8859 76.5586C59.9965 73.435 60.0746 73.435 63.1202 70.3893C64.5259 68.9837 65.6972 67.3437 66.6344 66.1724C71.398 70.6236 75.5369 74.5282 79.5196 78.1986Z" fill="#F99B05"/>
<path d="M77.333 62.8144C72.9598 58.2069 69.3675 54.4585 65.9315 50.5539C65.541 50.1634 65.4629 48.8358 65.8534 48.4454C67.8057 46.1026 69.9142 43.9941 72.4132 41.2609C76.5521 45.5559 80.2224 49.3044 83.8146 53.1309C84.2051 53.5214 84.2051 54.8489 83.8146 55.3175C81.8623 57.7384 79.91 59.8469 77.333 62.8144Z" fill="#F99B05"/>
<path d="M70.1484 59.6127C66.1657 63.5173 62.183 67.5 58.5127 71.1703C55.5451 68.7495 52.8119 66.4848 50.2349 64.2982C54.608 59.7689 58.5127 55.7861 62.5735 51.5692C65.0724 54.2243 67.4152 56.7233 70.1484 59.6127Z" fill="#F99B05"/>
<path d="M62.6515 80.6194C65.2286 83.3527 67.4933 85.7735 70.2265 88.5849C66.6342 92.099 62.8858 95.7694 58.9812 99.3616C58.5907 99.7521 57.4193 99.9083 57.1851 99.5959C55.5451 97.8779 53.5928 96.1598 52.8119 94.0513C52.3433 92.8019 53.2804 90.4591 54.2956 89.2096C56.7165 86.3202 59.684 83.665 62.6515 80.6194Z" fill="#F99B05"/>
<path d="M75.3806 68.437C78.9729 64.7667 82.8775 60.784 87.0945 56.4889C88.8125 58.3631 90.921 60.003 92.0924 62.1115C93.0295 63.9077 92.5609 66.1723 90.8429 67.8123C88.0316 70.5455 85.2983 73.3568 82.4089 76.2463C79.9881 73.5911 77.6453 70.936 75.3806 68.437Z" fill="#F99B05"/>
<path d="M43.0504 41.4952C47.5798 46.0245 51.4844 49.9292 55.5452 54.0681C52.9681 56.567 50.4692 58.9098 48.2045 61.0964C45.1589 58.2069 41.7228 55.3175 38.6772 52.0377C37.1154 50.3977 37.4278 48.133 38.8334 46.2588C40.161 44.7751 41.4886 43.2913 43.0504 41.4952Z" fill="#F99B05"/>
<path d="M62.2611 47.0398C59.6841 44.4627 56.8727 41.7295 54.1395 38.9182C51.7186 36.3411 51.7186 33.5298 54.1395 31.0308C55.3109 29.8594 56.4823 28.7661 57.8098 27.5167C61.9487 31.6556 65.9315 35.6383 70.0704 39.7772C67.5714 42.1199 65.0724 44.4627 62.2611 47.0398Z" fill="#F99B05"/>
<path d="M55.3109 74.0597C51.4063 77.8081 47.4236 81.6347 43.1285 85.6955C41.9571 84.6022 40.3953 83.3527 39.1458 81.8689C37.1935 79.5262 37.2716 77.0272 39.4582 74.8406C42.2695 72.0293 45.237 69.2961 48.2045 66.4847C50.313 68.7494 52.6558 71.3265 55.3109 74.0597Z" fill="#F99B05"/>
</svg>
