<svg width="128" height="128" viewBox="0 0 128 128" fill="none" xmlns="http://www.w3.org/2000/svg">
<rect width="128" height="128" rx="20" fill="#1C7ABC"/>
<path d="M51.1094 40C48.2969 40 45.875 42.2656 45.875 45.2344C45.875 48.125 48.2188 50.4688 51.1094 50.4688C54 50.4688 56.3438 48.125 56.3438 45.2344C56.2656 42.3438 53.9219 40 51.1094 40ZM76.8125 40C74 40 71.5781 42.2656 71.5781 45.2344C71.5781 48.125 73.8438 50.4688 76.8125 50.4688C79.7813 50.4688 82.0469 48.125 82.0469 45.2344C82.0469 42.3438 79.7031 40 76.8125 40ZM46.0313 54.7656V87.6562H53.2188V64.6094H53.2969L61.1094 87.6562H66.7344L74.625 64.5313V87.6562H81.8906V54.7656H71.4219L64.1562 77.3438H64.0781L56.4219 54.7656H46.0313Z" fill="white"/>
<path d="M14 60.8593V54.7655H41.1875V60.8593H31.1875V87.578H23.9219V60.8593H14Z" fill="white"/>
<path d="M102.359 54.7655C103.844 54.7655 105.25 54.9218 106.578 55.1561C107.828 55.4686 108.922 55.8593 109.781 56.4843C110.641 57.1093 111.344 57.9686 111.812 58.9843C112.281 59.9999 112.516 61.328 112.516 62.8905C112.516 64.5311 112.125 65.9374 111.422 67.0311C110.719 68.1249 109.625 69.0624 108.219 69.6874C110.172 70.2343 111.578 71.2499 112.594 72.7343C113.531 74.1405 114 75.9374 114 78.0467C114 79.6874 113.688 81.0936 113.063 82.4218C112.438 83.5936 111.578 84.6093 110.562 85.3905C109.547 86.1718 108.297 86.7186 106.969 87.1093C105.641 87.4999 104.234 87.6561 102.75 87.6561H87.4375V54.7655H102.359ZM101.5 68.1249C102.75 68.1249 103.766 67.8124 104.547 67.1874C105.328 66.5624 105.719 65.6249 105.719 64.2186C105.719 63.4374 105.563 62.8124 105.328 62.3436C105.094 61.8749 104.703 61.4843 104.234 61.1718C103.766 60.8593 103.297 60.703 102.672 60.6249C102.125 60.5468 101.5 60.4686 100.875 60.4686H94.2344V68.1249H101.5ZM101.891 82.0311C102.594 82.0311 103.219 81.953 103.844 81.7968C104.469 81.6405 105.016 81.4061 105.484 81.0936C105.953 80.7811 106.344 80.3124 106.656 79.7655C106.969 79.2186 107.047 78.5155 107.047 77.6561C107.047 76.0155 106.578 74.7655 105.641 74.0624C104.703 73.3593 103.531 72.9686 102.047 72.9686H94.3906V82.0311H101.891" fill="white"/>
</svg>
