<svg width="128" height="128" viewBox="0 0 128 128" fill="none" xmlns="http://www.w3.org/2000/svg">
<rect width="128" height="128" rx="20" fill="#022D61"/>
<path d="M38.7064 76.4128C33.895 76.4128 30.0191 72.5369 30.0191 67.7255V59.3723H38.3723V51.3532H30.0191V43H22V51.3532V59.3723V67.7255C22 76.9474 29.4845 84.4318 38.7064 84.4318C43.7851 84.4318 48.3293 82.1598 51.4032 78.5512C48.9307 75.6109 47.3937 71.8686 47.3937 67.7255C47.3937 72.4701 43.451 76.4128 38.7064 76.4128Z" fill="white"/>
<path d="M72.7875 67.7255C72.7875 72.5369 68.9116 76.4128 64.1002 76.4128C59.2887 76.4128 55.4129 72.5369 55.4129 67.7255V59.3723H63.7661V51.3532H55.4129V43H47.3938V51.3532V59.3723V67.7255C47.3938 71.8686 48.9308 75.6777 51.4033 78.5512C54.4773 82.1598 59.0214 84.4318 64.1002 84.4318C69.1789 84.4318 73.7231 82.1598 76.797 78.5512C74.2577 75.6109 72.7875 71.8686 72.7875 67.7255Z" fill="white"/>
<path d="M89.4937 51.0191C86.2861 51.0191 83.3458 51.8878 80.8064 53.4248V43H72.7874V67.7255C72.7874 71.8686 74.3243 75.6777 76.7969 78.5512C79.8709 82.1598 84.415 84.4318 89.4937 84.4318C98.7157 84.4318 106.2 76.9474 106.2 67.7255C106.2 58.5035 98.7157 51.0191 89.4937 51.0191ZM89.4937 76.4128C84.6823 76.4128 80.8064 72.5369 80.8064 67.7255C80.8064 62.914 84.6823 59.0381 89.4937 59.0381C94.3052 59.0381 98.1811 62.914 98.1811 67.7255C98.1811 72.5369 94.2384 76.4128 89.4937 76.4128Z" fill="white"/>
</svg>
