<svg width="128" height="128" viewBox="0 0 128 128" fill="none" xmlns="http://www.w3.org/2000/svg">
<rect width="128" height="128" rx="20" fill="#0F3B77"/>
<path d="M59.614 19V59.1754H68.2983V19C68.2983 16.2807 70.4912 14 73.1228 14C75.7544 14 77.9474 16.2807 77.9474 19V59.1754H86.6316V19C86.6316 16.2807 88.8246 14 91.4561 14C94.0877 14 96.2807 16.2807 96.2807 19V59.1754H108.912C111.719 59.1754 113.912 61.2807 113.912 64C113.912 66.6316 111.632 68.8246 108.912 68.8246H96.2807V109C96.2807 111.719 94.0877 114 91.4561 114C88.8246 114 86.6316 111.719 86.6316 109V68.8246H77.9474V109C77.9474 111.719 75.7544 114 73.1228 114C70.4912 114 68.2983 111.719 68.2983 109V68.8246H59.614V109C59.614 111.719 57.4211 114 54.7895 114C52.1579 114 49.9649 111.719 49.9649 109V68.8246H41.2807V109C41.2807 111.719 39.0877 114 36.4561 114C33.8246 114 31.6316 111.719 31.6316 109V68.8246H19C16.193 68.8246 14 66.6316 14 64C14 61.3684 16.193 59.1754 19 59.1754H31.6316V19C31.6316 16.2807 33.8246 14 36.4561 14C39.0877 14 41.2807 16.2807 41.2807 19V59.1754H50.0526V19C50.0526 16.2807 52.2456 14 54.8772 14C57.5088 14 59.614 16.2807 59.614 19Z" fill="white"/>
</svg>
